<svg width="37" height="22" viewBox="0 0 37 22" fill="none" xmlns="http://www.w3.org/2000/svg">
<g clip-path="url(#clip0_1817_5734)">
<path d="M10.5359 7.98999C10.5359 8.44271 10.584 8.80979 10.6684 9.07898C10.7647 9.34817 10.8852 9.64182 11.0538 9.95996C11.1141 10.0578 11.1382 10.1557 11.1382 10.2414C11.1382 10.3637 11.0659 10.4861 10.9093 10.6085L10.1504 11.1224C10.042 11.1958 9.93356 11.2325 9.83719 11.2325C9.71674 11.2325 9.59628 11.1713 9.47582 11.0612C9.30717 10.8776 9.16262 10.6819 9.04216 10.4861C8.92171 10.2781 8.80125 10.0456 8.66874 9.76418C7.72916 10.8899 6.54866 11.4527 5.12724 11.4527C4.11538 11.4527 3.30831 11.1591 2.71806 10.5717C2.12781 9.98443 1.82666 9.20134 1.82666 8.22247C1.82666 7.18243 2.18804 6.33815 2.92284 5.70189C3.65764 5.06563 4.63336 4.7475 5.87409 4.7475C6.28365 4.7475 6.70526 4.7842 7.15096 4.84538C7.59665 4.90656 8.0544 5.00445 8.53624 5.11457V4.22136C8.53624 3.29144 8.3435 2.64294 7.97008 2.26363C7.58461 1.88432 6.93413 1.70078 6.00659 1.70078C5.58499 1.70078 5.15133 1.74972 4.70563 1.85984C4.25994 1.96997 3.82628 2.10456 3.40468 2.27586C3.21194 2.36151 3.06739 2.41046 2.98307 2.43493C2.89875 2.4594 2.83852 2.47164 2.79033 2.47164C2.62169 2.47164 2.53737 2.34928 2.53737 2.09232V1.49277C2.53737 1.297 2.56146 1.15017 2.62169 1.06452C2.68192 0.978865 2.79033 0.893215 2.95898 0.807564C3.38058 0.587319 3.88651 0.403782 4.47676 0.256952C5.06701 0.0978865 5.6934 0.0244716 6.35592 0.0244716C7.78939 0.0244716 8.83738 0.354839 9.51196 1.01557C10.1745 1.67631 10.5118 2.67964 10.5118 4.02558V7.98999H10.5359ZM5.64522 9.84983C6.04273 9.84983 6.45229 9.77642 6.88595 9.62959C7.3196 9.48276 7.70507 9.21357 8.03031 8.8465C8.22304 8.61402 8.36759 8.35706 8.43987 8.0634C8.51214 7.76974 8.56033 7.41491 8.56033 6.99889V6.48498C8.211 6.39933 7.83757 6.32592 7.4521 6.27698C7.06663 6.22803 6.69321 6.20356 6.31979 6.20356C5.51271 6.20356 4.92246 6.36263 4.52495 6.69299C4.12743 7.02336 3.9347 7.48832 3.9347 8.10011C3.9347 8.6752 4.07925 9.10345 4.38039 9.39711C4.6695 9.703 5.0911 9.84983 5.64522 9.84983ZM15.3181 11.1713C15.1013 11.1713 14.9567 11.1346 14.8603 11.0489C14.764 10.9755 14.6797 10.8042 14.6074 10.5717L11.7766 1.11346C11.7043 0.868743 11.6682 0.709677 11.6682 0.624027C11.6682 0.428254 11.7645 0.318131 11.9573 0.318131H13.1378C13.3666 0.318131 13.5232 0.354839 13.6076 0.440489C13.7039 0.513904 13.7762 0.685206 13.8485 0.917686L15.8722 9.0178L17.7514 0.917686C17.8116 0.67297 17.8839 0.513904 17.9802 0.440489C18.0766 0.367075 18.2452 0.318131 18.4621 0.318131H19.4257C19.6546 0.318131 19.8112 0.354839 19.9076 0.440489C20.0039 0.513904 20.0883 0.685206 20.1365 0.917686L22.0397 9.11568L24.1237 0.917686C24.1959 0.67297 24.2802 0.513904 24.3646 0.440489C24.4609 0.367075 24.6175 0.318131 24.8344 0.318131H25.9546C26.1474 0.318131 26.2558 0.416018 26.2558 0.624027C26.2558 0.685206 26.2437 0.746385 26.2317 0.8198C26.2196 0.893215 26.1955 0.991101 26.1474 1.1257L23.2443 10.584C23.172 10.8287 23.0877 10.9878 22.9913 11.0612C22.895 11.1346 22.7384 11.1835 22.5336 11.1835H21.4976C21.2688 11.1835 21.1122 11.1468 21.0158 11.0612C20.9194 10.9755 20.8351 10.8165 20.7869 10.5717L18.9198 2.67964L17.0647 10.5595C17.0045 10.8042 16.9322 10.9633 16.8359 11.0489C16.7395 11.1346 16.5709 11.1713 16.354 11.1713H15.3181ZM30.7971 11.5017C30.1707 11.5017 29.5443 11.4283 28.942 11.2814C28.3397 11.1346 27.8699 10.9755 27.5567 10.792C27.364 10.6819 27.2315 10.5595 27.1833 10.4494C27.1351 10.3393 27.111 10.2169 27.111 10.1068V9.48276C27.111 9.22581 27.2074 9.10345 27.3881 9.10345C27.4604 9.10345 27.5326 9.11569 27.6049 9.14016C27.6772 9.16463 27.7856 9.21357 27.9061 9.26252C28.3156 9.44605 28.7613 9.59288 29.2311 9.69077C29.713 9.78866 30.1827 9.8376 30.6646 9.8376C31.4235 9.8376 32.0137 9.703 32.4233 9.43382C32.8328 9.16463 33.0497 8.77308 33.0497 8.27141C33.0497 7.92881 32.9413 7.64739 32.7244 7.41491C32.5076 7.18243 32.098 6.97442 31.5078 6.77864L29.7611 6.22803C28.8818 5.94661 28.2313 5.53059 27.8338 4.97998C27.4363 4.4416 27.2315 3.84205 27.2315 3.20578C27.2315 2.69188 27.3399 2.23915 27.5567 1.84761C27.7736 1.45606 28.0627 1.11346 28.424 0.844271C28.7854 0.562848 29.195 0.354839 29.6768 0.208009C30.1587 0.0611791 30.6646 0 31.1946 0C31.4596 0 31.7367 0.0122358 32.0017 0.0489433C32.2787 0.0856507 32.5317 0.134594 32.7847 0.183537C33.0256 0.244716 33.2545 0.305895 33.4713 0.37931C33.6881 0.452725 33.8568 0.52614 33.9772 0.599555C34.1459 0.697442 34.2663 0.795328 34.3386 0.905451C34.4109 1.00334 34.447 1.13793 34.447 1.30923V1.88432C34.447 2.14127 34.3506 2.27586 34.1699 2.27586C34.0736 2.27586 33.917 2.22692 33.7122 2.12903C33.0256 1.8109 32.2546 1.65184 31.3994 1.65184C30.7128 1.65184 30.1707 1.76196 29.7973 1.99444C29.4239 2.22692 29.2311 2.58176 29.2311 3.08343C29.2311 3.42603 29.3516 3.71969 29.5925 3.95217C29.8334 4.18465 30.2791 4.41713 30.9175 4.62514L32.6281 5.17575C33.4954 5.45718 34.1218 5.84872 34.4952 6.35039C34.8686 6.85206 35.0493 7.42714 35.0493 8.0634C35.0493 8.58954 34.9409 9.06674 34.7361 9.48276C34.5193 9.89878 34.2302 10.2659 33.8568 10.5595C33.4833 10.8654 33.0376 11.0857 32.5197 11.2447C31.9776 11.416 31.4114 11.5017 30.7971 11.5017Z" fill="#252F3E"/>
<path fill-rule="evenodd" clip-rule="evenodd" d="M33.0738 17.4484C29.1107 20.4217 23.3527 22.0001 18.4018 22.0001C11.4634 22.0001 5.21156 19.3939 0.489555 15.0624C0.116132 14.7198 0.453417 14.2548 0.899116 14.524C6.00659 17.534 12.3066 19.3571 18.8234 19.3571C23.2202 19.3571 28.0506 18.4272 32.4956 16.5184C33.1581 16.2125 33.7242 16.9589 33.0738 17.4484Z" fill="#FF9900"/>
<path fill-rule="evenodd" clip-rule="evenodd" d="M34.7243 15.5395C34.2184 14.8788 31.3755 15.2214 30.0866 15.3805C29.7011 15.4294 29.6409 15.0868 29.9902 14.8299C32.2549 13.2147 35.9771 13.6797 36.4107 14.2181C36.8444 14.7687 36.2903 18.5496 34.1702 20.3605C33.8449 20.6419 33.5317 20.495 33.6763 20.128C34.1581 18.9166 35.2302 16.188 34.7243 15.5395Z" fill="#FF9900"/>
</g>
<defs>
<clipPath id="clip0_1817_5734">
<rect width="36.96" height="22" fill="white"/>
</clipPath>
</defs>
</svg>
