<svg width="22" height="22" viewBox="0 0 22 22" fill="none" xmlns="http://www.w3.org/2000/svg">
<path d="M11.0256 11C11.0256 8.97499 12.6673 7.33337 14.6923 7.33337C16.7173 7.33337 18.3589 8.97504 18.3589 11C18.3589 13.0251 16.7173 14.6667 14.6923 14.6667C12.6672 14.6667 11.0256 13.0251 11.0256 11Z" fill="#00BCFF"/>
<path d="M3.69238 18.3333C3.69238 16.3083 5.334 14.6666 7.35904 14.6666L9.31304 13.635L11.0257 14.6666V18.3333C11.0257 20.3584 9.38407 22 7.35904 22C5.334 22 3.69238 20.3583 3.69238 18.3333Z" fill="#00CF7F"/>
<path d="M11.0257 0L9.03052 3.46629L11.0257 7.3333H14.6409C16.666 7.3333 18.3076 5.69168 18.3076 3.66665C18.3076 1.64162 16.666 0 14.6409 0H11.0257Z" fill="#FF7361"/>
<path d="M3.64087 3.66665C3.64087 5.69168 5.28249 7.3333 7.30752 7.3333L9.25259 8.08457L11.0256 7.3333V0H7.30748C5.28249 0 3.64087 1.64162 3.64087 3.66665Z" fill="#FF4D12"/>
<path d="M3.69238 10.9999C3.69238 13.025 5.334 14.6666 7.35904 14.6666H11.0257V7.33325H7.35904C5.334 7.33325 3.69238 8.97492 3.69238 10.9999Z" fill="#B659FF"/>
</svg>
