<svg width="22" height="22" viewBox="0 0 22 22" fill="none" xmlns="http://www.w3.org/2000/svg">
<g clip-path="url(#clip0_1817_5709)">
<path d="M21.5851 10.0199L11.9797 0.415007C11.4269 -0.138173 10.5297 -0.138173 9.97614 0.415007L7.98153 2.40962L10.5118 4.93987C11.0998 4.74119 11.774 4.87448 12.2427 5.34318C12.7137 5.81489 12.846 6.49491 12.6425 7.08479L15.081 9.52335C15.671 9.32011 16.3517 9.45159 16.8229 9.92356C17.4814 10.5818 17.4814 11.6488 16.8229 12.3075C16.1642 12.9663 15.0972 12.9663 14.4382 12.3075C13.9428 11.8116 13.8205 11.0841 14.0712 10.4739L11.7972 8.19983L11.7969 14.1843C11.9618 14.2658 12.1123 14.3734 12.2427 14.5031C12.9013 15.1614 12.9013 16.2284 12.2427 16.8876C11.584 17.546 10.5166 17.546 9.85884 16.8876C9.2003 16.2284 9.2003 15.1615 9.85884 14.5032C10.0167 14.3453 10.2042 14.2202 10.4106 14.1353V8.09507C10.2039 8.01067 10.0162 7.88556 9.85884 7.72717C9.35988 7.22891 9.23991 6.4968 9.49558 5.88416L7.00133 3.38965L0.415078 9.97547C-0.138359 10.5292 -0.138359 11.4264 0.415078 11.9797L10.0207 21.5848C10.5737 22.138 11.4707 22.138 12.0244 21.5848L21.585 12.0243C22.1383 11.4709 22.1384 10.5731 21.5851 10.0199Z" fill="#DE4C36"/>
</g>
<defs>
<clipPath id="clip0_1817_5709">
<rect width="22" height="22" fill="white"/>
</clipPath>
</defs>
</svg>
