<svg width="24" height="22" viewBox="0 0 24 22" fill="none" xmlns="http://www.w3.org/2000/svg">
<g clip-path="url(#clip0_1817_5728)">
<path d="M23.258 10.5225C23.2847 11.144 23.2095 11.7632 23.0349 12.3608C22.8628 12.9585 22.5913 13.5229 22.2324 14.0348C21.876 14.5471 21.4371 14.9991 20.9329 15.3731L20.9208 15.3826L16.0743 18.9496L13.6911 20.7236L12.2388 21.8C12.1539 21.8642 12.0594 21.9119 11.96 21.9452C11.8606 21.9785 11.7539 21.9952 11.6472 21.9952C11.543 21.9952 11.4363 21.9785 11.3369 21.9452C11.2375 21.9119 11.1429 21.8642 11.0581 21.8L9.60584 20.7236L7.22259 18.9496L2.40518 15.404L2.37608 15.385L2.36639 15.3755C1.85967 15.0016 1.42085 14.5492 1.06203 14.0372C0.703205 13.5253 0.431665 12.9585 0.257103 12.3608C0.0825419 11.7632 0.00738352 11.1417 0.0340526 10.5202C0.0631462 9.89867 0.191643 9.2867 0.417118 8.70568L0.448636 8.62234L3.61741 0.514321C3.63357 0.474634 3.65297 0.436535 3.6756 0.400023C3.69661 0.363511 3.72166 0.32938 3.75076 0.297631C3.77823 0.264294 3.80813 0.233338 3.84046 0.204764C3.87279 0.177776 3.90673 0.152377 3.94229 0.128565C4.01745 0.0833218 4.09503 0.0499849 4.17989 0.0309352C4.26232 0.00950432 4.3496 -2.05154e-05 4.43445 0.0047419C4.52174 0.00950432 4.60659 0.0261728 4.6866 0.0571285C4.76661 0.085703 4.84419 0.128565 4.91207 0.180951C4.9444 0.207938 4.97592 0.236513 5.00663 0.266675C5.03572 0.298424 5.06158 0.332555 5.08421 0.369067C5.10846 0.403991 5.12947 0.441297 5.14725 0.480984C5.16503 0.519083 5.17957 0.55877 5.19089 0.600044L7.32684 7.02217H15.9725L18.1084 0.600044C18.1197 0.55877 18.1351 0.519083 18.1545 0.480984C18.1723 0.442885 18.1933 0.405579 18.2175 0.369067C18.2402 0.334143 18.266 0.300806 18.2951 0.269056C18.3242 0.237307 18.3557 0.207938 18.3897 0.180951C18.4576 0.128565 18.5327 0.0880843 18.6127 0.0571285C18.6952 0.028554 18.78 0.0118855 18.8649 0.00712311C18.9521 0.0023607 19.037 0.00950432 19.1219 0.0309352C19.2043 0.0523661 19.2843 0.085703 19.357 0.130946C19.3942 0.153171 19.429 0.17857 19.4613 0.207145C19.4936 0.234132 19.5235 0.264294 19.551 0.297631C19.5785 0.330968 19.6035 0.365892 19.6261 0.402404C19.6472 0.438916 19.6657 0.477015 19.6819 0.516702L22.8458 8.6271L22.8774 8.71044C23.1028 9.28908 23.2313 9.90105 23.258 10.5225Z" fill="#E24329"/>
<path d="M23.2602 10.5249C23.2868 11.144 23.2117 11.7655 23.0371 12.3632C22.8625 12.9609 22.591 13.5276 22.2322 14.0396C21.8734 14.5515 21.4345 15.004 20.9302 15.3778L20.9181 15.3873L16.0716 18.9544C16.0716 18.9544 14.0132 17.428 11.647 15.6683L18.5931 10.5059C18.9058 10.2749 19.2331 10.0629 19.5701 9.86769C19.9071 9.67005 20.2562 9.49384 20.6126 9.33668C20.9715 9.17952 21.3376 9.03903 21.7085 8.92235C22.0819 8.80329 22.4601 8.70566 22.8456 8.62708L22.8771 8.71042C23.1026 9.29143 23.2311 9.9034 23.2602 10.5249Z" fill="#FC6D26"/>
<path d="M11.6473 15.6683C14.0136 17.4233 16.0744 18.9544 16.0744 18.9544L13.6911 20.7284L12.2389 21.8047C12.154 21.869 12.0595 21.9166 11.9601 21.95C11.8607 21.9833 11.754 22 11.6473 22C11.5431 22 11.4364 21.9833 11.337 21.95C11.2376 21.9166 11.143 21.869 11.0582 21.8047L9.6059 20.7284L7.22266 18.9544C7.22266 18.9544 9.28103 17.4233 11.6473 15.6683Z" fill="#FCA326"/>
<path d="M11.6472 15.6636C9.27853 17.4233 7.22259 18.9496 7.22259 18.9496L2.40518 15.404L2.37608 15.385L2.36639 15.3754C1.85967 15.0016 1.42085 14.5491 1.06203 14.0372C0.703205 13.5252 0.431665 12.9585 0.257103 12.3608C0.0825419 11.7631 0.00738352 11.1416 0.0340526 10.5201C0.0631462 9.89864 0.191643 9.28667 0.417118 8.70566L0.448636 8.62231C0.834126 8.70089 1.21234 8.79852 1.58571 8.91758C1.95665 9.03664 2.32275 9.17476 2.68157 9.3343C3.03796 9.49146 3.38709 9.67005 3.72409 9.86531C4.06109 10.0606 4.38596 10.2749 4.70115 10.5059L11.6472 15.6636Z" fill="#FC6D26"/>
</g>
<defs>
<clipPath id="clip0_1817_5728">
<rect width="23.2941" height="22" fill="white"/>
</clipPath>
</defs>
</svg>
