<svg width="32" height="22" viewBox="0 0 32 22" fill="none" xmlns="http://www.w3.org/2000/svg">
<g clip-path="url(#clip0_1817_5722)">
<path d="M13.0502 14.5353C12.5475 17.2963 11.8848 19.3051 11.0619 20.553C10.4207 21.5176 9.7184 21.9999 8.95361 21.9999C8.74955 21.9999 8.49844 21.9378 8.19982 21.8143V21.1481C8.34539 21.1703 8.51647 21.1814 8.71305 21.1814C9.06972 21.1814 9.35734 21.0819 9.57635 20.8825C9.83846 20.6396 9.96952 20.3669 9.96952 20.0645C9.96952 19.858 9.86705 19.4338 9.66343 18.7925L8.30889 14.5335H9.52138L10.4933 17.7191C10.7119 18.4421 10.8029 18.9471 10.7664 19.2349C11.2985 17.7968 11.6697 16.23 11.8808 14.5362H13.0498M7.69759 20.0432H6.46355C6.42002 17.9336 6.29996 15.9507 6.10293 14.0921H6.09282L4.21362 20.0432H3.27336L1.40559 14.0921H1.3946C1.25607 15.8765 1.16899 17.8595 1.13249 20.0432H0.00708008C0.0796445 17.3883 0.262155 14.9003 0.552853 12.5776H2.08242L3.86311 18.0624H3.8741L5.66579 12.5776H7.12939C7.44955 15.2983 7.6391 17.7871 7.69671 20.0432" fill="#00758F"/>
<path d="M29.4805 20.0423H25.9741V12.5768H27.1541V19.123H29.4805V20.0414M20.6629 18.5479C20.3638 18.0611 20.2147 17.2804 20.2147 16.2034C20.2147 14.3235 20.7794 13.3828 21.9079 13.3828C22.4981 13.3828 22.9313 13.608 23.2079 14.0574C23.5061 14.5442 23.6556 15.3187 23.6556 16.3806C23.6556 18.2756 23.0909 19.2238 21.9624 19.2238C21.3727 19.2238 20.9391 18.9991 20.6629 18.5487M25.0541 20.2222L23.6987 19.5453C23.8192 19.445 23.934 19.3366 24.0373 19.2122C24.6135 18.527 24.9011 17.5131 24.9011 16.1705C24.9011 13.7004 23.9432 12.4648 22.028 12.4648C21.0886 12.4648 20.3563 12.7779 19.8321 13.4055C19.256 14.0912 18.9688 15.102 18.9688 16.4361C18.9688 17.7484 19.2239 18.7113 19.7332 19.3228C20.1976 19.8757 20.8999 20.1524 21.8406 20.1524C22.1916 20.1524 22.5135 20.1089 22.8059 20.0214L24.5708 21.0615L25.0519 20.2222M18.4551 17.9727C18.4551 18.606 18.2256 19.1256 17.7673 19.5324C17.3091 19.937 16.6929 20.1404 15.922 20.1404C15.2007 20.1404 14.5015 19.9064 13.8242 19.4432L14.1413 18.8019C14.724 19.0968 15.2513 19.2438 15.7245 19.2438C16.1687 19.2438 16.5161 19.1439 16.7677 18.9462C17.0184 18.7468 17.1692 18.4692 17.1692 18.1171C17.1692 17.6738 16.8636 17.295 16.3037 16.977C15.7849 16.6847 15.268 16.3889 14.753 16.0897C14.1932 15.6758 13.9122 15.2321 13.9122 14.5011C13.9122 13.8962 14.1215 13.4073 14.5397 13.0355C14.9589 12.6625 15.4998 12.4759 16.1621 12.4759C16.8469 12.4759 17.4692 12.6611 18.0299 13.0302L17.7449 13.6711C17.2655 13.465 16.7923 13.3615 16.3257 13.3615C15.9475 13.3615 15.6555 13.4539 15.4523 13.6386C15.2478 13.8221 15.1216 14.0583 15.1216 14.3461C15.1216 14.7884 15.4338 15.1722 16.0095 15.4964C16.5329 15.7837 17.5923 16.3952 17.5923 16.3952C18.1684 16.8083 18.4556 17.2484 18.4556 17.9736M30.3205 20.0423H30.5162V19.2829H30.7718V19.1274H30.0549V19.2829H30.3205V20.0423ZM31.8083 20.0423H31.9926V19.1274H31.7155L31.4899 19.751L31.2441 19.1274H30.9771V20.0423H31.1517V19.3459H31.1614L31.4187 20.0423H31.5515L31.8083 19.3459V20.0423Z" fill="#F29111"/>
<path d="M19.6734 0.00442841C19.3616 -1.27137e-05 19.0898 0.118565 18.9495 0.467194C18.709 1.05387 19.3057 1.63077 19.5111 1.92877C19.6624 2.13617 19.8586 2.3711 19.965 2.60515C20.0274 2.75837 20.0455 2.92136 20.1079 3.08346C20.2504 3.4805 20.3837 3.92239 20.571 4.29278C20.6686 4.48242 20.7755 4.68093 20.9004 4.85147C20.9721 4.9514 21.0966 4.99581 21.1234 5.1588C20.9989 5.33866 20.9892 5.60957 20.9184 5.83563C20.5974 6.85486 20.7223 8.11792 21.1766 8.86669C21.3191 9.09186 21.6577 9.58838 22.1125 9.39874C22.5135 9.23664 22.4247 8.72236 22.5399 8.27158C22.5668 8.16233 22.5487 8.09083 22.6024 8.01844V8.03709C22.7268 8.28935 22.8522 8.53228 22.9678 8.78587C23.2445 9.22731 23.7251 9.68741 24.1262 9.99385C24.3395 10.1568 24.5088 10.4362 24.7762 10.5357V10.5081H24.7586C24.705 10.4273 24.6249 10.3909 24.5537 10.3283C24.3932 10.1657 24.2155 9.96721 24.0906 9.78645C23.7168 9.28194 23.3865 8.72236 23.0932 8.14501C22.9502 7.86478 22.8258 7.55834 22.7097 7.27899C22.6565 7.17107 22.6565 7.00808 22.5672 6.95435C22.4331 7.15242 22.2374 7.32429 22.1397 7.56678C21.9704 7.95538 21.9528 8.43324 21.8899 8.92931C21.8547 8.93864 21.8723 8.92931 21.8547 8.94708C21.5698 8.87513 21.4717 8.57758 21.3644 8.32532C21.097 7.68447 21.0521 6.65546 21.2843 5.91645C21.3459 5.72726 21.6142 5.13215 21.5069 4.9514C21.4532 4.77908 21.2751 4.68049 21.177 4.54503C21.0529 4.36299 20.9457 4.16971 20.8569 3.96769C20.6431 3.46273 20.5358 2.90315 20.3045 2.3982C20.1976 2.16282 20.0098 1.91989 19.859 1.7036C19.6892 1.45979 19.5028 1.28836 19.3686 1.00013C19.3247 0.900648 19.2622 0.738102 19.3335 0.630183C19.3506 0.557793 19.3867 0.530702 19.4584 0.512493C19.5731 0.413456 19.9034 0.53914 20.0191 0.593322C20.3489 0.728332 20.6251 0.855348 20.9008 1.0441C21.0253 1.13469 21.159 1.30612 21.3195 1.35142H21.5069C21.7919 1.41449 22.1129 1.36919 22.3803 1.45046C22.8522 1.60368 23.2796 1.82929 23.6631 2.07266C24.8434 2.83475 25.8023 3.89938 26.4421 5.15791C26.5494 5.36531 26.5943 5.55495 26.6919 5.77079C26.8793 6.21401 27.111 6.66478 27.298 7.09735C27.4849 7.52148 27.6634 7.95449 27.9312 8.30622C28.0641 8.49542 28.5988 8.5949 28.8394 8.69393C29.0175 8.77476 29.2937 8.84715 29.4542 8.94619C29.7577 9.13538 30.0594 9.35211 30.3448 9.55995C30.4873 9.66832 30.9323 9.89348 30.9592 10.0742C30.2467 10.0565 29.6943 10.1284 29.2308 10.3274C29.0975 10.3811 28.8838 10.3811 28.8658 10.5525C28.9375 10.6245 28.9458 10.7417 29.0087 10.8412C29.1156 11.022 29.302 11.2649 29.4718 11.3919C29.6592 11.5363 29.8461 11.6801 30.0422 11.8063C30.3896 12.0239 30.7815 12.1496 31.1197 12.3659C31.3163 12.492 31.512 12.6545 31.7081 12.79C31.8057 12.8619 31.8678 12.9796 31.9931 13.024V12.9965C31.9302 12.9157 31.9126 12.7984 31.8506 12.7078C31.7618 12.6181 31.6725 12.5368 31.5832 12.4467C31.3222 12.0973 31.0099 11.7903 30.657 11.5363C30.3716 11.3368 29.7476 11.0659 29.6323 10.7333L29.6143 10.7151C29.81 10.6969 30.0422 10.6245 30.2296 10.5699C30.5317 10.4886 30.8083 10.5068 31.1201 10.426C31.2626 10.3896 31.4051 10.3443 31.5485 10.3003V10.2181C31.3871 10.0565 31.2718 9.8393 31.103 9.68608C30.6491 9.28949 30.1495 8.90178 29.6328 8.57624C29.3557 8.39593 28.9995 8.27913 28.7057 8.12547C28.5993 8.07129 28.4212 8.04464 28.3583 7.95404C28.1982 7.75552 28.1085 7.49439 27.9933 7.25945C27.7299 6.74582 27.4862 6.22212 27.2628 5.68951C27.1022 5.33778 27.0042 4.98648 26.8085 4.66139C25.8902 3.12743 24.8928 2.19879 23.3606 1.28747C23.0307 1.09783 22.6389 1.01656 22.2206 0.917524C21.9972 0.908197 21.7751 0.890877 21.5522 0.881995C21.4092 0.818043 21.2663 0.646615 21.1418 0.565343C20.8243 0.362383 20.1937 0.0115341 19.6743 0.00354004L19.6734 0.00442841ZM21.8715 2.23432C21.7202 2.23432 21.6137 2.25297 21.5064 2.27962V2.29738H21.5236C21.5953 2.44172 21.7202 2.54164 21.8086 2.66777C21.8802 2.81211 21.9427 2.956 22.0139 3.10034L22.0315 3.08257C22.1569 2.99242 22.2193 2.84808 22.2193 2.63135C22.1652 2.56785 22.1569 2.50523 22.112 2.44172C22.0588 2.35201 21.9427 2.30671 21.8715 2.23432Z" fill="#00758F"/>
</g>
<defs>
<clipPath id="clip0_1817_5722">
<rect width="32" height="22" fill="white"/>
</clipPath>
</defs>
</svg>
