<svg width="42" height="22" viewBox="0 0 42 22" fill="none" xmlns="http://www.w3.org/2000/svg">
<g clip-path="url(#clip0_1817_5717)">
<path d="M20.9767 21.8717C32.5619 21.8717 41.9535 16.9756 41.9535 10.9359C41.9535 4.89615 32.5619 0 20.9767 0C9.39161 0 0 4.89615 0 10.9359C0 16.9756 9.39161 21.8717 20.9767 21.8717Z" fill="#8993BE"/>
<path fill-rule="evenodd" clip-rule="evenodd" d="M5.89062 17.411L8.18954 5.75561H13.5053C15.8041 5.89955 16.9536 7.05058 16.9536 9.06525C16.9536 12.5187 14.2238 14.5332 11.7812 14.3892H9.19528L8.62055 17.411H5.89062ZM9.76985 12.231L10.4883 7.91406H12.3561C13.3618 7.91406 14.0801 8.34571 14.0801 9.20903C13.9365 11.6554 12.7871 12.087 11.494 12.231H9.76985ZM16.4195 14.3892L18.7182 2.73401H21.4482L20.8734 5.75561H23.4595C25.7584 5.89955 26.6204 7.05058 26.3331 8.48965L25.3274 14.3892H22.4539L23.4596 9.06525C23.6032 8.34571 23.6032 7.91406 22.5976 7.91406H20.4424L19.1494 14.3892H16.4195ZM25.1433 17.411L27.4421 5.75561H32.7581C35.057 5.89955 36.2064 7.05058 36.2064 9.06525C36.2064 12.5187 33.4765 14.5332 31.034 14.3892H28.4478L27.8731 17.411H25.1433ZM29.0224 12.231L29.7409 7.91406H31.6088C32.6145 7.91406 33.3328 8.34571 33.3328 9.20903C33.1892 11.6554 32.0398 12.087 30.7468 12.231H29.0226H29.0224Z" fill="#232531"/>
</g>
<defs>
<clipPath id="clip0_1817_5717">
<rect width="41.9535" height="22" fill="white"/>
</clipPath>
</defs>
</svg>
