<svg width="25" height="22" viewBox="0 0 25 22" fill="none" xmlns="http://www.w3.org/2000/svg">
<path d="M24.1282 11.0025C24.1282 9.36599 22.1265 7.81506 19.0576 6.85328C19.7658 3.65072 19.4511 1.10277 18.0642 0.287022C17.7445 0.0956739 17.3707 0.0050354 16.9625 0.0050354V1.12795C17.1888 1.12795 17.3707 1.17327 17.5232 1.25887C18.192 1.65164 18.4822 3.14717 18.256 5.07072C18.2019 5.54406 18.1134 6.04257 18.0052 6.55116C17.0412 6.30945 15.9887 6.12314 14.8822 6.00229C14.2182 5.07072 13.5297 4.22476 12.8362 3.48455C14.4395 1.9588 15.9445 1.12291 16.9674 1.12291V0C15.615 0 13.8444 0.986954 12.0543 2.69902C10.2641 0.997025 8.49356 0.020142 7.14108 0.020142V1.14305C8.15913 1.14305 9.66898 1.97391 11.2723 3.48959C10.5837 4.2298 9.89522 5.07072 9.24111 6.00229C8.12962 6.12314 7.07714 6.30945 6.1132 6.55619C6.00008 6.05264 5.91647 5.5642 5.85746 5.0959C5.6263 3.17235 5.91155 1.67681 6.5755 1.27901C6.72304 1.18837 6.91485 1.14809 7.14108 1.14809V0.0251774C6.72796 0.0251774 6.35418 0.115816 6.02959 0.307164C4.6476 1.12291 4.33776 3.66583 5.05089 6.85832C1.99183 7.82513 0 9.37102 0 11.0025C0 12.639 2.00167 14.19 5.07056 15.1517C4.36235 18.3543 4.67711 20.9023 6.06402 21.718C6.38369 21.9094 6.75747 22 7.17059 22C8.52307 22 10.2936 21.013 12.0838 19.301C13.874 21.003 15.6445 21.9799 16.9969 21.9799C17.4101 21.9799 17.7838 21.8892 18.1084 21.6979C19.4904 20.8821 19.8003 18.3392 19.0871 15.1467C22.1364 14.1849 24.1282 12.634 24.1282 11.0025ZM17.7248 7.64385C17.5429 8.29343 17.3166 8.96315 17.0609 9.63287C16.8592 9.23003 16.6478 8.82719 16.4166 8.42435C16.1904 8.02151 15.9494 7.62875 15.7084 7.24605C16.4068 7.3518 17.0806 7.48272 17.7248 7.64385ZM15.4723 13.0066C15.0887 13.6864 14.6953 14.331 14.2871 14.9302C13.5543 14.9956 12.8116 15.0309 12.0641 15.0309C11.3215 15.0309 10.5788 14.9957 9.85095 14.9352C9.44275 14.336 9.04438 13.6965 8.66077 13.0217C8.287 12.3621 7.94765 11.6924 7.63781 11.0176C7.94273 10.3429 8.287 9.66811 8.65585 9.00847C9.03947 8.32868 9.43291 7.68414 9.84111 7.08492C10.5739 7.01945 11.3165 6.98421 12.0641 6.98421C12.8067 6.98421 13.5494 7.01945 14.2772 7.07988C14.6854 7.6791 15.0838 8.31861 15.4674 8.99336C15.8412 9.65301 16.1805 10.3227 16.4904 10.9975C16.1805 11.6722 15.8412 12.347 15.4723 13.0066ZM17.0609 12.352C17.3265 13.0268 17.5527 13.7015 17.7396 14.3561C17.0953 14.5173 16.4166 14.6532 15.7133 14.759C15.9543 14.3713 16.1953 13.9734 16.4215 13.5656C16.6478 13.1627 16.8592 12.7549 17.0609 12.352ZM12.0739 17.7249C11.6166 17.2415 11.1592 16.7027 10.7067 16.1135C11.1493 16.1337 11.6018 16.1488 12.0592 16.1488C12.5215 16.1488 12.9789 16.1387 13.4264 16.1135C12.9838 16.7027 12.5264 17.2415 12.0739 17.7249ZM8.41487 14.759C7.7165 14.6532 7.04272 14.5223 6.39845 14.3612C6.58042 13.7116 6.80665 13.0419 7.06239 12.3722C7.26403 12.775 7.47551 13.1778 7.70666 13.5807C7.93781 13.9835 8.17388 14.3763 8.41487 14.759ZM12.0493 4.28016C12.5067 4.76356 12.9641 5.30236 13.4166 5.89151C12.9739 5.87137 12.5215 5.85626 12.0641 5.85626C11.6018 5.85626 11.1444 5.86633 10.6969 5.89151C11.1395 5.30236 11.5969 4.76356 12.0493 4.28016ZM8.40995 7.24605C8.16896 7.63378 7.92797 8.03159 7.70174 8.43946C7.47551 8.8423 7.26403 9.24514 7.06239 9.64797C6.79681 8.97322 6.57058 8.29847 6.38369 7.64385C7.02796 7.48775 7.70666 7.3518 8.40995 7.24605ZM3.95907 13.5505C2.21806 12.7901 1.09182 11.7931 1.09182 11.0025C1.09182 10.2119 2.21806 9.20989 3.95907 8.45457C4.38203 8.26825 4.84433 8.10208 5.32138 7.94598C5.60171 8.93294 5.97057 9.96017 6.42796 11.0126C5.97549 12.06 5.61155 13.0822 5.33614 14.0641C4.84925 13.908 4.38694 13.7368 3.95907 13.5505ZM6.60501 20.7462C5.93615 20.3534 5.64598 18.8579 5.87221 16.9343C5.92631 16.461 6.01484 15.9625 6.12303 15.4539C7.08698 15.6956 8.13945 15.8819 9.24603 16.0027C9.90997 16.9343 10.5985 17.7803 11.292 18.5205C9.68865 20.0462 8.18372 20.8821 7.16075 20.8821C6.93944 20.8771 6.75255 20.8318 6.60501 20.7462ZM18.2707 16.9091C18.5019 18.8327 18.2166 20.3282 17.5527 20.726C17.4051 20.8167 17.2133 20.8569 16.9871 20.8569C15.9691 20.8569 14.4592 20.0261 12.8559 18.5104C13.5444 17.7702 14.233 16.9293 14.8871 15.9977C15.9986 15.8769 17.051 15.6905 18.015 15.4438C18.1281 15.9524 18.2166 16.4408 18.2707 16.9091ZM20.1642 13.5505C19.7412 13.7368 19.2789 13.903 18.8019 14.0591C18.5216 13.0721 18.1527 12.0449 17.6953 10.9924C18.1478 9.94507 18.5117 8.92286 18.7871 7.94095C19.274 8.09705 19.7363 8.26825 20.1691 8.45457C21.9101 9.21492 23.0364 10.2119 23.0364 11.0025C23.0315 11.7931 21.9052 12.7951 20.1642 13.5505Z" fill="#61DAFB"/>
<path d="M12.0591 13.3036C13.3004 13.3036 14.3067 12.2733 14.3067 11.0024C14.3067 9.73146 13.3004 8.70117 12.0591 8.70117C10.8178 8.70117 9.81152 9.73146 9.81152 11.0024C9.81152 12.2733 10.8178 13.3036 12.0591 13.3036Z" fill="#61DAFB"/>
</svg>
