<svg width="22" height="22" viewBox="0 0 22 22" fill="none" xmlns="http://www.w3.org/2000/svg">
<g clip-path="url(#clip0_1817_5704)">
<path d="M0.628726 7.86445C0.628726 7.86445 0.107938 7.48217 0.732883 6.97172L2.18892 5.64589C2.18892 5.64589 2.60555 5.19953 3.04605 5.58844L16.4824 15.9476V20.9151C16.4824 20.9151 16.4759 21.6951 15.4929 21.6089L0.628726 7.86445Z" fill="#2489CA"/>
<path d="M4.09186 11.0663L0.628624 14.2726C0.628624 14.2726 0.272753 14.5422 0.628624 15.0239L2.23656 16.5133C2.23656 16.5133 2.61847 16.9309 3.18265 16.4558L6.8542 13.6207L4.09186 11.0663Z" fill="#1070B3"/>
<path d="M10.1721 11.0928L16.5235 6.15408L16.4823 1.21314C16.4823 1.21314 16.2111 0.134799 15.3062 0.696069L6.85425 8.52954L10.1721 11.0928Z" fill="#0877B9"/>
<path d="M15.4928 21.6155C15.8617 22 16.3087 21.874 16.3087 21.874L21.2583 19.3903C21.8919 18.9505 21.803 18.4047 21.803 18.4047V3.57308C21.803 2.92121 21.1477 2.69582 21.1477 2.69582L16.8577 0.58995C15.9202 -4.55678e-05 15.3062 0.696017 15.3062 0.696017C15.3062 0.696017 16.096 0.11707 16.4823 1.21309V20.8244C16.4823 20.9592 16.4541 21.0918 16.3976 21.2111C16.2848 21.4431 16.0396 21.6597 15.4515 21.5691L15.4928 21.6155Z" fill="#3C99D4"/>
</g>
<defs>
<clipPath id="clip0_1817_5704">
<rect width="22" height="22" fill="white"/>
</clipPath>
</defs>
</svg>
