<svg width="70" height="70" viewBox="0 0 70 70" fill="none" xmlns="http://www.w3.org/2000/svg">
<g clip-path="url(#clip0_494_560)">
<path fill-rule="evenodd" clip-rule="evenodd" d="M50.9437 66.3711C51.2288 66.6561 51.604 66.8335 52.0052 66.873C52.4065 66.9125 52.809 66.8117 53.1443 66.5877C53.4795 66.3637 53.7267 66.0304 53.8438 65.6445C53.9608 65.2587 53.9405 64.8442 53.7862 64.4717C53.632 64.0992 53.3534 63.7917 52.9978 63.6016C52.6423 63.4114 52.2318 63.3505 51.8363 63.429C51.4409 63.5076 51.0849 63.7208 50.829 64.0324C50.5731 64.344 50.4332 64.7347 50.433 65.1379C50.4323 65.367 50.477 65.594 50.5647 65.8057C50.6524 66.0174 50.7812 66.2096 50.9437 66.3711ZM19.5646 65.1379C19.5644 64.7348 19.4244 64.3442 19.1686 64.0328C18.9128 63.7213 18.5569 63.5081 18.1615 63.4296C17.7662 63.3511 17.3558 63.412 17.0004 63.6021C16.6449 63.7922 16.3664 64.0996 16.2122 64.472C16.0579 64.8445 16.0376 65.2588 16.1546 65.6445C16.2717 66.0303 16.5188 66.3635 16.8539 66.5874C17.1891 66.8114 17.5915 66.9122 17.9926 66.8728C18.3938 66.8333 18.7688 66.656 19.0539 66.3711C19.2165 66.2096 19.3453 66.0174 19.433 65.8057C19.5206 65.594 19.5654 65.367 19.5646 65.1379ZM34.9976 21.1583C34.3108 21.1583 33.6394 20.9547 33.0683 20.5731C32.4973 20.1915 32.0522 19.6491 31.7893 19.0146C31.5265 18.3801 31.4577 17.6818 31.5917 17.0082C31.7257 16.3346 32.0564 15.7158 32.5421 15.2301C33.0278 14.7445 33.6465 14.4137 34.3202 14.2797C34.9938 14.1457 35.692 14.2145 36.3266 14.4774C36.9611 14.7402 37.5035 15.1853 37.885 15.7564C38.2666 16.3274 38.4703 16.9988 38.4703 17.6857C38.4691 18.6063 38.1028 19.4889 37.4519 20.1399C36.8009 20.7909 35.9183 21.1571 34.9976 21.1583Z" fill="#B4D2FF"/>
<path d="M54.9814 59.5562H38.6063C38.0325 59.5562 37.5674 60.0214 37.5674 60.5951V67.5925C37.5674 68.1663 38.0325 68.6315 38.6063 68.6315H54.9814C55.5552 68.6315 56.0203 68.1663 56.0203 67.5925V60.5951C56.0203 60.0214 55.5552 59.5562 54.9814 59.5562Z" fill="#B4D2FF"/>
<path fill-rule="evenodd" clip-rule="evenodd" d="M32.4297 67.5938C32.4293 67.8691 32.3197 68.133 32.1248 68.3275C31.93 68.5221 31.666 68.6313 31.3906 68.6313H15.0161C14.7408 68.6313 14.4767 68.5221 14.2819 68.3275C14.0871 68.133 13.9774 67.8691 13.9771 67.5938V60.5951C13.9771 60.4587 14.0039 60.3236 14.0561 60.1975C14.1084 60.0714 14.1849 59.9569 14.2814 59.8604C14.3779 59.7639 14.4924 59.6874 14.6185 59.6352C14.7445 59.583 14.8797 59.5561 15.0161 59.5561H31.3906C31.5271 59.5561 31.6622 59.583 31.7883 59.6352C31.9143 59.6874 32.0289 59.7639 32.1254 59.8604C32.2219 59.9569 32.2984 60.0714 32.3506 60.1975C32.4028 60.3236 32.4297 60.4587 32.4297 60.5951V67.5938ZM34.9976 31.5338C32.7552 31.536 30.5643 30.8619 28.711 29.5996L28.6047 29.5276L28.5924 29.3998C28.5719 29.1902 28.5614 28.9799 28.561 28.7693C28.561 27.0623 29.2391 25.4251 30.4462 24.218C31.6533 23.0109 33.2905 22.3328 34.9976 22.3328C36.7046 22.3328 38.3418 23.0109 39.5489 24.218C40.756 25.4251 41.4341 27.0623 41.4341 28.7693C41.4341 28.9799 41.4233 29.1902 41.4031 29.3998L41.3908 29.5276L41.2846 29.5998C39.4309 30.8617 37.24 31.5357 34.9976 31.5338Z" fill="#B4D2FF"/>
<path fill-rule="evenodd" clip-rule="evenodd" d="M20.1743 10.999C18.4097 13.7881 17.4779 17.0228 17.4882 20.3232C17.4908 24.3566 18.8828 28.2659 21.4299 31.3932C21.5627 31.5622 21.6239 31.7765 21.6004 31.9901C21.5768 32.2037 21.4704 32.3995 21.3039 32.5354C21.1375 32.6714 20.9244 32.7366 20.7104 32.717C20.4964 32.6975 20.2986 32.5947 20.1595 32.4309C17.373 29.0107 15.8502 24.7348 15.8476 20.3232C15.8358 16.7484 16.8346 13.2431 18.7291 10.2115L15.6012 11.1519C15.4971 11.1864 15.3872 11.1997 15.2778 11.1911C15.1685 11.1824 15.062 11.1519 14.9647 11.1014C14.8674 11.0508 14.7812 10.9813 14.7112 10.8969C14.6412 10.8124 14.5888 10.7148 14.5572 10.6098C14.5256 10.5048 14.5154 10.3945 14.5271 10.2855C14.5389 10.1764 14.5724 10.0709 14.6256 9.975C14.6789 9.87913 14.7508 9.79491 14.8372 9.72732C14.9235 9.65973 15.0226 9.61015 15.1284 9.5815L20.5588 7.94717C20.6753 7.9122 20.7982 7.90361 20.9185 7.92202C21.0388 7.94043 21.1535 7.98538 21.2543 8.05361C21.3551 8.12184 21.4394 8.21165 21.5012 8.31651C21.563 8.42137 21.6007 8.53866 21.6115 8.65988L22.1185 14.3087C22.1281 14.416 22.1166 14.5241 22.0844 14.6269C22.0523 14.7297 22.0002 14.8251 21.9311 14.9078C21.8621 14.9904 21.7774 15.0587 21.6819 15.1086C21.5865 15.1585 21.4821 15.1891 21.3748 15.1986C21.3502 15.2007 21.3255 15.2018 21.3007 15.2019C21.096 15.202 20.8986 15.1254 20.7476 14.9872C20.5966 14.8489 20.5029 14.6591 20.4849 14.4551L20.1743 10.999ZM49.8231 29.639C51.587 26.8528 52.5182 23.6208 52.5072 20.3232C52.5048 16.2892 51.1123 12.3792 48.5642 9.25187C48.4266 9.08326 48.3616 8.8669 48.3836 8.65037C48.4055 8.43384 48.5125 8.23489 48.6811 8.09728C48.8497 7.95968 49.0661 7.89469 49.2826 7.91661C49.4992 7.93853 49.6981 8.04557 49.8357 8.21418C52.6222 11.6349 54.145 15.9112 54.1477 20.3232C54.1605 23.9 53.1603 27.4073 51.2629 30.4393L54.3993 29.5022C54.6077 29.4401 54.8324 29.4633 55.0238 29.5667C55.2152 29.6702 55.3576 29.8455 55.4198 30.054C55.482 30.2625 55.4588 30.4871 55.3553 30.6785C55.2518 30.8699 55.0766 31.0123 54.8681 31.0745L49.4346 32.6978C49.3179 32.7325 49.195 32.7409 49.0746 32.7224C48.9543 32.7039 48.8396 32.6589 48.7387 32.5907C48.6379 32.5224 48.5537 32.4324 48.492 32.3275C48.4303 32.2225 48.3928 32.1051 48.3821 31.9838L47.8861 26.335C47.867 26.1182 47.9349 25.9027 48.0747 25.7359C48.2145 25.5691 48.4148 25.4647 48.6316 25.4457C48.8484 25.4266 49.0639 25.4944 49.2307 25.6342C49.3975 25.774 49.5019 25.9744 49.521 26.1912L49.8229 29.6388L49.8231 29.639ZM22.8882 5.485C26.309 2.69822 30.5855 1.17503 34.9978 1.1718C38.4775 1.16335 41.8927 2.11148 44.8701 3.9126L43.8049 1.10986C43.7277 0.906407 43.7344 0.680603 43.8237 0.482126C43.9129 0.283649 44.0774 0.128756 44.2808 0.051522C44.4843 -0.025712 44.7101 -0.0189603 44.9086 0.0702916C45.107 0.159544 45.2619 0.323985 45.3392 0.52744L47.3545 5.82803C47.3975 5.94191 47.4146 6.06389 47.4047 6.18518C47.3948 6.30647 47.3581 6.42406 47.2973 6.52947C47.2365 6.63488 47.153 6.72549 47.053 6.79477C46.9529 6.86405 46.8387 6.91027 46.7187 6.93012L41.12 7.83506C41.0762 7.84295 41.0318 7.8468 40.9873 7.84654C40.7816 7.84558 40.5839 7.76741 40.4331 7.62753C40.2824 7.48766 40.1897 7.29626 40.1734 7.09127C40.1571 6.88628 40.2184 6.68264 40.3451 6.5207C40.4718 6.35875 40.6548 6.25031 40.8577 6.21685L44.5137 5.62486C41.6831 3.78122 38.376 2.80377 34.998 2.81242C30.9644 2.81467 27.0549 4.2072 23.9281 6.75539C23.8446 6.82362 23.7486 6.87474 23.6454 6.90585C23.5423 6.93696 23.434 6.94745 23.3267 6.93671C23.2195 6.92597 23.1155 6.89421 23.0205 6.84326C22.9255 6.7923 22.8416 6.72314 22.7733 6.63973C22.7051 6.55631 22.654 6.46027 22.6229 6.3571C22.5918 6.25393 22.5813 6.14563 22.592 6.03841C22.6028 5.93118 22.6345 5.82712 22.6855 5.73217C22.7364 5.63721 22.8056 5.55322 22.889 5.485H22.8882ZM34.9978 39.4733C31.4399 39.4854 27.9505 38.4957 24.9287 36.6175L25.8974 39.6867C25.9556 39.892 25.9315 40.1119 25.8302 40.2997C25.7289 40.4875 25.5585 40.6285 25.355 40.6927C25.1515 40.7569 24.931 40.7393 24.7402 40.6436C24.5495 40.5479 24.4036 40.3816 24.3334 40.1801L22.6257 34.7718C22.5895 34.6558 22.5795 34.5331 22.5964 34.4128C22.6132 34.2924 22.6566 34.1773 22.7232 34.0757C22.7899 33.974 22.8783 33.8884 22.982 33.825C23.0856 33.7616 23.2021 33.722 23.3229 33.7089L28.9641 33.1253C29.0713 33.1142 29.1796 33.1242 29.2829 33.155C29.3862 33.1857 29.4824 33.2365 29.566 33.3044C29.6497 33.3723 29.7191 33.456 29.7704 33.5508C29.8217 33.6456 29.8539 33.7495 29.865 33.8567C29.8761 33.9638 29.866 34.0722 29.8353 34.1754C29.8046 34.2787 29.7538 34.3749 29.6859 34.4586C29.618 34.5423 29.5343 34.6117 29.4395 34.663C29.3447 34.7143 29.2408 34.7464 29.1336 34.7576L25.6336 35.12C28.4312 36.9017 31.6812 37.8431 34.9979 37.8325C39.0315 37.8302 42.941 36.4376 46.0679 33.8895C46.1508 33.8176 46.2473 33.7631 46.3517 33.7291C46.456 33.6952 46.5662 33.6825 46.6755 33.6919C46.7849 33.7012 46.8912 33.7325 46.9883 33.7837C47.0854 33.8349 47.1712 33.9051 47.2406 33.9901C47.3101 34.0751 47.3618 34.1732 47.3927 34.2785C47.4235 34.3838 47.4329 34.4943 47.4203 34.6033C47.4077 34.7123 47.3734 34.8177 47.3193 34.9133C47.2653 35.0088 47.1926 35.0925 47.1056 35.1594C43.686 37.9471 39.4098 39.4707 34.9979 39.4733H34.9978ZM18.0881 65.4049C18.0175 65.4751 17.922 65.5145 17.8224 65.5145C17.7228 65.5145 17.6273 65.4751 17.5567 65.4049C17.486 65.3344 17.4462 65.2387 17.446 65.1389C17.4458 65.0391 17.4853 64.9433 17.5558 64.8725C17.6263 64.8018 17.7219 64.762 17.8218 64.7619C17.9216 64.7617 18.0174 64.8012 18.0881 64.8717C18.1583 64.9426 18.1977 65.0384 18.1977 65.1383C18.1977 65.2381 18.1583 65.3339 18.0881 65.4049ZM17.8218 63.1217C17.3551 63.1216 16.9029 63.2833 16.5421 63.5794C16.1814 63.8754 15.9344 64.2873 15.8433 64.745C15.7522 65.2027 15.8227 65.6778 16.0426 66.0893C16.2626 66.5009 16.6184 66.8235 17.0495 67.0021C17.4807 67.1807 17.9604 67.2043 18.407 67.0689C18.8535 66.9334 19.2393 66.6473 19.4986 66.2593C19.7579 65.8713 19.8746 65.4054 19.8288 64.941C19.7831 64.4766 19.5777 64.0424 19.2478 63.7124C19.0611 63.5244 18.8389 63.3753 18.5941 63.2739C18.3493 63.1725 18.0868 63.1207 17.8218 63.1217ZM2.97372 41.1423C2.92303 41.5669 2.97149 41.9974 3.11527 42.4C3.25905 42.8027 3.49425 43.1665 3.80238 43.4629L15.4535 55.1127C15.679 55.3344 15.8576 55.5992 15.9786 55.8914C16.0996 56.1836 16.1605 56.4971 16.1578 56.8133V58.1888H30.2931C30.3312 55.3965 29.4419 52.6705 27.7644 50.4379C26.0869 48.2053 23.7162 46.5923 21.0236 45.8516C20.8861 45.8134 20.7607 45.7403 20.6598 45.6394L13.0525 38.032C12.7835 37.7626 12.4405 37.5791 12.0671 37.5048C11.6937 37.4305 11.3066 37.4687 10.9549 37.6145C10.6032 37.7604 10.3028 38.0074 10.0916 38.3242C9.88039 38.641 9.768 39.0134 9.76865 39.3941C9.76757 39.6468 9.81672 39.8971 9.91326 40.1306C10.0098 40.3641 10.1518 40.5761 10.331 40.7542L16.154 46.5784C16.2302 46.6546 16.2907 46.745 16.3319 46.8445C16.3732 46.944 16.3945 47.0507 16.3946 47.1584C16.3946 47.2662 16.3735 47.3729 16.3323 47.4724C16.2911 47.572 16.2307 47.6625 16.1546 47.7387C16.0784 47.8149 15.988 47.8754 15.8885 47.9167C15.789 47.958 15.6823 47.9792 15.5746 47.9793C15.4668 47.9793 15.3601 47.9582 15.2606 47.917C15.161 47.8758 15.0705 47.8154 14.9943 47.7393L9.17009 41.9151C8.50379 41.245 8.12978 40.3384 8.12978 39.3934C8.12978 38.4485 8.50379 37.5419 9.17009 36.8718C9.34011 36.7024 9.52656 36.5503 9.72667 36.4178L9.37257 24.9563C9.35474 24.3299 9.09373 23.7349 8.64483 23.2976C8.19594 22.8602 7.59442 22.6148 6.96769 22.6133C6.94581 22.6133 6.92517 22.6145 6.90316 22.6145C6.26602 22.6323 5.66189 22.9018 5.22302 23.364C4.78416 23.8263 4.54632 24.4436 4.56157 25.0808C4.56291 25.1146 4.5614 25.1485 4.55706 25.1821L2.97372 41.1423ZM32.1565 67.5937V60.5951C32.1565 60.392 32.0758 60.1973 31.9322 60.0537C31.7886 59.9101 31.5939 59.8295 31.3909 59.8295H15.0163C14.8133 59.8295 14.6185 59.9101 14.4749 60.0537C14.3314 60.1973 14.2507 60.392 14.2507 60.5951V67.5937C14.2511 67.7965 14.3319 67.9909 14.4754 68.1342C14.619 68.2775 14.8135 68.358 15.0163 68.358H31.3909C31.5937 68.358 31.7882 68.2775 31.9317 68.1342C32.0753 67.9909 32.1561 67.7965 32.1565 67.5937ZM2.64286 44.6224L14.2927 56.2722C14.3661 56.3414 14.4241 56.4255 14.4628 56.5187C14.5015 56.612 14.52 56.7124 14.5172 56.8133V58.2422C13.9779 58.3567 13.4944 58.6529 13.1473 59.0812C12.8001 59.5094 12.6105 60.0438 12.6101 60.5951V67.5937C12.6108 68.2316 12.8646 68.843 13.3157 69.2939C13.7669 69.7448 14.3785 69.9982 15.0163 69.9986H31.3909C32.0286 69.9979 32.64 69.7443 33.091 69.2935C33.5421 68.8427 33.796 68.2314 33.7971 67.5937V60.5951C33.7962 60.0516 33.6115 59.5244 33.273 59.0993C32.9345 58.6741 32.4621 58.376 31.9327 58.2534C31.9837 55.1285 31.007 52.0733 29.1527 49.5574C27.2984 47.0416 24.6692 45.2044 21.6692 44.3283L14.2121 36.873C13.8819 36.5411 13.4889 36.278 13.0561 36.0992C12.6233 35.9204 12.1593 35.8294 11.691 35.8315C11.5764 35.8315 11.4629 35.8369 11.3506 35.8476L11.012 24.9085C10.9741 23.847 10.5205 22.8429 9.7489 22.1129C8.97731 21.3829 7.94965 20.9855 6.88767 21.0065C5.82569 21.0275 4.81453 21.4652 4.0724 22.2251C3.33026 22.985 2.91665 24.0063 2.92081 25.0685L1.34144 40.9811C1.2659 41.6472 1.34391 42.3216 1.56951 42.9528C1.7951 43.584 2.16228 44.1551 2.64286 44.6224ZM52.4414 65.4049C52.3798 65.4661 52.2988 65.5041 52.2123 65.5123C52.1259 65.5206 52.0392 65.4986 51.9671 65.4502C51.8949 65.4017 51.8418 65.3298 51.8168 65.2466C51.7917 65.1634 51.7962 65.0741 51.8296 64.9939C51.8629 64.9137 51.923 64.8475 51.9997 64.8066C52.0764 64.7657 52.1648 64.7526 52.25 64.7696C52.3352 64.7865 52.4119 64.8325 52.4671 64.8997C52.5222 64.9668 52.5524 65.051 52.5525 65.1378C52.5528 65.1875 52.5432 65.2368 52.5241 65.2827C52.5051 65.3285 52.4769 65.3701 52.4414 65.4049ZM52.1763 63.1217C51.7097 63.1216 51.2574 63.2833 50.8967 63.5794C50.5359 63.8754 50.2889 64.2873 50.1979 64.745C50.1068 65.2027 50.1772 65.6778 50.3972 66.0893C50.6171 66.5009 50.973 66.8235 51.4041 67.0021C51.8352 67.1807 52.3149 67.2043 52.7615 67.0689C53.2081 66.9334 53.5939 66.6473 53.8531 66.2593C54.1124 65.8713 54.2291 65.4054 54.1834 64.941C54.1377 64.4766 53.9323 64.0424 53.6023 63.7124C53.4157 63.5243 53.1935 63.3752 52.9487 63.2738C52.7039 63.1724 52.4413 63.1207 52.1763 63.1217ZM55.7473 60.5951C55.7473 60.392 55.6666 60.1973 55.5231 60.0537C55.3795 59.9101 55.1847 59.8295 54.9817 59.8295H38.6067C38.4037 59.8295 38.2089 59.9101 38.0654 60.0537C37.9218 60.1973 37.8411 60.392 37.8411 60.5951V67.5937C37.8415 67.7965 37.9223 67.9909 38.0658 68.1342C38.2094 68.2775 38.4039 68.358 38.6067 68.358H54.9818C55.1846 68.358 55.3792 68.2775 55.5227 68.1342C55.6663 67.9909 55.7471 67.7965 55.7474 67.5937V60.5951H55.7473ZM48.9744 45.8516C46.2818 46.5923 43.9111 48.2053 42.2336 50.4379C40.5561 52.6705 39.6668 55.3965 39.7049 58.1888H53.8401V56.8133C53.8374 56.4972 53.8983 56.1837 54.0191 55.8915C54.14 55.5994 54.3184 55.3345 54.5436 55.1127L66.1934 43.4629C66.5023 43.1669 66.7381 42.8032 66.8825 42.4005C67.0269 41.9978 67.0758 41.5671 67.0254 41.1423L65.4394 25.1821C65.4362 25.1484 65.4362 25.1145 65.4394 25.0808C65.4539 24.4428 65.2151 23.825 64.7751 23.3628C64.3351 22.9005 63.7299 22.6315 63.092 22.6145C63.0726 22.6145 63.0533 22.6133 63.0339 22.6133C62.4071 22.6143 61.8054 22.8592 61.3559 23.296C60.9065 23.7328 60.6446 24.3273 60.6257 24.9537L60.2717 36.4178C60.472 36.5505 60.6585 36.703 60.8283 36.873C61.4934 37.5435 61.8666 38.4497 61.8666 39.3941C61.8666 40.3384 61.4934 41.2446 60.8283 41.9151L55.0041 47.7393C54.8502 47.8931 54.6414 47.9794 54.4239 47.9792C54.2063 47.9791 53.9977 47.8926 53.8439 47.7386C53.6901 47.5847 53.6038 47.3759 53.604 47.1584C53.6041 46.9408 53.6906 46.7322 53.8446 46.5784L59.6676 40.7542C60.0273 40.3925 60.2292 39.9032 60.2292 39.3931C60.2292 38.883 60.0273 38.3936 59.6676 38.032C59.3062 37.6717 58.8168 37.4694 58.3065 37.4694C57.7962 37.4694 57.3067 37.6717 56.9454 38.032L49.3382 45.6394C49.2372 45.7403 49.1119 45.8134 48.9744 45.8516ZM55.7048 56.2722L67.3546 44.6224C67.8356 44.1554 68.2031 43.5843 68.4289 42.9531C68.6547 42.3219 68.7328 41.6473 68.6572 40.9811L67.0772 25.0685C67.0886 24.0056 66.6819 22.9808 65.9449 22.2149C65.2079 21.449 64.1995 21.0033 63.1369 20.9739C63.1047 20.9739 63.066 20.9726 63.0337 20.9726C61.9803 20.9739 60.9688 21.3853 60.2134 22.1195C59.458 22.8537 59.0181 23.8531 58.9869 24.906L58.6482 35.8476C58.5359 35.8367 58.4224 35.8313 58.3076 35.8315C57.8393 35.8295 57.3752 35.9205 56.9424 36.0993C56.5095 36.2781 56.1165 36.5411 55.7861 36.873L48.3295 44.3283C45.3295 45.2045 42.7003 47.0417 40.8461 49.5575C38.9919 52.0733 38.0152 55.1285 38.0663 58.2534C37.5368 58.3761 37.0644 58.6742 36.7258 59.0993C36.3872 59.5244 36.2023 60.0516 36.2012 60.5951V67.5937C36.2025 68.2314 36.4564 68.8425 36.9075 69.2933C37.3585 69.744 37.9698 69.9977 38.6074 69.9986H54.9818C55.6196 69.9982 56.2313 69.7448 56.6824 69.2939C57.1335 68.843 57.3873 68.2316 57.3881 67.5937V60.5951C57.3876 60.0438 57.1979 59.5094 56.8508 59.0811C56.5036 58.6528 56.02 58.3567 55.4807 58.2422V56.8133C55.4779 56.7125 55.4963 56.6121 55.5349 56.5189C55.5735 56.4256 55.6313 56.3416 55.7045 56.2722H55.7048ZM34.9978 9.38545C37.1565 9.38427 39.2673 10.0223 41.064 11.2191C42.8606 12.4159 44.2627 14.1179 45.0934 16.1104C45.924 18.103 46.1462 20.2969 45.7317 22.4155C45.3173 24.5341 44.2848 26.4825 42.7645 28.0152C42.6242 26.597 42.0992 25.244 41.2463 24.1023C40.3934 22.9606 39.2448 22.0736 37.9246 21.5369C38.7321 20.924 39.3267 20.0731 39.6248 19.1043C39.9228 18.1354 39.9092 17.0974 39.5859 16.1367C39.2626 15.176 38.6458 14.341 37.8227 13.7495C36.9995 13.158 36.0114 12.8398 34.9977 12.8398C33.984 12.8398 32.9959 13.158 32.1727 13.7495C31.3496 14.341 30.7328 15.176 30.4095 16.1367C30.0862 17.0974 30.0726 18.1354 30.3706 19.1043C30.6687 20.0731 31.2633 20.924 32.0708 21.5369C30.7504 22.0733 29.6016 22.9603 28.7487 24.102C27.8957 25.2438 27.3709 26.5969 27.2309 28.0152C25.7107 26.4825 24.6783 24.534 24.2638 22.4154C23.8494 20.2968 24.0716 18.103 24.9023 16.1104C25.733 14.1179 27.135 12.416 28.9316 11.2192C30.7283 10.0224 32.839 9.38431 34.9978 9.38545ZM34.9978 20.8849C35.6304 20.8846 36.2488 20.6967 36.7747 20.345C37.3007 19.9932 37.7105 19.4935 37.9524 18.9089C38.1943 18.3243 38.2574 17.6811 38.1338 17.0606C38.0102 16.4401 37.7054 15.8702 37.2579 15.4229C36.8104 14.9757 36.2404 14.6711 35.6198 14.5478C34.9993 14.4245 34.3561 14.4879 33.7716 14.7301C33.1871 14.9723 32.6876 15.3823 32.3361 15.9084C31.9846 16.4345 31.797 17.053 31.797 17.6856C31.798 18.5341 32.1356 19.3475 32.7356 19.9473C33.3357 20.5471 34.1493 20.8843 34.9978 20.8849ZM28.8646 29.374C28.8448 29.1732 28.8347 28.9715 28.8342 28.7697C28.8304 27.9579 28.987 27.1533 29.295 26.4022C29.603 25.6511 30.0564 24.9682 30.6291 24.3929C31.2018 23.8175 31.8825 23.3609 32.6321 23.0493C33.3818 22.7378 34.1856 22.5774 34.9974 22.5774C35.8092 22.5774 36.6131 22.7378 37.3627 23.0493C38.1124 23.3609 38.7931 23.8175 39.3658 24.3929C39.9385 24.9682 40.3918 25.6511 40.6999 26.4022C41.0079 27.1533 41.1645 27.9579 41.1606 28.7697C41.1606 28.9722 41.1502 29.1728 41.131 29.374C39.3218 30.6031 37.185 31.2603 34.9978 31.2603C32.8105 31.2603 30.6738 30.6031 28.8646 29.374ZM34.9978 32.9013C37.4855 32.9013 39.9173 32.1637 41.9858 30.7815C44.0543 29.3994 45.6664 27.435 46.6184 25.1367C47.5704 22.8383 47.8195 20.3093 47.3342 17.8694C46.8489 15.4294 45.6509 13.1882 43.8918 11.4291C42.1328 9.67006 39.8916 8.47211 37.4516 7.98678C35.0117 7.50145 32.4827 7.75054 30.1843 8.70255C27.886 9.65456 25.9215 11.2667 24.5394 13.3352C23.1573 15.4037 22.4196 17.8355 22.4196 20.3232C22.4234 23.658 23.7497 26.8552 26.1078 29.2133C28.4658 31.5714 31.663 32.8978 34.9978 32.9016V32.9013Z" fill="#3F444B" fill-opacity="0.8"/>
</g>
<defs>
<clipPath id="clip0_494_560">
<rect width="70" height="70" fill="white"/>
</clipPath>
</defs>
</svg>
