<svg width="70" height="70" viewBox="0 0 70 70" fill="none" xmlns="http://www.w3.org/2000/svg">
<g clip-path="url(#clip0_494_533)">
<path d="M0.821594 60.876C0.623248 60.876 0.433026 60.7973 0.292775 60.657C0.152523 60.5168 0.0737305 60.3265 0.0737305 60.1282V7.92733C0.0737305 3.88602 3.35835 0.598267 7.39576 0.598267H35.028C35.2263 0.598267 35.4165 0.677059 35.5568 0.817311C35.697 0.957562 35.7758 1.14778 35.7758 1.34613C35.7758 1.54448 35.697 1.7347 35.5568 1.87495C35.4165 2.0152 35.2263 2.09399 35.028 2.09399H7.39576C4.18309 2.09399 1.56946 4.71077 1.56946 7.92733V60.1282C1.56946 60.2264 1.55011 60.3236 1.51253 60.4144C1.47495 60.5051 1.41986 60.5876 1.35041 60.657C1.28097 60.7264 1.19852 60.7815 1.10779 60.8191C1.01705 60.8567 0.919804 60.876 0.821594 60.876Z" fill="#3F444B" fill-opacity="0.8"/>
<path d="M49.1005 69.2522H8.89002C7.23963 69.2522 5.90186 67.9129 5.90186 66.2607V9.42309C5.90186 7.77091 7.23978 6.43164 8.89002 6.43164H37.1199L52.0888 20.9759V66.2607C52.0888 67.9129 50.7509 69.2522 49.1005 69.2522Z" fill="white"/>
<path d="M8.59416 66.2607V9.42309C8.59416 7.77091 9.93209 6.43164 11.5823 6.43164H8.89002C7.23963 6.43164 5.90186 7.77091 5.90186 9.42309V66.2607C5.90186 67.9129 7.23978 69.2522 8.89002 69.2522H11.5823C9.93209 69.2522 8.59416 67.9129 8.59416 66.2607Z" fill="#E0E0E0"/>
<path d="M51.1922 32.955C51.1922 33.4919 51.627 33.9271 52.1633 33.9271C52.6997 33.9271 53.1345 33.4919 53.1345 32.955C53.1345 32.4182 52.6997 31.983 52.1633 31.983C51.627 31.983 51.1922 32.4181 51.1922 32.955ZM21.9162 62.5704C21.7178 62.5704 21.5276 62.4916 21.3873 62.3514C21.2471 62.2111 21.1683 62.0209 21.1683 61.8226V50.8462C21.1683 50.6478 21.2471 50.4576 21.3873 50.3174C21.5276 50.1771 21.7178 50.0983 21.9162 50.0983C22.1145 50.0983 22.3047 50.1771 22.445 50.3174C22.5852 50.4576 22.664 50.6478 22.664 50.8462V61.8226C22.664 62.0209 22.5852 62.2111 22.445 62.3514C22.3047 62.4916 22.1145 62.5704 21.9162 62.5704ZM26.6972 62.5704C26.4989 62.5704 26.3087 62.4916 26.1684 62.3514C26.0282 62.2111 25.9494 62.0209 25.9494 61.8226V48.361C25.9494 48.1627 26.0282 47.9725 26.1684 47.8322C26.3087 47.692 26.4989 47.6132 26.6972 47.6132C26.8956 47.6132 27.0858 47.692 27.2261 47.8322C27.3663 47.9725 27.4451 48.1627 27.4451 48.361V61.8226C27.4451 62.0209 27.3663 62.2111 27.2261 62.3514C27.0858 62.4916 26.8956 62.5704 26.6972 62.5704ZM17.1349 62.5704C16.9366 62.5704 16.7463 62.4916 16.6061 62.3514C16.4658 62.2111 16.387 62.0209 16.387 61.8226V54.988C16.387 54.7896 16.4658 54.5994 16.6061 54.4592C16.7463 54.3189 16.9366 54.2401 17.1349 54.2401C17.3333 54.2401 17.5235 54.3189 17.6637 54.4592C17.804 54.5994 17.8828 54.7896 17.8828 54.988V61.8226C17.8828 62.0209 17.804 62.2111 17.6637 62.3514C17.5235 62.4916 17.3333 62.5704 17.1349 62.5704ZM12.3538 62.5704C12.1555 62.5704 11.9653 62.4916 11.825 62.3514C11.6847 62.2111 11.606 62.0209 11.606 61.8226V53.3312C11.606 53.1328 11.6847 52.9426 11.825 52.8024C11.9653 52.6621 12.1555 52.5833 12.3538 52.5833C12.5522 52.5833 12.7424 52.6621 12.8826 52.8024C13.0229 52.9426 13.1017 53.1328 13.1017 53.3312V61.8226C13.1017 62.0209 13.0229 62.2111 12.8826 62.3514C12.7424 62.4916 12.5522 62.5704 12.3538 62.5704Z" fill="#3F444B" fill-opacity="0.8"/>
<path d="M21.2529 25.3349V32.4308H28.3412C28.341 28.5118 25.1675 25.3349 21.2529 25.3349Z" fill="white"/>
<path d="M26.5022 32.4308H28.3412C28.3412 28.5118 25.1677 25.3349 21.2529 25.3349V27.1745C23.8462 27.7919 25.8861 29.8345 26.5022 32.4308Z" fill="#E0E0E0"/>
<path d="M28.3408 33.1787H21.2526C21.0542 33.1787 20.864 33.0999 20.7238 32.9596C20.5835 32.8194 20.5047 32.6291 20.5047 32.4308V25.3349C20.5047 25.1366 20.5835 24.9464 20.7238 24.8061C20.864 24.6659 21.0542 24.5871 21.2526 24.5871C25.5735 24.5871 29.0887 28.1058 29.0887 32.4308C29.0887 32.6291 29.0099 32.8194 28.8697 32.9596C28.7294 33.0999 28.5392 33.1787 28.3408 33.1787ZM22.0006 31.6829H27.5493C27.2075 28.7794 24.9004 26.4696 22.0006 26.1268V31.6829ZM47.28 33.7046H32.8542C32.6559 33.7046 32.4656 33.6258 32.3254 33.4855C32.1851 33.3453 32.1063 33.155 32.1063 32.9567C32.1063 32.7584 32.1851 32.5681 32.3254 32.4279C32.4656 32.2876 32.6559 32.2088 32.8542 32.2088H47.28C47.4784 32.2088 47.6686 32.2876 47.8088 32.4279C47.9491 32.5681 48.0279 32.7584 48.0279 32.9567C48.0279 33.155 47.9491 33.3453 47.8088 33.4855C47.6686 33.6258 47.4784 33.7046 47.28 33.7046ZM39.8095 39.6875H32.8542C32.6559 39.6875 32.4656 39.6087 32.3254 39.4684C32.1851 39.3282 32.1063 39.138 32.1063 38.9396C32.1063 38.7413 32.1851 38.551 32.3254 38.4108C32.4656 38.2705 32.6559 38.1917 32.8542 38.1917H39.8095C40.0078 38.1917 40.198 38.2705 40.3383 38.4108C40.4785 38.551 40.5573 38.7413 40.5573 38.9396C40.5573 39.138 40.4785 39.3282 40.3383 39.4684C40.198 39.6087 40.0078 39.6875 39.8095 39.6875ZM47.28 27.7217H45.988C45.7897 27.7217 45.5995 27.6429 45.4592 27.5026C45.319 27.3624 45.2402 27.1721 45.2402 26.9738C45.2402 26.7754 45.319 26.5852 45.4592 26.445C45.5995 26.3047 45.7897 26.2259 45.988 26.2259H47.28C47.4784 26.2259 47.6686 26.3047 47.8088 26.445C47.9491 26.5852 48.0279 26.7754 48.0279 26.9738C48.0279 27.1721 47.9491 27.3624 47.8088 27.5026C47.6686 27.6429 47.4784 27.7217 47.28 27.7217ZM42.5516 27.7217H32.8542C32.6559 27.7217 32.4656 27.6429 32.3254 27.5026C32.1851 27.3624 32.1063 27.1721 32.1063 26.9738C32.1063 26.7754 32.1851 26.5852 32.3254 26.445C32.4656 26.3047 32.6559 26.2259 32.8542 26.2259H42.5516C42.7499 26.2259 42.9402 26.3047 43.0804 26.445C43.2207 26.5852 43.2995 26.7754 43.2995 26.9738C43.2995 27.1721 43.2207 27.3624 43.0804 27.5026C42.9402 27.6429 42.7499 27.7217 42.5516 27.7217ZM36.373 55.8397H32.8542C32.6559 55.8397 32.4656 55.7609 32.3254 55.6206C32.1851 55.4804 32.1063 55.2902 32.1063 55.0918C32.1063 54.8935 32.1851 54.7032 32.3254 54.563C32.4656 54.4227 32.6559 54.3439 32.8542 54.3439H36.373C36.5714 54.3439 36.7616 54.4227 36.9019 54.563C37.0421 54.7032 37.1209 54.8935 37.1209 55.0918C37.1209 55.2902 37.0421 55.4804 36.9019 55.6206C36.7616 55.7609 36.5714 55.8397 36.373 55.8397ZM36.373 49.8568H32.8542C32.6559 49.8568 32.4656 49.778 32.3254 49.6377C32.1851 49.4975 32.1063 49.3073 32.1063 49.1089C32.1063 48.9106 32.1851 48.7203 32.3254 48.5801C32.4656 48.4398 32.6559 48.361 32.8542 48.361H36.373C36.5714 48.361 36.7616 48.4398 36.9019 48.5801C37.0421 48.7203 37.1209 48.9106 37.1209 49.1089C37.1209 49.3073 37.0421 49.4975 36.9019 49.6377C36.7616 49.778 36.5714 49.8568 36.373 49.8568ZM41.0575 61.8226H32.8542C32.6559 61.8226 32.4656 61.7438 32.3254 61.6035C32.1851 61.4633 32.1063 61.2731 32.1063 61.0747C32.1063 60.8764 32.1851 60.6861 32.3254 60.5459C32.4656 60.4056 32.6559 60.3269 32.8542 60.3269H41.0575C41.2559 60.3269 41.4461 60.4056 41.5863 60.5459C41.7266 60.6861 41.8054 60.8764 41.8054 61.0747C41.8054 61.2731 41.7266 61.4633 41.5863 61.6035C41.4461 61.7438 41.2559 61.8226 41.0575 61.8226ZM20.4222 14.6091H10.7104C10.5121 14.6091 10.3218 14.5303 10.1816 14.39C10.0413 14.2498 9.96255 14.0596 9.96255 13.8612C9.96255 13.6629 10.0413 13.4726 10.1816 13.3324C10.3218 13.1921 10.5121 13.1133 10.7104 13.1133H20.4222C20.6205 13.1133 20.8107 13.1921 20.951 13.3324C21.0912 13.4726 21.17 13.6629 21.17 13.8612C21.17 14.0596 21.0912 14.2498 20.951 14.39C20.8107 14.5303 20.6205 14.6091 20.4222 14.6091ZM27.8926 20.592H26.6973C26.499 20.592 26.3088 20.5132 26.1685 20.3729C26.0283 20.2327 25.9495 20.0425 25.9495 19.8441C25.9495 19.6458 26.0283 19.4555 26.1685 19.3153C26.3088 19.175 26.499 19.0962 26.6973 19.0962H27.8926C28.0909 19.0962 28.2811 19.175 28.4214 19.3153C28.5616 19.4555 28.6404 19.6458 28.6404 19.8441C28.6404 20.0425 28.5616 20.2327 28.4214 20.3729C28.2811 20.5132 28.0909 20.592 27.8926 20.592ZM23.3124 20.592H10.7103C10.5119 20.592 10.3217 20.5132 10.1814 20.3729C10.0412 20.2327 9.9624 20.0425 9.9624 19.8441C9.9624 19.6458 10.0412 19.4555 10.1814 19.3153C10.3217 19.175 10.5119 19.0962 10.7103 19.0962H23.3124C23.5107 19.0962 23.7009 19.175 23.8412 19.3153C23.9814 19.4555 24.0602 19.6458 24.0602 19.8441C24.0602 20.0425 23.9814 20.2327 23.8412 20.3729C23.7009 20.5132 23.5107 20.592 23.3124 20.592Z" fill="#3F444B" fill-opacity="0.8"/>
<path d="M49.5858 58.6882C55.1145 58.6882 59.5964 54.2015 59.5964 48.6669C59.5964 43.1322 55.1145 38.6455 49.5858 38.6455C44.0571 38.6455 39.5752 43.1322 39.5752 48.6669C39.5752 54.2015 44.0571 58.6882 49.5858 58.6882Z" fill="#B4D2FF"/>
<path d="M58.2549 43.6618C56.9137 41.3386 54.7835 39.757 52.3992 39.0573C51.6437 38.8356 50.868 39.3427 50.7594 40.1224L50.7453 40.2234C50.6557 40.8656 51.059 41.463 51.6805 41.6482C53.464 42.1796 54.9745 43.3644 55.9234 45.0079C56.7157 46.3804 57.0377 47.9356 56.8638 49.4809C56.7921 50.1181 57.194 50.7125 57.8135 50.8782L57.9157 50.9056C58.6767 51.1091 59.4457 50.5912 59.5353 49.8086C59.7712 47.7481 59.3718 45.5963 58.2549 43.6618Z" fill="white"/>
<path d="M42.2675 48.6669C42.2675 43.5895 46.0402 39.397 50.9319 38.7382C50.4858 38.6773 50.0361 38.6463 49.5858 38.6455C44.0571 38.6455 39.5752 43.1322 39.5752 48.6669C39.5752 54.2015 44.0571 58.6882 49.5858 58.6882C50.0426 58.6882 50.4913 58.6547 50.9319 58.5955C46.0402 57.9369 42.2675 53.7443 42.2675 48.6669Z" fill="#3067FF"/>
<path d="M69.252 7.92736C64.7204 17.4777 51.0731 17.4777 46.5415 7.92736C51.0731 -1.623 64.7204 -1.623 69.252 7.92736Z" fill="white"/>
<path d="M57.8969 15.1068C61.4301 15.1068 64.2943 11.8925 64.2943 7.92735C64.2943 3.96223 61.4301 0.747864 57.8969 0.747864C54.3637 0.747864 51.4995 3.96223 51.4995 7.92735C51.4995 11.8925 54.3637 15.1068 57.8969 15.1068Z" fill="#B4D2FF"/>
<path d="M62.5334 9.99382C61.9683 9.80506 61.3598 10.0525 61.0605 10.5676C60.7935 11.0271 60.4591 11.427 60.075 11.7458C59.6441 12.1035 59.527 12.7177 59.7678 13.2234L59.795 13.2805C60.1383 14.001 61.071 14.2206 61.686 13.7122C62.2953 13.2086 62.8219 12.5867 63.2394 11.8765C63.6561 11.1677 63.3132 10.2542 62.5334 9.99382Z" fill="white"/>
<path d="M53.8927 7.92735C53.8927 4.42137 56.1324 1.50425 59.0935 0.87515C58.7002 0.790973 58.2991 0.748311 57.8969 0.747864C54.3637 0.747864 51.4995 3.96218 51.4995 7.92735C51.4995 11.8925 54.3637 15.1068 57.8969 15.1068C58.306 15.1068 58.7056 15.062 59.0935 14.9796C56.1325 14.3505 53.8927 11.4333 53.8927 7.92735Z" fill="#3067FF"/>
<path d="M57.9718 5.08545C56.4047 5.08545 55.1299 6.36026 55.1299 7.92733C55.1299 9.4944 56.4047 10.7692 57.9718 10.7692C59.5388 10.7692 60.8136 9.4944 60.8136 7.92733C60.8136 6.36026 59.5387 5.08545 57.9718 5.08545Z" fill="#3F444B" fill-opacity="0.8"/>
<path d="M0.971175 65.5204C1.50754 65.5204 1.94235 65.0852 1.94235 64.5484C1.94235 64.0115 1.50754 63.5763 0.971175 63.5763C0.43481 63.5763 0 64.0115 0 64.5484C0 65.0852 0.43481 65.5204 0.971175 65.5204Z" fill="#3067FF"/>
<path d="M52.1636 33.9271C52.6999 33.9271 53.1347 33.4919 53.1347 32.955C53.1347 32.4182 52.6999 31.983 52.1636 31.983C51.6272 31.983 51.1924 32.4182 51.1924 32.955C51.1924 33.4919 51.6272 33.9271 52.1636 33.9271Z" fill="#3F444B" fill-opacity="0.8"/>
<path d="M24.8656 35.1326H18.5109V28.7845C18.5109 28.3716 18.1757 28.0367 17.7623 28.0367C13.4327 28.0367 9.91016 31.5554 9.91016 35.8804C9.91016 40.2055 13.4326 43.724 17.7623 43.724C22.092 43.724 25.6144 40.2053 25.6144 35.8804C25.6142 35.682 25.5353 35.4917 25.3949 35.3515C25.2544 35.2112 25.0641 35.1325 24.8656 35.1326Z" fill="#3F444B" fill-opacity="0.8"/>
<path d="M52.0893 29.0799C52.1875 29.0799 52.2847 29.0605 52.3754 29.0229C52.4661 28.9852 52.5484 28.9301 52.6178 28.8607C52.6872 28.7912 52.7422 28.7088 52.7797 28.618C52.8172 28.5273 52.8365 28.4301 52.8365 28.3319V20.9641C52.8365 20.864 52.8164 20.7649 52.7774 20.6727C52.7385 20.5805 52.6815 20.4971 52.6097 20.4273L37.6406 5.87972C37.5013 5.74426 37.3146 5.66849 37.1203 5.66852H8.89006C6.83045 5.66852 5.15479 7.34642 5.15479 9.40873V66.2599C5.15479 68.3223 6.83045 70.0002 8.89006 70.0002H49.1012C51.1609 70.0002 52.8365 68.3223 52.8365 66.2599V63.9411C52.8365 63.843 52.8172 63.7457 52.7797 63.655C52.7422 63.5643 52.6872 63.4818 52.6178 63.4124C52.5484 63.3429 52.4661 63.2878 52.3754 63.2502C52.2847 63.2126 52.1875 63.1932 52.0893 63.1931C51.9912 63.1932 51.894 63.2126 51.8033 63.2502C51.7126 63.2878 51.6302 63.3429 51.5609 63.4124C51.4915 63.4818 51.4365 63.5643 51.399 63.655C51.3614 63.7457 51.3422 63.843 51.3422 63.9411V66.2599C51.3422 67.4974 50.3368 68.5041 49.101 68.5041H8.89006C7.65429 68.5041 6.64887 67.4974 6.64887 66.2599V9.40858C6.64887 8.17117 7.65429 7.16439 8.89006 7.16439H36.1694V19.4516C36.1694 20.6891 37.1749 21.6958 38.4106 21.6958H51.3424V28.3319C51.3423 28.4301 51.3616 28.5273 51.3991 28.618C51.4366 28.7087 51.4915 28.7912 51.5609 28.8606C51.6303 28.9301 51.7126 28.9852 51.8033 29.0229C51.894 29.0605 51.9912 29.0799 52.0893 29.0799Z" fill="#3F444B" fill-opacity="0.8"/>
<path d="M68.731 61.6958L65.2044 58.1646C63.6951 56.6535 61.3411 56.4936 59.6515 57.6823L57.6975 55.7257C59.3437 53.833 60.344 51.363 60.344 48.6618C60.344 42.7222 55.5182 37.8901 49.5863 37.8901C43.6544 37.8901 38.8286 42.7223 38.8286 48.6618C38.8286 54.6015 43.6544 59.4336 49.5863 59.4336C52.2839 59.4336 54.7508 58.4321 56.6411 56.7836L58.5949 58.7401C57.4076 60.4319 57.5675 62.7891 59.0767 64.3003L62.6032 67.8315C64.2657 69.4961 67.0681 69.4964 68.731 67.8315C70.4205 66.14 70.4205 63.3874 68.731 61.6958ZM49.5863 57.9376C44.4783 57.9376 40.3227 53.7765 40.3227 48.6618C40.3227 43.5472 44.4783 39.3861 49.5863 39.3861C54.6944 39.3861 58.85 43.5472 58.85 48.6618C58.85 53.7766 54.6944 57.9376 49.5863 57.9376Z" fill="#3F444B" fill-opacity="0.8"/>
<path d="M69.9277 7.59156C67.7064 2.90889 63.0967 0 57.8974 0C52.6981 0 48.0886 2.90889 45.8672 7.59156C45.8196 7.69188 45.7949 7.80152 45.7949 7.91254C45.7949 8.02357 45.8196 8.13321 45.8672 8.23353C48.0885 12.9162 52.6983 15.8251 57.8974 15.8251C63.0966 15.8251 67.7063 12.9162 69.9277 8.23353C69.9753 8.13321 70 8.02357 70 7.91254C70 7.80152 69.9753 7.69188 69.9277 7.59156ZM63.5479 7.91254C63.5479 11.0823 61.274 14.3289 57.8974 14.3289C54.5199 14.3289 52.247 11.0811 52.247 7.91254C52.247 4.7428 54.5208 1.49618 57.8974 1.49618C61.2749 1.49603 63.5479 4.74385 63.5479 7.91254ZM47.3749 7.91254C48.5203 5.67 50.2965 3.91312 52.4361 2.80882C50.2016 5.74718 50.2016 10.076 52.4343 13.0154C50.2956 11.9111 48.5201 10.1543 47.3749 7.91254ZM63.3606 13.0154C65.5933 10.076 65.5933 5.74718 63.3588 2.80882C65.4984 3.91312 67.2746 5.67 68.42 7.91254C67.2749 10.1543 65.4995 11.9111 63.3606 13.0154Z" fill="#3F444B" fill-opacity="0.8"/>
</g>
<defs>
<clipPath id="clip0_494_533">
<rect width="70" height="70" fill="white"/>
</clipPath>
</defs>
</svg>
