<svg width="70" height="70" viewBox="0 0 70 70" fill="none" xmlns="http://www.w3.org/2000/svg">
<g clip-path="url(#clip0_494_515)">
<path fill-rule="evenodd" clip-rule="evenodd" d="M19.8617 47.6364H35.5863C36.9005 47.6364 37.9702 48.7061 37.9702 50.005V51.0441C37.9702 52.343 36.9005 53.4127 35.5863 53.4127H19.8617C18.5475 53.4127 17.4931 52.343 17.4931 51.0441V50.005C17.4778 48.7061 18.5475 47.6364 19.8617 47.6364Z" fill="#C8EAF7"/>
<path fill-rule="evenodd" clip-rule="evenodd" d="M37.955 50.6315V51.0594C37.955 52.3583 36.8853 53.428 35.5711 53.428H19.8618C18.5476 53.428 17.4932 52.3583 17.4932 51.0594V50.6315H37.955Z" fill="#B4D2FF"/>
<path fill-rule="evenodd" clip-rule="evenodd" d="M22.8721 58.2263H32.5605C34.2873 58.2263 35.7084 56.6982 35.7084 54.8185V53.4127H19.7394V54.8185C19.7241 56.6982 21.1453 58.2263 22.8721 58.2263Z" fill="#C8EAF7"/>
<path fill-rule="evenodd" clip-rule="evenodd" d="M22.8721 58.2263H32.5605C33.9664 58.2263 35.1584 57.2177 35.5557 55.8424H19.877C20.2896 57.2177 21.4815 58.2263 22.8721 58.2263ZM32.6369 58.2263L31.8729 61.0686C31.1088 63.8957 24.4155 64.1555 23.5751 61.0686L22.811 58.2263H32.5758H32.6369Z" fill="#B4D2FF"/>
<path fill-rule="evenodd" clip-rule="evenodd" d="M27.7164 11.1596C37.0381 11.1596 44.6024 18.7239 44.6024 28.0456C44.6024 33.012 41.1182 37.52 38.1995 42.9908C25.6076 41.5237 15.7205 30.3683 15.2468 16.6456C18.349 13.2684 22.7806 11.1596 27.7164 11.1596Z" fill="#ECF8FD"/>
<path fill-rule="evenodd" clip-rule="evenodd" d="M27.7165 17.5471C33.554 17.5471 38.3065 22.2844 38.3065 28.1371C38.3065 33.9746 33.5693 38.7271 27.7165 38.7271C21.8637 38.7271 17.1265 33.9899 17.1265 28.1371C17.1265 22.2844 21.8637 17.5471 27.7165 17.5471Z" fill="#ECF8FD"/>
<path fill-rule="evenodd" clip-rule="evenodd" d="M34.318 24.6073C35.3113 24.6073 36.1212 25.4172 36.1212 26.4258C36.1212 27.4191 35.3113 28.229 34.318 28.229C33.3094 28.229 32.4995 27.4191 32.4995 26.4258C32.4995 25.4172 33.3094 24.6073 34.318 24.6073Z" fill="white"/>
<path fill-rule="evenodd" clip-rule="evenodd" d="M58.5083 17.8376C64.4833 17.8376 69.3886 22.7277 69.3886 28.718V31.0713C69.3886 37.0616 64.4986 41.9517 58.5083 41.9517C52.5333 41.9517 47.6279 37.0616 47.6279 31.0713V28.718C47.6279 22.7277 52.518 17.8376 58.5083 17.8376Z" fill="#B4D2FF"/>
<path fill-rule="evenodd" clip-rule="evenodd" d="M58.5083 17.8376C61.0603 17.8376 63.4136 18.724 65.2779 20.2215C65.7333 21.4332 65.9662 22.717 65.9656 24.0113V26.3647C65.9656 32.3397 61.0756 37.245 55.0853 37.245C52.5333 37.245 50.1799 36.3587 48.3156 34.8611C47.8603 33.6495 47.6273 32.3657 47.6279 31.0713V28.718C47.6279 22.7277 52.518 17.8376 58.5083 17.8376Z" fill="#ECF8FD"/>
<path fill-rule="evenodd" clip-rule="evenodd" d="M62.8942 39.094C58.0653 37.4131 52.7321 40.0109 51.0511 44.8398L47.2766 55.7661H31.4451C29.428 55.7661 27.8081 57.4776 27.854 59.4794C27.8845 61.4966 29.5502 63.0706 31.5674 63.0706H48.0101L48.163 68.526H67.2953L68.64 50.9218C69.0373 45.8331 67.7384 40.7597 62.8942 39.094Z" fill="#B4D2FF"/>
<path fill-rule="evenodd" clip-rule="evenodd" d="M6.18489 43.1591L7.86584 46.7197L11.7626 47.2087L8.8897 49.8982L9.63848 53.7644L6.18489 51.8695L2.74657 53.7644L3.48008 49.8982L0.607178 47.2087L4.51922 46.7197L6.18489 43.1591ZM59.2725 3.18298L60.9381 6.74355L64.8349 7.23255L61.9773 9.93736L62.7108 13.7883L59.2725 11.8934L55.8189 13.7883L56.5677 9.93736L53.6948 7.23255L57.5915 6.74355L59.2725 3.18298Z" fill="#ECF8FD"/>
<path d="M59.8226 2.93853L61.3507 6.19346L64.9266 6.63662C65.4614 6.69775 65.6448 7.35485 65.2322 7.7216L62.6344 10.1513L63.3067 13.6813C63.4137 14.1856 62.8636 14.583 62.4204 14.3384L59.2725 12.6117L56.1245 14.3384C55.666 14.583 55.1312 14.2009 55.2382 13.6813L55.9105 10.1513L53.2821 7.69104C52.9001 7.33957 53.1141 6.69775 53.6336 6.63662L57.1942 6.19346L58.7223 2.93853C58.9363 2.4648 59.6086 2.4648 59.8226 2.93853ZM60.388 7.00338L59.2725 4.61948L58.1722 6.95753C58.0958 7.17147 57.9124 7.32429 57.6679 7.35485L55.0548 7.69104L56.9497 9.47896C57.1025 9.6165 57.1942 9.83044 57.1483 10.0597L56.6593 12.6422L58.9668 11.3739C59.1502 11.2669 59.3641 11.2669 59.5628 11.3739L61.8703 12.6422L61.3813 10.0597C61.3354 9.861 61.3966 9.64706 61.5647 9.49425L63.4748 7.69104L60.8617 7.35485C60.6631 7.32429 60.4797 7.20204 60.388 7.00338ZM6.735 42.9147L8.26314 46.1696L11.839 46.6128C12.3738 46.6892 12.5572 47.331 12.1599 47.6977L9.56206 50.1275L10.2497 53.6575C10.3414 54.1618 9.80657 54.5591 9.34812 54.3146L6.18487 52.5725L3.03691 54.3146C2.59374 54.5591 2.04361 54.1618 2.15058 53.6575L2.82297 50.1275L0.194565 47.6672C-0.18747 47.3157 0.0264697 46.6739 0.546037 46.6128L4.12188 46.1696L5.65002 42.9147C5.84868 42.4409 6.52106 42.4409 6.735 42.9147ZM7.3157 46.9795L6.20015 44.5956L5.09989 46.9337C5.02349 47.1476 4.84011 47.3004 4.59561 47.331L1.98249 47.6672L3.87738 49.4398C4.0302 49.5774 4.12188 49.7913 4.07604 50.0205L3.57175 52.6031L5.87925 51.3347C6.06262 51.2277 6.27656 51.2277 6.47522 51.3347L8.78271 52.6031L8.29371 50.0205C8.26314 49.8219 8.32427 49.6079 8.47708 49.4551L10.4025 47.6519L7.78942 47.3157C7.57548 47.3004 7.40739 47.1782 7.3157 46.9795ZM47.9489 62.4596C50.7149 62.047 52.7015 60.855 54.306 58.7462C55.9717 56.5457 57.24 53.3213 58.5237 48.8744C58.7529 48.1103 59.9143 48.4465 59.7003 49.2106C58.3708 53.795 57.0414 57.1417 55.284 59.4797C53.5725 61.7414 51.4789 63.0556 48.6213 63.5904L48.7589 67.915H66.7298L68.0287 50.8763C68.3802 46.3377 67.3869 41.2796 62.6955 39.6597C60.4338 38.8804 58.0652 39.0943 56.0481 40.057C54.0004 41.0503 52.3805 42.823 51.6318 45.0235L47.8572 55.9497C47.7656 56.1942 47.5363 56.3623 47.2766 56.3623H31.445C29.7794 56.3623 28.4499 57.7682 28.4499 59.4033C28.4499 61.0995 29.8558 62.4596 31.552 62.4596H47.9489ZM55.5285 38.9721C57.8054 37.8565 60.5255 37.6273 63.0928 38.5136C63.6735 38.7123 64.2084 38.9568 64.6973 39.2471C67.2341 37.3217 68.7775 34.3112 68.7775 31.0716V28.7182C68.7775 23.0641 64.1625 18.4491 58.5084 18.4491C52.8695 18.4491 48.2393 23.0641 48.2393 28.7182V31.0716C48.2393 34.9072 50.3787 38.3608 53.6947 40.1335C54.2602 39.675 54.8714 39.293 55.5285 38.9721ZM65.7365 39.9806C68.8692 42.5326 69.5568 46.9642 69.2512 50.9832L67.9064 68.5569C67.8912 68.8931 67.6314 69.1528 67.2952 69.1528H48.1629C47.8267 69.1528 47.5669 68.8931 47.5516 68.5569L47.4141 63.6974H31.5673C31.0783 63.6974 30.6045 63.621 30.1461 63.4529C30.1461 63.4529 28.1901 64.2781 25.8826 63.6974C24.5073 63.3459 23.3459 62.536 22.9791 61.2371L22.322 58.8073C20.4577 58.5017 19.1282 56.7596 19.1282 54.8342V53.9478C17.8293 53.6116 16.8819 52.435 16.8819 51.0597V50.0205C16.8819 48.8438 17.5695 47.8047 18.6087 47.3157C17.4931 44.5345 16.0261 42.0131 14.6508 39.6444C12.328 35.656 10.2344 32.0343 10.2344 28.0611C10.2192 18.388 18.0432 10.5487 27.7164 10.5487C37.3742 10.5487 45.2136 18.388 45.2136 28.0459C45.2136 32.019 43.12 35.6407 40.7972 39.6292C39.4219 42.0131 37.9549 44.5192 36.8394 47.3004C37.8632 47.7894 38.5662 48.8286 38.5662 50.0052V51.0444C38.5662 52.4197 37.6187 53.6116 36.3198 53.9326L36.3045 55.1398H46.8487L50.4856 44.6262C50.9747 43.2203 51.754 41.9825 52.732 40.9892C49.2326 38.9415 47.0168 35.1823 47.0168 31.0716V28.7182C47.0168 22.3917 52.1819 17.2266 58.5084 17.2266C64.8349 17.2266 70 22.3917 70 28.7182V31.0716C69.9847 34.571 68.3954 37.8107 65.7365 39.9806ZM28.6638 62.5818C27.7775 61.8025 27.2274 60.6411 27.2274 59.4186C27.2274 59.2199 27.2426 59.0213 27.2732 58.8379H23.5904L24.2322 61.1454C24.8587 62.5665 27.1968 62.8263 28.6638 62.5818ZM27.64 57.6154C28.3276 56.1331 29.8099 55.1551 31.445 55.1551H35.0667L35.082 54.0395H20.3354C20.3354 55.0939 20.2896 55.9344 21.0995 56.8207C21.558 57.3097 22.1845 57.6154 22.8722 57.6154H27.64ZM24.5837 30.4298C24.5073 29.6351 25.7298 29.5129 25.7909 30.3228C25.8979 31.5453 27.9456 32.1566 29.107 31.2091C29.4279 30.9493 29.6265 30.5979 29.6265 30.2158C29.6265 27.8014 24.5684 29.8338 24.5684 26.0746C24.5684 24.684 25.7451 23.6754 27.0898 23.4462V22.621C27.0898 22.2695 27.3649 22.0097 27.7316 22.0097C28.0831 22.0097 28.3429 22.2848 28.3429 22.6362L28.3276 23.4309C29.6724 23.6601 30.8643 24.6687 30.8643 26.0593C30.8643 26.8692 29.6418 26.8692 29.6418 26.0593C29.6418 24.7756 27.533 24.0727 26.3105 25.066C25.9896 25.3258 25.7909 25.6772 25.7909 26.0593C25.7909 28.4737 30.8491 26.4413 30.8491 30.2005C30.8491 31.5912 29.6724 32.5997 28.3276 32.8289L28.3123 33.6541C28.3123 34.4641 27.0898 34.4641 27.0898 33.6541V32.8289C25.8215 32.615 24.7059 31.7134 24.5837 30.4298ZM27.7164 16.9363C33.9053 16.9363 38.9024 21.9486 38.9024 28.1223C38.9024 34.3112 33.8901 39.3235 27.7164 39.3235C21.5274 39.3235 16.5151 34.3112 16.5151 28.1223C16.5151 21.9486 21.5274 16.9363 27.7164 16.9363ZM34.7611 21.0775C30.8643 17.1808 24.5531 17.1808 20.6564 21.0775C16.7596 24.9743 16.7596 31.2855 20.6564 35.1823C24.5531 39.079 30.8643 39.079 34.7611 35.1823C38.6578 31.2855 38.6578 24.9743 34.7611 21.0775ZM27.1051 1.47151C27.1051 0.661596 28.3276 0.661596 28.3276 1.47151V5.9184C28.3276 6.72831 27.1051 6.72831 27.1051 5.9184V1.47151ZM2.02833 27.7708C1.21842 27.7708 1.21842 26.5483 2.02833 26.5483H6.47522C7.28513 26.5483 7.28513 27.7708 6.47522 27.7708H2.02833ZM5.16102 14.8427C4.47336 14.4454 5.06933 13.391 5.77228 13.7883L9.62319 16.0041C10.3109 16.4014 9.71488 17.4559 9.01193 17.0585L5.16102 14.8427ZM14.3451 5.21545C13.9478 4.52779 15.0022 3.91653 15.3996 4.6042L17.6306 8.45511C18.028 9.14277 16.9735 9.75403 16.5762 9.06637L14.3451 5.21545ZM49.6605 13.7883C50.3481 13.391 50.9594 14.4454 50.2717 14.8427L46.4208 17.0738C45.7331 17.4711 45.1219 16.4167 45.8095 16.0194L49.6605 13.7883ZM40.0332 4.6042C40.4305 3.90125 41.4849 4.51251 41.0876 5.21545L38.8565 9.06637C38.4592 9.76931 37.4048 9.15806 37.8021 8.45511L40.0332 4.6042ZM35.6474 47.0254C36.8088 44.0913 38.3217 41.4782 39.7428 39.0179C41.9739 35.1823 43.9911 31.6981 43.9911 28.0459C43.9911 19.0604 36.7018 11.7712 27.7164 11.7712C18.7309 11.7712 11.4417 19.0604 11.4417 28.0459C11.4417 31.6981 13.4588 35.1823 15.6899 39.0179C17.1111 41.4782 18.6239 44.0913 19.7853 47.0254H35.5863H35.6474ZM35.571 48.2479H19.8617C18.899 48.2479 18.1044 49.0425 18.1044 50.0052C18.1044 50.9221 17.9821 51.6556 18.6239 52.2974C18.9448 52.6184 19.388 52.817 19.877 52.817H35.6016C36.5643 52.817 37.3742 52.0224 37.3742 51.0597C37.3742 50.1428 37.4965 49.4093 36.8546 48.7674C36.5032 48.4465 36.06 48.2479 35.571 48.2479Z" fill="#3F444B"/>
</g>
<defs>
<clipPath id="clip0_494_515">
<rect width="70" height="70" fill="white"/>
</clipPath>
</defs>
</svg>
