<svg width="70" height="70" viewBox="0 0 70 70" fill="none" xmlns="http://www.w3.org/2000/svg">
<path d="M31.8316 65.7993C28.6581 68.4819 24.097 69.2076 20.1834 67.514C16.3196 69.2218 11.723 68.5244 8.4997 65.7993C4.70713 62.5902 3.24123 57.289 3.84607 52.5003C4.38679 48.231 6.45043 44.3671 9.04754 41.4143C10.4778 39.7847 12.1428 38.2762 12.5697 36.5401C12.8686 35.3377 12.4986 34.1635 11.7799 33.2598C11.2035 32.5341 10.4207 31.9577 9.5456 31.4952C9.22541 31.3244 9.13996 30.8975 9.36773 30.6201C10.5346 29.2112 12.3349 28.4214 14.185 28.4853C15.7504 28.5422 17.2731 29.2609 18.3547 30.3995C19.1587 28.6207 20.4324 27.048 22.012 25.9025C22.4318 25.6036 23.0011 25.9807 22.9086 26.486C22.7236 27.4251 22.7663 28.4214 22.9797 29.3606C23.1292 30.0152 23.3497 30.6414 23.6272 31.2533C24.417 30.3639 25.4915 29.7377 26.6584 29.5243C28.0389 29.2824 29.5331 29.7448 30.6859 30.5916C31.0274 30.8478 30.999 31.3672 30.6218 31.5807C29.8106 32.029 29.0848 32.5768 28.5511 33.26C27.8253 34.1637 27.4625 35.3377 27.7542 36.5403C28.1812 38.2765 29.8533 39.785 31.2835 41.4144C33.8736 44.3673 35.9442 48.2311 36.4849 52.5004C37.0899 57.289 35.617 62.5901 31.8316 65.7993Z" fill="#B4D2FF"/>
<path d="M33.2119 67.4287C32.787 67.7913 32.3376 68.1241 31.867 68.4249H24.5949C27.2206 68.4249 29.8035 67.5141 31.8243 65.7993C35.624 62.5903 37.0899 57.2819 36.4779 52.4932C35.9443 48.231 33.8736 44.3743 31.2836 41.4143C30.2448 40.2331 29.0849 39.1161 28.3663 37.9276C28.0816 37.4794 27.8753 37.024 27.7543 36.54C27.5907 35.8712 27.6333 35.2024 27.8325 34.5904C27.982 34.1066 28.2311 33.6583 28.5513 33.2599C29.0849 32.5768 29.8178 32.0359 30.6219 31.5734C30.9991 31.367 31.0346 30.8547 30.6788 30.5915C29.5332 29.7447 28.0317 29.2752 26.6584 29.5241C25.4844 29.7447 24.4028 30.371 23.6343 31.2603C23.3497 30.6411 23.1291 30.0151 22.9797 29.3534C22.7663 28.4212 22.7235 27.4321 22.9015 26.4858C23.0012 25.9805 22.4319 25.5964 22.0049 25.9094C20.4253 27.0479 19.1587 28.6206 18.3546 30.3994C17.9348 29.9582 17.4367 29.5739 16.896 29.2608V26.9056C17.1698 27.0134 17.4381 27.1345 17.7 27.2684C18.5396 26.0802 19.5786 25.0342 20.7597 24.1732C21.2364 23.8316 21.7771 23.6608 22.3393 23.6608C23.1434 23.6608 23.9047 24.0166 24.4243 24.6427C24.6807 24.9474 24.8662 25.3053 24.9671 25.6905C25.068 26.0758 25.0818 26.4786 25.0077 26.8699C24.9492 27.1794 24.923 27.4942 24.9295 27.8091C25.3644 27.6381 25.8148 27.5094 26.2744 27.4248C26.6514 27.3608 27.0286 27.3253 27.4057 27.3253C28.9782 27.3253 30.5934 27.8733 31.9526 28.8693C32.7068 29.4386 33.1123 30.3208 33.0555 31.2387C32.9915 32.1638 32.4791 32.982 31.6752 33.4374C31.0205 33.8003 30.5438 34.1775 30.2307 34.5759C30.0031 34.8606 29.6756 35.3942 29.8322 36.0347C30.0385 36.8956 31.0348 37.9772 32.0025 39.0232C32.3013 39.3505 32.6002 39.6778 32.8848 40.0053C36.0299 43.5843 38.0579 47.9249 38.6058 52.2297C39.3526 58.15 37.282 63.9777 33.2119 67.4287Z" fill="black" fill-opacity="0.0627451"/>
<path d="M22.6513 57.6957H15.9943C15.601 57.6957 15.2827 58.0143 15.2827 58.4073C15.2827 58.8004 15.601 59.119 15.9943 59.119H20.32V61.01C20.32 61.403 20.6383 61.7217 21.0316 61.7217C21.4249 61.7217 21.7432 61.4031 21.7432 61.01V59.119H22.6514C24.9286 59.119 26.7812 57.2664 26.7812 54.9889C26.7812 52.7115 24.9286 50.859 22.6514 50.859H19.4126C17.92 50.859 16.706 49.6446 16.706 48.1523C16.706 46.6598 17.9199 45.4454 19.4126 45.4454H26.0696C26.4629 45.4454 26.7812 45.1269 26.7812 44.7338C26.7812 44.3408 26.4629 44.0222 26.0696 44.0222H21.7432V42.1307C21.7432 41.7378 21.4249 41.4191 21.0316 41.4191C20.6383 41.4191 20.32 41.7376 20.32 42.1307V44.0222H19.4124C17.1354 44.0222 15.2827 45.8747 15.2827 48.1522C15.2827 50.4292 17.1353 52.2819 19.4124 52.2819H22.6513C24.1439 52.2819 25.3579 53.4963 25.3579 54.9888C25.3579 56.4814 24.1439 57.6957 22.6513 57.6957Z" fill="#3F444B" fill-opacity="0.8"/>
<path d="M3.13847 52.4091C2.44845 57.8594 4.32601 63.1978 8.03738 66.3418C11.3308 69.1305 15.9887 69.986 20.1784 68.2732C21.591 68.8408 23.0807 69.1303 24.5682 69.1339C24.5786 69.1343 24.5872 69.1398 24.5977 69.1398H61.4444C64.5088 69.1398 67.002 66.6468 67.002 63.5828V6.40184C67.002 3.33784 64.5088 0.84491 61.4444 0.84491H21.7425C18.6781 0.84491 16.1849 3.33784 16.1849 6.40184V28.161C13.4493 27.1823 10.4969 28.1345 8.81982 30.1658C8.30384 30.7901 8.49484 31.7349 9.21097 32.1197C9.94283 32.5121 10.5265 32.95 10.9696 33.4209C8.97499 34.0849 8.45013 36.0493 9.25062 37.086C9.58695 37.5219 10.1751 37.8577 10.9936 38.0983C9.55837 40.058 4.14267 44.474 3.13847 52.4091ZM17.608 28.8639V6.40184C17.608 4.12233 19.4626 2.26802 21.7425 2.26802H61.4444C63.7243 2.26802 65.5789 4.12233 65.5789 6.40184V63.5827C65.5789 65.8622 63.7243 67.7165 61.4444 67.7165H30.2687C34.9386 65.2131 38.05 59.2152 37.1883 52.4091C36.2177 44.7397 31.015 40.2143 29.6255 38.4728C31.203 38.0524 31.8989 36.776 31.6104 35.6323C31.3749 34.7003 30.4335 33.7291 29.1533 33.6465C29.626 33.0672 30.3183 32.5631 30.9711 32.1986C31.8195 31.725 31.8472 30.5699 31.1052 30.0215C28.7756 28.3027 25.982 28.3783 23.9058 30.02C23.4798 28.7458 23.4264 27.5436 23.6034 26.6232C23.8095 25.5602 22.6331 24.6564 21.6495 25.2988C20.3272 26.1595 18.9047 27.8525 18.1395 29.2444C18.0997 29.2131 17.6792 28.91 17.608 28.8639ZM28.4245 35.1453C29.3736 34.8877 30.0598 35.344 30.2305 35.9807C30.4073 36.682 29.5631 37.102 28.772 37.1874C28.1811 36.0322 28.4257 35.4622 28.4245 35.1453ZM10.0268 30.9437C11.8354 28.8977 15.1236 28.4754 17.5065 30.5894C17.1996 31.3624 16.968 32.1646 16.8352 32.9876C16.8204 33.0799 16.8238 33.1742 16.8454 33.2651C16.8669 33.356 16.9062 33.4418 16.9609 33.5176C17.0156 33.5933 17.0847 33.6576 17.1643 33.7066C17.2438 33.7556 17.3322 33.7886 17.4245 33.8034C17.5167 33.8183 17.611 33.8149 17.702 33.7933C17.7929 33.7717 17.8787 33.7325 17.9544 33.6778C18.0302 33.623 18.0944 33.5539 18.1435 33.4744C18.1925 33.3949 18.2254 33.3064 18.2403 33.2142C18.6578 30.6254 20.1565 28.2416 22.137 26.6995C22.1407 26.6968 22.1439 26.6935 22.1476 26.6906C21.7985 29.2186 22.8172 31.6091 24.1955 33.7322C24.2982 33.8904 24.4596 34.0014 24.6441 34.0407C24.8286 34.0799 25.0212 34.0443 25.1794 33.9417C25.2579 33.8908 25.3256 33.8251 25.3786 33.7481C25.4316 33.6711 25.4689 33.5844 25.4884 33.493C25.5079 33.4016 25.5092 33.3073 25.4922 33.2154C25.4752 33.1235 25.4402 33.0358 25.3893 32.9574C25.0644 32.4569 24.7675 31.9388 24.5001 31.4054C26.059 29.9426 28.157 29.7236 30.102 31.0546C27.1351 32.8032 26.4785 35.2006 27.2294 37.2267C22.0147 37.2479 16.6096 37.3428 13.1564 37.0408C13.817 35.0152 13.0506 32.6229 10.0268 30.9437ZM10.377 36.2164C10.1428 35.9127 10.4305 34.9489 11.7787 34.684C12.052 35.4356 12.0037 36.1446 11.7318 36.8268C10.7295 36.5943 10.4369 36.2936 10.377 36.2164ZM12.5077 38.4033C15.7219 38.8046 23.9029 38.6695 27.9837 38.6448C29.6238 41.0602 34.8105 44.9393 35.7735 52.5856C36.7523 60.2916 32.1535 67.6517 24.684 67.7127C23.7595 67.7194 22.8382 67.6041 21.9439 67.3698C22.4931 67.0248 23.0222 66.637 23.5172 66.1918C23.5867 66.1294 23.6432 66.0538 23.6835 65.9695C23.7238 65.8851 23.747 65.7937 23.7519 65.7004C23.7568 65.6071 23.7433 65.5137 23.712 65.4256C23.6808 65.3375 23.6326 65.2565 23.57 65.1871C23.5076 65.1175 23.432 65.061 23.3477 65.0206C23.2634 64.9803 23.172 64.957 23.0787 64.952C22.9854 64.9471 22.892 64.9606 22.8039 64.9917C22.7158 65.0229 22.6347 65.0711 22.5652 65.1336C18.7628 68.5531 12.9119 68.6052 8.95749 65.2556C5.60884 62.4198 3.92037 57.5657 4.55064 52.5876C5.53488 44.806 10.9679 40.8425 12.5077 38.4033Z" fill="#3F444B" fill-opacity="0.8"/>
<path d="M35.6749 40.3498C35.6749 40.4432 35.6933 40.5358 35.7291 40.6221C35.7648 40.7085 35.8172 40.7869 35.8833 40.853C35.9494 40.9191 36.0278 40.9715 36.1142 41.0073C36.2005 41.043 36.2931 41.0614 36.3865 41.0614H57.9722C58.3656 41.0614 58.6839 40.7428 58.6839 40.3498C58.6839 39.9567 58.3656 39.6383 57.9722 39.6383H36.3865C36.2931 39.6383 36.2006 39.6566 36.1142 39.6924C36.0279 39.7281 35.9494 39.7805 35.8833 39.8466C35.8172 39.9127 35.7648 39.9911 35.7291 40.0775C35.6933 40.1638 35.6749 40.2563 35.6749 40.3498ZM57.9722 49.4393H39.5919C39.1986 49.4393 38.8803 49.7578 38.8803 50.1509C38.8803 50.5439 39.1986 50.8625 39.5919 50.8625H57.9721C58.3654 50.8625 58.6837 50.5439 58.6837 50.1509C58.6837 49.7578 58.3654 49.4393 57.9722 49.4393ZM57.9722 59.2405H38.3856C37.9923 59.2405 37.6742 59.559 37.6742 59.9521C37.6742 60.3452 37.9924 60.6637 38.3856 60.6637H57.9722C58.3656 60.6637 58.6839 60.3452 58.6839 59.9521C58.6839 59.559 58.3654 59.2405 57.9722 59.2405ZM36.3865 18.409C38.8624 18.409 40.8761 16.3949 40.8761 13.9194C40.8761 11.444 38.8624 9.43015 36.3865 9.43015C33.9107 9.43015 31.897 11.4439 31.897 13.9194C31.897 16.395 33.9107 18.409 36.3865 18.409ZM36.3865 10.8533C38.0772 10.8533 39.453 12.2288 39.453 13.9194C39.453 15.6104 38.0772 16.9859 36.3865 16.9859C34.6959 16.9859 33.3201 15.6104 33.3201 13.9194C33.3199 12.2288 34.6959 10.8533 36.3865 10.8533ZM44.3637 29.567C44.3637 32.0426 46.3774 34.0563 48.8532 34.0563C51.3291 34.0563 53.3428 32.0426 53.3428 29.567C53.3428 27.0915 51.3291 25.0775 48.8532 25.0775C46.3774 25.0775 44.3637 27.0916 44.3637 29.567ZM51.9198 29.567C51.9198 31.2577 50.544 32.6332 48.8534 32.6332C47.1627 32.6332 45.7869 31.2577 45.7869 29.567C45.7869 27.8761 47.1627 26.5006 48.8534 26.5006C50.5439 26.5006 51.9198 27.8761 51.9198 29.567ZM36.0495 33.9716C36.2158 34.0608 36.4106 34.0804 36.5913 34.0261C36.772 33.9718 36.9238 33.848 37.0133 33.6819L49.4898 10.4788C49.5792 10.3126 49.5989 10.1177 49.5445 9.93692C49.4902 9.75619 49.3663 9.60444 49.2001 9.51505C49.1178 9.47075 49.0276 9.44309 48.9346 9.43367C48.8416 9.42426 48.7477 9.43326 48.6582 9.46016C48.5687 9.48707 48.4854 9.53135 48.413 9.59048C48.3406 9.64961 48.2806 9.72242 48.2364 9.80476L35.7598 33.0078C35.6705 33.1741 35.6508 33.369 35.7051 33.5497C35.7594 33.7304 35.8833 33.8822 36.0495 33.9716Z" fill="#3F444B" fill-opacity="0.8"/>
</svg>
