<svg width="55" height="19" viewBox="0 0 55 19" fill="none" xmlns="http://www.w3.org/2000/svg">
<g clip-path="url(#clip0_514_4240)">
<path d="M6.71476 0.915039H7.19959C8.88278 0.95223 10.5385 1.64026 11.7278 2.85825C11.2887 3.31384 10.8404 3.75083 10.4105 4.20641C9.74268 3.59277 8.93767 3.11858 8.05948 2.95123C6.76049 2.6723 5.36088 2.92333 4.27229 3.67644C3.08308 4.46675 2.27807 5.80561 2.10426 7.23745C1.91216 8.65069 2.30551 10.1383 3.21115 11.2354C4.08019 12.3047 5.40662 12.9741 6.77879 13.0206C8.05948 13.095 9.39506 12.6952 10.3281 11.784C11.06 11.1425 11.3984 10.1662 11.5082 9.21785C9.98967 9.21785 8.47113 9.22715 6.9526 9.21785V7.30253H13.3469C13.6762 9.35731 13.2005 11.6724 11.6637 13.1415C10.6392 14.1828 9.22125 14.7964 7.7759 14.9173C6.37629 15.0568 4.93093 14.7871 3.68683 14.0991C2.19574 13.2902 1.00652 11.9235 0.421065 10.315C-0.127803 8.83665 -0.136951 7.16307 0.375326 5.67544C0.841864 4.31798 1.73835 3.11858 2.89097 2.2818C3.99786 1.4543 5.34258 0.998718 6.71476 0.915039Z" fill="#3780FF"/>
<path d="M43.397 1.39844H45.3546V14.6755C44.7051 14.6755 44.0465 14.6848 43.397 14.6662C43.4061 10.2498 43.397 5.82412 43.397 1.39844Z" fill="#38B137"/>
<path d="M17.7012 6.00045C18.9087 5.768 20.2169 6.02834 21.214 6.76285C22.1196 7.41369 22.7508 8.43643 22.9429 9.55215C23.1899 10.8445 22.8789 12.2578 22.0556 13.2805C21.1682 14.4241 19.7137 15.0378 18.2958 14.9448C16.9968 14.8704 15.7345 14.2103 14.966 13.1317C14.097 11.9416 13.8866 10.3053 14.3623 8.91061C14.838 7.41369 16.1827 6.27008 17.7012 6.00045ZM17.9757 7.767C17.4817 7.89717 17.0243 8.1854 16.695 8.59449C15.8076 9.67302 15.8625 11.4303 16.8413 12.4344C17.3994 13.0109 18.241 13.2805 19.0185 13.1225C19.7412 12.9923 20.3724 12.4995 20.72 11.8487C21.3238 10.7423 21.15 9.21744 20.226 8.35275C19.6314 7.79489 18.7624 7.56245 17.9757 7.767Z" fill="#FA3913"/>
<path d="M27.3976 6.00113C28.7789 5.7315 30.2883 6.122 31.322 7.10755C33.0052 8.64166 33.1881 11.5146 31.7519 13.2812C30.8829 14.3969 29.4741 15.0106 28.0837 14.9455C26.7572 14.9083 25.4491 14.2389 24.6624 13.1324C23.775 11.9144 23.5829 10.2409 24.0861 8.81832C24.5892 7.36789 25.9065 6.26146 27.3976 6.00113ZM27.672 7.76769C27.178 7.89785 26.7206 8.18608 26.3913 8.58588C25.5131 9.64581 25.5497 11.3752 26.4919 12.3886C27.05 12.993 27.919 13.2905 28.724 13.1231C29.4375 12.9837 30.0779 12.5002 30.4255 11.8494C31.0201 10.7336 30.8463 9.20882 29.9132 8.34414C29.3186 7.78628 28.4496 7.56314 27.672 7.76769Z" fill="#FCBD06"/>
<path d="M35.6217 6.53971C36.6737 5.87028 38.0733 5.68432 39.2076 6.26078C39.5644 6.41884 39.8571 6.68847 40.1407 6.9581C40.1498 6.70707 40.1407 6.44673 40.1498 6.1864C40.7627 6.19569 41.3756 6.1864 41.9977 6.19569V14.3962C41.9885 15.6328 41.6775 16.9438 40.7993 17.8457C39.8388 18.8405 38.366 19.1473 37.0396 18.9428C35.6217 18.7289 34.3867 17.6783 33.8379 16.3487C34.3867 16.0791 34.963 15.8653 35.5302 15.6142C35.8504 16.3766 36.4999 17.0275 37.314 17.1762C38.1282 17.325 39.0704 17.1204 39.601 16.4324C40.1681 15.7258 40.1681 14.7588 40.1407 13.8942C39.7199 14.3126 39.2351 14.6845 38.6496 14.8239C37.3781 15.1865 35.9784 14.7402 34.9996 13.8663C34.0117 12.9923 33.4262 11.6441 33.4811 10.3053C33.5085 8.78974 34.3501 7.33001 35.6217 6.53971ZM37.5153 7.72981C36.9573 7.82278 36.4358 8.1389 36.0791 8.57589C35.2192 9.61723 35.2192 11.2815 36.0882 12.3043C36.5822 12.9086 37.3781 13.2433 38.1465 13.1596C38.8691 13.0853 39.5369 12.6204 39.8937 11.9788C40.4975 10.891 40.3968 9.41268 39.5827 8.46432C39.0795 7.87857 38.2745 7.59034 37.5153 7.72981Z" fill="#3780FF"/>
<path d="M47.7054 7.01383C48.8031 5.97249 50.4954 5.61918 51.9042 6.16775C53.2398 6.67912 54.0905 7.97149 54.5205 9.30106C52.5354 10.1378 50.5595 10.9653 48.5744 11.8021C48.8488 12.3321 49.2696 12.8156 49.8368 13.0108C50.6327 13.299 51.584 13.1968 52.2518 12.6575C52.5171 12.453 52.7275 12.1833 52.9287 11.923C53.4319 12.267 53.935 12.6017 54.4381 12.9457C53.7246 14.0336 52.5262 14.796 51.2364 14.9168C49.8093 15.0935 48.2908 14.5356 47.3669 13.4013C45.8483 11.6162 45.9947 8.62233 47.7054 7.01383ZM48.6842 8.7339C48.3731 9.18948 48.2451 9.74734 48.2542 10.2959C49.5807 9.73805 50.9071 9.18019 52.2335 8.61303C52.014 8.09236 51.4834 7.77624 50.9437 7.69256C50.0746 7.5345 49.169 8.00868 48.6842 8.7339Z" fill="#FA3913"/>
</g>
<defs>
<clipPath id="clip0_514_4240">
<rect width="54.5209" height="18.0871" fill="white" transform="translate(0 0.913086)"/>
</clipPath>
</defs>
</svg>
