<svg width="115" height="40" viewBox="0 0 115 40" fill="none" xmlns="http://www.w3.org/2000/svg">
<path fill-rule="evenodd" clip-rule="evenodd" d="M103.757 13.5811V18.3579H107.821V18.8799C107.821 21.3422 106.128 22.8347 103.961 22.8347C102.132 22.8347 100.777 21.6407 100.1 19.9247C99.4913 18.3579 99.4239 16.2676 99.4239 14.7009C99.4239 11.6409 99.6935 6.19356 103.622 6.19356C106.128 6.19356 107.077 8.28307 107.483 10.3726L113.916 9.70132C112.765 4.02906 109.176 1.11902 103.758 1.11902C100.235 1.11902 97.3242 2.16378 95.0889 5.29805C93.1246 7.98529 92.3119 11.6416 92.3119 15.1493C92.3119 22.4626 96.0371 28.2842 102.945 28.2842C106.061 28.2842 108.025 27.1644 109.854 24.4779L111.072 27.9114H113.984V13.5811H103.757ZM102.809 12.5364H114.932V28.8797H110.395L109.582 26.4917C107.889 28.507 105.382 29.3282 102.944 29.3282C95.4265 29.3282 91.3624 22.8347 91.3624 15.1486C91.3624 11.4916 92.2432 7.61108 94.4103 4.62606C96.8491 1.19329 100.032 0.0742682 103.756 0.0742682C110.123 0.0742682 113.848 3.73128 114.999 10.5968L106.67 11.4923C106.399 9.55207 105.992 7.16405 103.622 7.16405C100.438 7.16405 100.371 12.3136 100.371 14.7016C100.371 16.2684 100.438 18.2093 100.98 19.4783C101.522 20.9701 102.605 21.8656 103.961 21.8656C105.519 21.8656 106.67 20.8951 106.873 19.4034H102.809V12.5364ZM0 39.85H1.8289V33.4315H0V39.85ZM7.78868 33.4315H5.95978V35.8195H4.60529V33.4315H2.84444V39.85H4.60529V37.387H5.95978V39.85H7.78868V33.4315ZM13.952 39.85L12.9358 37.0885C13.613 36.715 13.952 36.193 13.952 35.3718C13.952 34.6998 13.7485 34.1778 13.2067 33.8043C12.8003 33.5058 12.2585 33.4308 11.7167 33.4308H8.73683V39.8493H10.5651V37.3863H11.1069L11.987 39.8493H13.952V39.85ZM10.5651 36.0438V34.7748H11.3104C11.4458 34.7748 11.6487 34.7748 11.7848 34.8498C11.9876 34.999 12.0557 35.2232 12.0557 35.3725C12.0557 35.9695 11.6493 36.0445 11.243 36.0445H10.5651V36.0438ZM21.808 38.3575H19.1664V37.3128H21.2662V35.8195H19.1664V34.924H21.808V33.4315H17.4056V39.85H21.808V38.3575ZM27.9033 39.85L26.8197 37.0885C27.4969 36.715 27.8359 36.193 27.8359 35.3718C27.8359 34.6998 27.6324 34.1778 27.158 33.8043C26.6842 33.5058 26.1424 33.4308 25.6006 33.4308H22.6207V39.8493H24.4496V37.3863H24.9914L25.8722 39.8493H27.9033V39.85ZM24.4496 36.0438V34.7748H25.1943C25.3304 34.7748 25.5332 34.7748 25.6687 34.8498C25.8722 34.999 26.0076 35.2232 26.0076 35.3725C26.0076 35.9695 25.5339 36.0445 25.1275 36.0445H24.4496V36.0438ZM32.2377 37.462V35.9688H30.342V34.924H32.8475V33.4315H28.5805V39.85H30.342V37.462H32.2377ZM35.8955 33.3565C34.1346 33.3565 33.1184 34.6998 33.1184 36.6408C33.1184 38.5068 34.1346 39.9993 35.8955 39.9993C37.6557 39.9993 38.6718 38.5068 38.6718 36.6408C38.6718 34.7005 37.6557 33.3565 35.8955 33.3565ZM35.8955 34.7748C36.7082 34.7748 36.7762 36.0438 36.7762 36.6408C36.7762 37.3128 36.7082 38.5068 35.8955 38.5068C35.0828 38.5068 35.0147 37.3128 35.0147 36.6408C35.0147 36.0438 35.0828 34.7748 35.8955 34.7748ZM43.6161 38.2825H41.3134V33.4315H39.4845V39.85H43.6161V38.2825ZM49.2369 36.2673H46.5953V37.6105H47.6115C47.6115 38.1333 47.2732 38.4318 46.7988 38.4318C46.3925 38.4318 46.1216 38.2075 45.9861 37.8348C45.8507 37.462 45.8507 37.0135 45.8507 36.6408C45.8507 35.9688 45.8507 34.7748 46.7308 34.7748C47.2732 34.7748 47.4761 35.2225 47.5435 35.7453L49.2363 35.596C49.0328 34.1035 48.0846 33.3572 46.7301 33.3572C45.85 33.3572 45.1728 33.5815 44.631 34.3277C44.1566 34.9997 43.9537 35.8952 43.9537 36.7158C43.9537 38.5068 44.8345 40 46.5273 40C47.1371 40 47.7463 39.7758 48.1527 39.1788L48.3562 39.8508H49.2363L49.2369 36.2673ZM52.8267 39.85H54.6556V33.4315H52.8267V39.85ZM55.3328 37.984C55.6718 39.4023 56.7554 39.9993 57.9751 39.9993C59.1928 39.9993 60.6153 39.3273 60.6153 37.7605C60.6153 37.0885 60.2764 36.4915 59.7346 36.1188C59.1928 35.8203 58.5829 35.7453 58.0425 35.596C57.839 35.596 57.432 35.521 57.432 35.1483C57.432 34.8498 57.7709 34.7748 57.9744 34.7748C58.4488 34.7748 58.7871 34.924 58.9212 35.3718L60.4112 34.924C60.0722 33.8043 59.0567 33.3565 58.0418 33.3565C57.4993 33.3565 56.8902 33.4315 56.4158 33.8043C55.9413 34.1771 55.603 34.7748 55.603 35.446C55.603 36.9386 56.9575 37.312 58.0418 37.5356C58.3127 37.6105 58.7871 37.6848 58.7871 38.0583C58.7871 38.4318 58.3127 38.4318 58.0418 38.4318C57.5667 38.4318 57.1604 38.2825 57.0249 37.6855L55.3328 37.984ZM64.0016 34.999H65.2213V33.4315H61.0217V34.999H62.3088V39.85H64.0016V34.999ZM73.2802 33.4315H71.8577V37.387C71.8577 37.6855 71.9257 37.984 71.6542 38.2083C71.5187 38.3575 71.2478 38.4325 71.0443 38.4325C70.8408 38.4325 70.5699 38.3575 70.4345 38.134C70.299 37.9848 70.299 37.6863 70.299 37.462V33.4315H68.4714V37.6855C68.4714 38.4318 68.6056 39.0288 69.2154 39.4765C69.6898 39.85 70.3671 39.9993 70.9089 39.9993C71.5187 39.9993 72.1279 39.85 72.6697 39.4023C73.2115 38.9545 73.2796 38.3575 73.2796 37.5363V33.4315H73.2802ZM79.3768 39.85V33.4315H77.8868V35.2225L78.0223 37.0135L76.0579 33.4308H74.3645V39.8493H75.8544V36.8636C75.8544 36.4158 75.7864 36.1916 75.719 35.7438V35.6688L76.1934 36.8628L77.8868 39.8486H79.3768V39.85ZM80.0527 37.984C80.3916 39.4023 81.4752 39.9993 82.6943 39.9993C83.9133 39.9993 85.3359 39.3273 85.3359 37.7605C85.3359 37.0885 85.065 36.4915 84.4551 36.1188C83.9807 35.8203 83.3715 35.7453 82.8297 35.596C82.5588 35.596 82.1525 35.521 82.1525 35.1483C82.1525 34.8498 82.4914 34.7748 82.7623 34.7748C83.1687 34.7748 83.5076 34.924 83.7105 35.3718L85.2004 34.924C84.7941 33.8043 83.8459 33.3565 82.8297 33.3565C82.2199 33.3565 81.6107 33.4315 81.1363 33.8043C80.6619 34.1771 80.391 34.7748 80.391 35.446C80.391 36.9386 81.6781 37.312 82.7617 37.5356C83.0326 37.6105 83.507 37.6848 83.507 38.0583C83.507 38.4318 83.0326 38.4318 82.8297 38.4318C82.2879 38.4318 81.8816 38.2825 81.7461 37.6855L80.0527 37.984ZM90.6178 38.3575H87.9775V37.3128H90.076V35.8195H87.9775V34.924H90.6178V33.4315H86.2166V39.85H90.6178V38.3575ZM96.7143 39.85L95.6307 37.0885C96.308 36.715 96.6469 36.193 96.6469 35.3718C96.6469 34.6998 96.4434 34.1778 95.9697 33.8043C95.4953 33.5058 94.9535 33.4308 94.4117 33.4308H91.4311V39.8493H93.26V37.3863H93.8018L94.6826 39.8493H96.7143V39.85ZM93.2594 36.0438V34.7748H94.0047C94.1401 34.7748 94.3436 34.7748 94.4791 34.8498C94.6826 34.999 94.818 35.2232 94.818 35.3725C94.818 35.9695 94.3436 36.0445 93.9373 36.0445H93.2594V36.0438ZM101.251 37.387C101.251 37.6113 101.251 37.984 101.115 38.1333C100.98 38.3575 100.709 38.4318 100.506 38.4318C100.303 38.4318 100.032 38.3568 99.8296 38.2825V39.85C100.235 39.925 100.641 39.9993 101.047 39.9993C101.657 39.9993 102.266 39.85 102.605 39.3273C103.012 38.7303 102.944 37.984 102.944 37.387V33.4315H101.251V37.387ZM106.534 33.3565C104.773 33.3565 103.757 34.6998 103.757 36.6408C103.757 38.5068 104.773 39.9993 106.534 39.9993C108.295 39.9993 109.379 38.5068 109.379 36.6408C109.379 34.7005 108.363 33.3565 106.534 33.3565ZM106.534 34.7748C107.347 34.7748 107.415 36.0438 107.415 36.6408C107.415 37.3128 107.347 38.5068 106.534 38.5068C105.721 38.5068 105.653 37.3128 105.653 36.6408C105.654 36.0438 105.721 34.7748 106.534 34.7748ZM110.124 39.85H112.765C113.307 39.85 113.916 39.85 114.39 39.4765C114.797 39.178 115 38.581 115 37.984C115 37.2378 114.526 36.6408 113.848 36.5658V36.4908C114.458 36.3415 114.865 35.8188 114.865 35.1475C114.865 34.5505 114.594 34.0278 114.255 33.7293C113.848 33.4308 113.442 33.4308 112.968 33.4308H110.124L110.124 39.85ZM111.749 38.4318V37.2378H112.494C112.629 37.2378 112.833 37.2378 112.968 37.387C113.172 37.462 113.239 37.6113 113.239 37.8348C113.239 38.0583 113.171 38.2083 113.036 38.2825C112.9 38.4318 112.697 38.4318 112.561 38.4318H111.749ZM111.749 35.8945V34.7748H112.426C112.765 34.7748 113.171 34.8498 113.171 35.3718C113.172 35.4488 113.154 35.5246 113.118 35.5907C113.082 35.6567 113.03 35.7103 112.968 35.7453C112.832 35.8945 112.629 35.8945 112.493 35.8945H111.749ZM0 28.8797H10.0233C13.613 28.8797 16.8638 27.9842 19.3699 25.0735C21.74 22.3862 22.959 18.4321 22.959 14.7001C22.959 10.6704 21.74 6.71486 19.031 3.95335C16.254 0.968331 13.2741 0.446313 9.54953 0.446313H0V28.8797ZM7.92413 22.3862V6.93909H8.87228C10.6331 6.93909 11.8522 6.86411 13.1393 8.50587C14.2229 10.1476 14.6966 12.6106 14.6966 14.5509C14.6966 16.4162 14.3583 18.3572 13.4776 19.9989C13.0712 20.7459 12.5294 21.4164 11.7848 21.8642C10.8366 22.4612 10.1594 22.3869 9.07578 22.3869L7.92413 22.3862ZM25.9396 28.8797H33.9311V0.446313H25.9396V28.8797ZM36.8436 20.6716C38.2662 26.8652 43.0743 29.3282 48.4923 29.3282C53.8429 29.3282 60.0055 26.5667 60.0055 19.7754C60.0055 16.6411 58.7184 13.9546 56.1455 12.4621C53.9103 11.1931 51.3367 10.7454 48.8312 10.2233C47.8831 9.92483 45.9868 9.62633 45.9868 8.13382C45.9868 6.64131 47.4767 6.34281 48.5603 6.34281C50.5921 6.34281 52.0146 7.08907 52.7593 9.17858L59.3282 7.0148C57.7035 2.0888 53.3691 0 48.8986 0C46.3251 0 43.6161 0.597004 41.4489 2.16378C39.4171 3.80554 38.1974 6.56705 38.1974 9.32855C38.1974 16.1191 43.9544 17.5374 48.7632 18.5821C49.9822 18.8056 51.9466 19.1791 51.9466 20.8951C51.9466 22.4626 49.9148 22.6862 48.8986 22.6862C46.596 22.6862 44.9032 21.7157 44.2253 19.1791L36.8436 20.6716ZM90.6858 27.9099L83.2361 1.49179H75.8544L68.4047 27.9099H73.6192L75.1772 22.5362H82.4914L83.914 27.9099H90.6858ZM91.9729 28.8797H83.2361L81.8135 23.506H75.8544L74.2964 28.8797H67.1856L75.1772 0.520576H83.914L91.9729 28.8797ZM78.8343 7.2376L81.4746 17.5366H76.1927L78.8343 7.2376ZM78.8343 10.9689L77.4117 16.4912H80.2555L78.8343 10.9689Z" fill="#C9322D"/>
</svg>
