<svg width="92" height="40" viewBox="0 0 92 40" fill="none" xmlns="http://www.w3.org/2000/svg">
<g clip-path="url(#clip0_494_3619)">
<path d="M0.000976562 7.17249C0.000976562 3.21344 3.19984 0 7.13611 0H84.8748C88.8111 0 92.0099 3.21344 92.0099 7.17249V32.817C92.0099 36.7761 88.8214 39.9895 84.8748 39.9895H7.13611C3.19984 40 0.000976562 36.7866 0.000976562 32.8275V7.17249Z" fill="#000268"/>
<path d="M2.92969 7.42455V32.586C2.92969 35.0643 4.92379 37.0701 7.38525 37.0701H48.1085V2.94043H7.38525C4.92379 2.94043 2.92969 4.94621 2.92969 7.42455ZM58.6398 19.8793C58.6398 21.486 57.8609 22.5781 56.5626 22.5781C55.4202 22.5781 54.4647 21.4755 54.4647 20.0053C54.4647 18.5036 55.3059 17.3799 56.5626 17.3799C57.892 17.3904 58.6398 18.5456 58.6398 19.8793ZM51.0165 29.068H54.4543V23.6073H54.4958C55.1501 24.8044 56.4484 25.2455 57.6428 25.2455C60.6027 25.2455 62.1814 22.7777 62.1814 19.8057C62.1814 17.3694 60.6754 14.7336 57.9232 14.7336C56.3549 14.7336 54.9113 15.3741 54.2154 16.7813H54.1739V14.9646H51.0061V29.068H51.0165ZM66.8759 21.822C66.8759 20.8559 67.7898 20.4883 68.953 20.4883C69.4723 20.4883 69.9605 20.5198 70.4071 20.5408C70.4071 21.717 69.5866 22.9142 68.2883 22.9142C67.4886 22.9247 66.8759 22.5256 66.8759 21.822ZM73.8136 25.0145C73.6579 24.2269 73.6267 23.4287 73.6267 22.6411V18.8921C73.6267 15.8257 71.4353 14.723 68.8907 14.723C67.4263 14.723 66.1384 14.9331 64.9233 15.4371L64.9856 17.7895C65.9411 17.2434 67.042 17.0334 68.1533 17.0334C69.3892 17.0334 70.4071 17.4009 70.4278 18.7766C69.9916 18.7031 69.3789 18.6401 68.8284 18.6401C67.0005 18.6401 63.6978 19.0076 63.6978 22.0741C63.6978 24.2584 65.453 25.235 67.4159 25.235C68.8284 25.235 69.7839 24.6784 70.5629 23.4182H70.6044C70.6044 23.9433 70.6563 24.4579 70.6771 25.004H73.8136V25.0145ZM75.3508 29.068C76.057 29.2255 76.7632 29.2991 77.4903 29.2991C80.6372 29.2991 81.385 26.8417 82.3613 24.3214L86.0067 14.9646H82.569L80.523 21.528H80.4918L78.3523 14.9646H74.6549L78.6846 25.256C78.4354 26.1486 77.7915 26.6422 76.9502 26.6422C76.4725 26.6422 76.057 26.5792 75.5896 26.4322L75.3508 29.068Z" fill="white"/>
<path d="M11.3214 19.9004C11.3214 18.5247 11.9861 17.3906 13.2739 17.3906C14.8214 17.3906 15.4654 18.6402 15.4654 19.7639C15.4654 21.3076 14.4891 22.3473 13.2739 22.3473C12.2353 22.3473 11.3214 21.4651 11.3214 19.9004ZM18.7889 14.9542H15.6731V16.771H15.6419C14.9149 15.5318 13.7309 14.7232 12.2665 14.7232C9.1715 14.7232 7.77979 16.96 7.77979 19.9529C7.77979 22.9248 9.48308 25.0146 12.2042 25.0146C13.5855 25.0146 14.728 24.4685 15.5485 23.2924H15.59V23.8385C15.59 25.8022 14.5203 26.7474 12.5365 26.7474C11.1033 26.7474 10.2205 26.4428 9.1715 25.9177L8.99494 28.6586C9.79465 28.9527 11.1552 29.2992 12.7962 29.2992C16.8052 29.2992 18.7889 27.9655 18.7889 23.8385V14.9542ZM24.5946 10.7642H21.1569V13.316H24.5946V10.7642ZM21.1569 25.0146H24.5946V14.9542H21.1569V25.0146ZM34.16 14.8387C33.8173 14.7862 33.3915 14.7232 32.9968 14.7232C31.5116 14.7232 30.6496 15.5318 30.0576 16.813H30.0161V14.9647H26.8899V25.0251H30.3276V20.7825C30.3276 18.8083 31.2312 17.6321 32.8306 17.6321C33.2357 17.6321 33.6096 17.6321 33.9939 17.7476L34.16 14.8387ZM40.08 22.8093C38.491 22.8093 37.847 21.4756 37.847 19.9949C37.847 18.4932 38.491 17.1595 40.08 17.1595C41.6691 17.1595 42.313 18.4932 42.313 19.9949C42.313 21.4756 41.6587 22.8093 40.08 22.8093ZM40.08 25.2457C43.362 25.2457 45.865 23.3134 45.865 19.9949C45.865 16.6555 43.362 14.7232 40.08 14.7232C36.7981 14.7232 34.2951 16.6555 34.2951 19.9949C34.2951 23.3134 36.7877 25.2457 40.08 25.2457Z" fill="#FF0007"/>
</g>
<defs>
<clipPath id="clip0_494_3619">
<rect width="92" height="40" fill="white"/>
</clipPath>
</defs>
</svg>
