<svg width="117" height="42" viewBox="0 0 117 42" fill="none" xmlns="http://www.w3.org/2000/svg">
<path fill-rule="evenodd" clip-rule="evenodd" d="M58.4996 41C90.3678 41 116 32.046 116 21C116 9.95539 90.3678 1 58.4996 1C26.7716 1 1 9.95539 1 21C1 32.046 26.7709 41 58.4996 41Z" fill="#0C0E0F"/>
<path d="M58.4996 41C90.3678 41 116 32.046 116 21C116 9.95539 90.3678 1 58.4996 1C26.7716 1 1 9.95539 1 21C1 32.046 26.7709 41 58.4996 41Z" stroke="#0C0E0F" stroke-miterlimit="2.613"/>
<path fill-rule="evenodd" clip-rule="evenodd" d="M58.4996 41C90.3678 41 116 32.046 116 21C116 9.95539 90.3678 1 58.4996 1C26.7716 1 1 9.95539 1 21C1 32.046 26.7709 41 58.4996 41Z" fill="#0C0E0F"/>
<path d="M58.4996 41C90.3678 41 116 32.046 116 21C116 9.95539 90.3678 1 58.4996 1C26.7709 1 1 9.95539 1 21C1 32.046 26.7709 41 58.4996 41Z" stroke="white" stroke-miterlimit="2.613"/>
<path fill-rule="evenodd" clip-rule="evenodd" d="M58.4996 41C90.3678 41 116 32.046 116 21C116 9.95539 90.3678 1 58.4996 1C26.7716 1 1 9.95539 1 21C1 32.046 26.7709 41 58.4996 41Z" fill="#0C0E0F"/>
<path fill-rule="evenodd" clip-rule="evenodd" d="M18.1804 15.4778H22.4758C24.1382 15.4778 24.97 15.6274 25.6625 16.2238C26.4936 16.8209 26.7712 17.418 26.7712 18.1641C26.7712 18.7612 26.4936 19.3583 25.94 19.8058C25.5237 20.1044 25.2469 20.2533 24.6918 20.4036C26.4929 20.8511 27.3248 21.5979 27.3248 22.9396C27.3248 24.4338 26.2161 25.777 23.8613 25.777C23.445 25.777 22.8914 25.9266 22.1983 25.9266H18.1797L18.1804 15.4778ZM20.6753 17.2691V19.6569H22.1997C22.8921 19.6569 23.1689 19.6569 23.3077 19.5073C23.724 19.3583 24.0015 18.9101 24.0015 18.4634C24.0015 18.0159 23.724 17.5677 23.3077 17.418C23.0308 17.2698 22.754 17.2698 22.1997 17.2698L20.6753 17.2691ZM20.6753 21.3V24.1346H22.4765C23.0308 24.1346 23.3077 24.1346 23.5852 23.985C24.0015 23.6871 24.2776 23.2389 24.2776 22.7914C24.2776 22.1943 24.0008 21.5979 23.3077 21.4482C23.0308 21.4482 23.0308 21.3 22.3377 21.3H20.6753ZM34.2532 15.4778H41.5965L41.319 17.2691H36.8856V19.6576H40.6266V21.3H36.8856V24.1346H41.8741V25.9266H34.2532V15.4778ZM48.8018 15.4778H51.5729V24.1346H56.1451L55.7288 25.9266H48.8018V15.4778ZM62.9326 15.4778H65.5663V20.2533L69.3074 15.4778H72.4941L68.3367 20.2533L72.9097 25.9266H69.4454L65.5663 20.4036V25.9266H62.9326V15.4778ZM82.1922 15.4778V25.9266H79.4211V15.4778H82.1922ZM89.9518 15.4778H92.7235L95.2178 19.6576C95.8288 20.5957 96.3391 21.596 96.74 22.6418C96.6033 21.7475 96.4632 20.4036 96.4632 19.8058V15.4771H98.9574V25.9259H96.187L93.971 21.895C93.2772 20.5519 92.446 19.2101 92.1699 18.4634C92.3079 19.3583 92.3079 20.5526 92.3079 21.4482L92.446 25.9266H89.9518V15.4778Z" fill="white"/>
<path fill-rule="evenodd" clip-rule="evenodd" d="M112.535 34.7311C112.95 35.1786 113.228 35.7764 113.228 36.3736C113.228 36.9707 112.95 37.5671 112.535 38.016C112.12 38.4635 111.566 38.762 111.012 38.762C110.318 38.762 109.763 38.4628 109.348 38.016C108.932 37.5671 108.794 36.9707 108.794 36.3736C108.794 35.7764 108.932 35.1786 109.348 34.7311C109.763 34.2836 110.318 33.9858 111.012 33.9858C111.567 33.9858 112.121 34.2836 112.535 34.7311ZM112.812 34.2836C112.397 33.8362 111.703 33.5376 111.012 33.5376C110.318 33.5376 109.627 33.6872 109.071 34.2836C108.517 34.8808 108.24 35.4772 108.24 36.3736C108.24 37.1196 108.517 37.8664 109.071 38.4635C109.627 38.9124 110.18 39.2095 111.012 39.2095C111.703 39.2095 112.258 38.9117 112.812 38.4635C113.368 37.8664 113.645 37.1203 113.645 36.3736C113.645 35.6268 113.368 34.8808 112.812 34.2836ZM111.288 36.0757C111.15 36.2239 111.012 36.2239 110.872 36.2239H110.595V35.3297H111.15C111.426 35.4779 111.426 35.6275 111.426 35.7772C111.426 35.9268 111.426 36.0757 111.288 36.0757ZM110.596 36.8204H110.872C111.012 36.8204 111.15 36.8204 111.15 36.97C111.288 36.97 111.288 36.97 111.426 37.1196V38.016H112.258V37.8664C112.121 37.8664 112.121 37.8664 112.121 37.7167V37.4175C112.121 37.1196 112.121 36.8203 111.843 36.6721C111.843 36.6721 111.704 36.5225 111.427 36.5225C111.704 36.5225 111.843 36.3729 111.981 36.2232C112.121 36.2232 112.258 35.9254 112.258 35.7757C112.258 35.3283 112.122 35.0297 111.843 34.8801C111.704 34.8801 111.427 34.7304 111.289 34.7304H109.764V38.0153H110.597V36.8204H110.596Z" fill="#0C0E0F"/>
</svg>
