<svg width="71" height="40" viewBox="0 0 71 40" fill="none" xmlns="http://www.w3.org/2000/svg">
<g clip-path="url(#clip0_1868_5894)">
<path d="M59.7826 33.2739C66.0261 29.7367 69.6173 25.0053 69.6173 20.0018C69.6173 14.9964 66.0261 10.2651 59.7827 6.72837C53.5692 3.2086 44.9184 1 35.3086 1C25.6952 1 17.0444 3.20863 10.8319 6.72834C4.58964 10.265 1 14.9963 1 20.0018C1 25.0054 4.5895 29.7359 10.8319 33.2726C17.0444 36.7923 25.6952 39.0018 35.3086 39.0036L59.7826 33.2739ZM59.7826 33.2739C53.5692 36.7941 44.9185 39.0036 35.3088 39.0036L59.7826 33.2739Z" stroke="#E6002D" stroke-width="2"/>
<path d="M67.4656 20.0019C67.4656 29.3162 53.0644 36.8762 35.3085 36.8762C17.5454 36.8762 3.15137 29.3198 3.15137 20.0019C3.15137 10.6804 17.5454 3.12402 35.3085 3.12402C53.068 3.12402 67.4656 10.6804 67.4656 20.0019Z" fill="#E6002D"/>
<path d="M20.2073 9.95412V10.9104H19.2644C18.8038 10.9104 18.4484 11.3489 18.4484 11.9852C18.4484 12.449 18.6587 12.9738 18.7023 13.0888L21.3207 19.6279L23.6671 13.0924C23.707 12.9774 23.9209 12.4525 23.9209 11.9888C23.9209 11.3525 23.5655 10.914 23.105 10.914H22.4232V9.95772H28.2874V10.914H27.9138C27.0108 10.914 26.4705 11.845 26.2166 12.4849L22.7496 20.8609L22.1294 22.6476V28.6618C22.1294 29.9379 22.532 30.6066 23.3262 30.6066H24.3525V31.5628H16.646V30.6066H17.5272C18.4085 30.6066 18.7639 29.8768 18.7639 28.6618V22.644L14.5534 12.4849C14.3068 11.845 13.7628 10.914 12.8598 10.914H12.479V9.95772L20.2073 9.95412ZM34.6013 20.7603V28.367C34.6013 30.0745 35.4572 30.603 36.0846 30.603H37.0674C38.8916 30.603 40.1283 28.7157 40.1283 25.696C40.1283 22.644 38.7646 20.7603 36.6721 20.7603H34.6013ZM34.6013 19.8004H36.7591C38.8082 19.8004 39.4573 17.6795 39.4573 15.3895C39.4573 13.0349 38.7429 10.914 36.9659 10.914H35.6929C35.08 10.914 34.6013 11.6401 34.6013 12.8013V19.8004ZM29.3028 9.98648H37.8834C41.927 9.98648 42.9933 12.6862 42.9933 14.7784C42.9933 18.9269 40.0013 19.9155 38.4528 20.2642C40.0412 20.5877 43.7077 21.3103 43.7077 26.0124C43.7077 29.0644 41.8219 31.5592 38.0683 31.5592H29.3028V30.603H29.9919C30.6374 30.603 31.2866 29.902 31.2866 28.7157V12.8013C31.2866 11.8163 30.7644 10.914 29.9919 10.914H29.3028V9.98648ZM58.0292 15.0085L57.3546 15.4039C57.0464 14.6202 55.4035 10.9463 52.7126 10.9463C50.4641 10.9463 48.7958 13.5562 48.7958 19.3583C48.7958 26.1166 50.7868 28.9997 53.4995 28.9997C54.9248 28.9997 56.3791 28.2448 57.895 24.9375L58.3918 25.3581C57.5033 27.684 55.8786 31.6671 51.9582 31.6671C49.1658 31.6671 45.1946 29.3124 45.1946 21.6266C45.1946 15.7131 47.9871 9.82471 52.1505 9.82471C52.9084 9.82471 53.554 9.95772 53.7752 10.0224C54.3844 10.2022 54.8777 10.3136 55.146 10.3819C55.9548 10.576 56.2703 10.5329 57.0065 10.5329L58.0292 15.0085Z" fill="white"/>
</g>
<defs>
<clipPath id="clip0_1868_5894">
<rect width="70.6173" height="40" fill="white"/>
</clipPath>
</defs>
</svg>
