<svg width="60" height="60" viewBox="0 0 60 60" fill="none" xmlns="http://www.w3.org/2000/svg">
<path d="M27.2841 56.3994C24.5639 58.6987 20.6544 59.3208 17.2999 57.8692C13.9881 59.333 10.0481 58.7352 7.28532 56.3994C4.03454 53.6488 2.77805 49.1048 3.29649 45.0002C3.75997 41.3408 5.5288 38.029 7.75489 35.498C8.98079 34.1012 10.408 32.8082 10.7739 31.3201C11.03 30.2894 10.7129 29.283 10.0969 28.5084C9.60282 27.8864 8.93192 27.3923 8.1818 26.9959C7.90735 26.8495 7.83411 26.4835 8.02934 26.2458C9.02954 25.0382 10.5727 24.3612 12.1584 24.416C13.5002 24.4648 14.8054 25.0808 15.7324 26.0567C16.4216 24.532 17.5133 23.184 18.8673 22.2021C19.2271 21.9459 19.715 22.2691 19.6358 22.7023C19.4773 23.5072 19.5138 24.3612 19.6968 25.1662C19.8249 25.7273 20.0139 26.264 20.2518 26.7886C20.9288 26.0262 21.8497 25.4894 22.8499 25.3065C24.0332 25.0992 25.3139 25.4955 26.302 26.2214C26.5948 26.441 26.5704 26.8862 26.2471 27.0691C25.5518 27.4534 24.9297 27.923 24.4723 28.5085C23.8501 29.2832 23.5391 30.2894 23.7892 31.3202C24.1552 32.8084 25.5884 34.1014 26.8143 35.4981C29.0344 38.0291 30.8092 41.3409 31.2727 45.0003C31.7912 49.1048 30.5288 53.6487 27.2841 56.3994Z" fill="#B4D2FF"/>
<path d="M28.4675 57.7961C28.1033 58.1068 27.7181 58.3921 27.3147 58.6499H21.0815C23.3321 58.6499 25.546 57.8692 27.2781 56.3994C30.535 53.6488 31.7915 49.0987 31.267 44.9941C30.8096 41.3408 29.0346 38.0351 26.8146 35.498C25.9243 34.4855 24.93 33.528 24.3141 32.5093C24.0701 32.1252 23.8933 31.7348 23.7896 31.32C23.6493 30.7467 23.6859 30.1734 23.8566 29.6489C23.9847 29.2342 24.1982 28.8499 24.4727 28.5084C24.93 27.923 25.5583 27.4594 26.2475 27.0629C26.5708 26.886 26.6012 26.4469 26.2962 26.2213C25.3143 25.4954 24.0273 25.093 22.8502 25.3064C21.8439 25.4954 20.9168 26.0323 20.2581 26.7946C20.0141 26.2638 19.8251 25.7272 19.697 25.16C19.5141 24.3611 19.4774 23.5132 19.63 22.7021C19.7154 22.269 19.2275 21.9397 18.8615 22.2081C17.5075 23.1839 16.4219 24.5319 15.7327 26.0566C15.3728 25.6785 14.9459 25.3491 14.4824 25.0807V23.0619C14.7171 23.1543 14.9471 23.2581 15.1716 23.3729C15.8913 22.3545 16.7818 21.4578 17.7941 20.7199C18.2028 20.4271 18.6663 20.2807 19.1481 20.2807C19.8373 20.2807 20.4899 20.5856 20.9352 21.1223C21.1551 21.3835 21.314 21.6903 21.4005 22.0205C21.487 22.3507 21.4989 22.696 21.4353 23.0313C21.3852 23.2967 21.3627 23.5665 21.3682 23.8364C21.741 23.6898 22.1271 23.5795 22.521 23.507C22.8442 23.4521 23.1675 23.4217 23.4907 23.4217C24.8386 23.4217 26.2231 23.8914 27.388 24.7451C28.0346 25.233 28.3821 25.9893 28.3334 26.7761C28.2786 27.5689 27.8393 28.2703 27.1503 28.6607C26.5892 28.9717 26.1805 29.295 25.9122 29.6365C25.7171 29.8805 25.4364 30.3378 25.5706 30.8869C25.7474 31.6248 26.6014 32.5519 27.4308 33.4485C27.687 33.729 27.9432 34.0096 28.1871 34.2902C30.8829 37.358 32.6212 41.0784 33.0909 44.7683C33.7309 49.8429 31.9561 54.838 28.4675 57.7961Z" fill="black" fill-opacity="0.0627451"/>
<path d="M19.4155 49.4535H13.7096C13.3724 49.4535 13.0996 49.7265 13.0996 50.0634C13.0996 50.4003 13.3724 50.6734 13.7096 50.6734H17.4173V52.2943C17.4173 52.6311 17.6901 52.9043 18.0272 52.9043C18.3644 52.9043 18.6372 52.6312 18.6372 52.2943V50.6734H19.4157C21.3675 50.6734 22.9554 49.0855 22.9554 47.1334C22.9554 45.1813 21.3675 43.5934 19.4157 43.5934H16.6395C15.3602 43.5934 14.3195 42.5525 14.3195 41.2734C14.3195 39.9941 15.36 38.9532 16.6395 38.9532H22.3455C22.6826 38.9532 22.9554 38.6802 22.9554 38.3433C22.9554 38.0064 22.6826 37.7333 22.3455 37.7333H18.6372V36.112C18.6372 35.7752 18.3644 35.5021 18.0272 35.5021C17.6901 35.5021 17.4173 35.7751 17.4173 36.112V37.7333H16.6394C14.6876 37.7333 13.0996 39.3212 13.0996 41.2733C13.0996 43.2251 14.6875 44.8131 16.6394 44.8131H19.4155C20.6949 44.8131 21.7355 45.8539 21.7355 47.1333C21.7355 48.4126 20.6949 49.4535 19.4155 49.4535Z" fill="#3F444B" fill-opacity="0.8"/>
<path d="M2.69012 44.9221C2.09867 49.5937 3.70801 54.1696 6.88918 56.8644C9.71211 59.2547 13.7046 59.988 17.2958 58.5199C18.5066 59.0064 19.7834 59.2546 21.0584 59.2576C21.0673 59.258 21.0747 59.2627 21.0837 59.2627H52.6666C55.2932 59.2627 57.4303 57.1259 57.4303 54.4996V5.4873C57.4303 2.86101 55.2932 0.724213 52.6666 0.724213H18.6364C16.0098 0.724213 13.8727 2.86101 13.8727 5.4873V24.138C11.5279 23.2991 8.99738 24.1153 7.55984 25.8564C7.11758 26.3916 7.28129 27.2013 7.89512 27.5312C8.52242 27.8675 9.0227 28.2429 9.4025 28.6465C7.69285 29.2157 7.24297 30.8994 7.9291 31.788C8.21738 32.1616 8.72152 32.4494 9.42313 32.6557C8.19289 34.3355 3.55086 38.1206 2.69012 44.9221ZM15.0925 24.7405V5.4873C15.0925 3.53343 16.6822 1.94402 18.6364 1.94402H52.6666C54.6208 1.94402 56.2105 3.53343 56.2105 5.4873V54.4995C56.2105 56.4533 54.6208 58.0427 52.6666 58.0427H25.9446C29.9473 55.8969 32.6143 50.7559 31.8757 44.9221C31.0437 38.3483 26.5843 34.4694 25.3933 32.9767C26.7454 32.6163 27.3419 31.5223 27.0946 30.542C26.8927 29.7431 26.0859 28.9106 24.9886 28.8398C25.3937 28.3433 25.9871 27.9112 26.5467 27.5988C27.2738 27.1929 27.2976 26.2028 26.6616 25.7327C24.6648 24.2594 22.2703 24.3243 20.4907 25.7314C20.1255 24.6393 20.0798 23.6088 20.2314 22.8199C20.4082 21.9088 19.3998 21.1341 18.5567 21.6847C17.4233 22.4224 16.2041 23.8736 15.5482 25.0666C15.5141 25.0398 15.1536 24.78 15.0925 24.7405ZM24.3638 30.1246C25.1773 29.9038 25.7655 30.2948 25.9119 30.8406C26.0634 31.4418 25.3398 31.8018 24.6617 31.8749C24.1552 30.8848 24.3649 30.3962 24.3638 30.1246ZM8.59438 26.5232C10.1446 24.7694 12.9631 24.4075 15.0056 26.2195C14.7425 26.8821 14.544 27.5696 14.4302 28.2751C14.4174 28.3542 14.4204 28.435 14.4389 28.5129C14.4574 28.5909 14.491 28.6644 14.5379 28.7293C14.5848 28.7943 14.644 28.8493 14.7122 28.8914C14.7804 28.9334 14.8562 28.9616 14.9353 28.9744C15.0144 28.9871 15.0952 28.9842 15.1731 28.9657C15.251 28.9472 15.3246 28.9136 15.3895 28.8667C15.4544 28.8198 15.5095 28.7605 15.5515 28.6923C15.5936 28.6242 15.6218 28.5484 15.6345 28.4693C15.9924 26.2503 17.277 24.2071 18.9746 22.8853C18.9778 22.883 18.9805 22.8802 18.9836 22.8777C18.6845 25.0445 19.5576 27.0935 20.739 28.9133C20.827 29.0489 20.9654 29.144 21.1235 29.1777C21.2817 29.2114 21.4467 29.1809 21.5824 29.0928C21.6496 29.0493 21.7076 28.9929 21.7531 28.9269C21.7985 28.861 21.8305 28.7867 21.8472 28.7083C21.8639 28.63 21.865 28.5491 21.8504 28.4703C21.8358 28.3915 21.8059 28.3164 21.7623 28.2492C21.4838 27.8202 21.2293 27.3761 21.0001 26.9189C22.3362 25.6651 24.1346 25.4774 25.8017 26.6182C23.2586 28.117 22.6959 30.1719 23.3395 31.9086C18.8697 31.9268 14.2368 32.0081 11.2769 31.7493C11.8432 30.013 11.1862 27.9625 8.59438 26.5232ZM8.89461 31.0426C8.69387 30.7823 8.94043 29.9562 10.096 29.7292C10.3303 30.3734 10.2889 30.9811 10.0558 31.5659C9.19672 31.3665 8.94594 31.1088 8.89461 31.0426ZM10.7209 32.9171C13.4759 33.2611 20.4882 33.1453 23.986 33.1241C25.3918 35.1945 29.8375 38.5194 30.663 45.0734C31.502 51.6785 27.5601 57.9872 21.1577 58.0395C20.3653 58.0452 19.5756 57.9464 18.809 57.7455C19.2798 57.4499 19.7333 57.1174 20.1576 56.7359C20.2172 56.6823 20.2656 56.6175 20.3001 56.5453C20.3346 56.473 20.3546 56.3946 20.3588 56.3146C20.363 56.2346 20.3514 56.1546 20.3246 56.0791C20.2979 56.0036 20.2565 55.9341 20.2029 55.8746C20.1493 55.815 20.0846 55.7666 20.0124 55.732C19.9401 55.6974 19.8617 55.6774 19.7817 55.6732C19.7018 55.6689 19.6217 55.6805 19.5462 55.7072C19.4707 55.7339 19.4012 55.7752 19.3416 55.8288C16.0824 58.7598 11.0674 58.8045 7.67785 55.9334C4.80758 53.5027 3.36031 49.342 3.90055 45.0751C4.74418 38.4052 9.40109 35.0079 10.7209 32.9171Z" fill="#3F444B" fill-opacity="0.8"/>
<path d="M30.5786 34.5855C30.5786 34.6656 30.5943 34.745 30.625 34.819C30.6556 34.893 30.7005 34.9602 30.7572 35.0169C30.8138 35.0735 30.8811 35.1185 30.9551 35.1491C31.0291 35.1797 31.1084 35.1955 31.1885 35.1955H49.6906C50.0277 35.1955 50.3005 34.9225 50.3005 34.5855C50.3005 34.2486 50.0277 33.9757 49.6906 33.9757H31.1885C31.1084 33.9757 31.0291 33.9914 30.9551 34.0221C30.8811 34.0527 30.8138 34.0976 30.7572 34.1542C30.7006 34.2109 30.6556 34.2781 30.625 34.3521C30.5943 34.4261 30.5786 34.5054 30.5786 34.5855ZM49.6906 42.3765H33.936C33.5988 42.3765 33.326 42.6496 33.326 42.9865C33.326 43.3234 33.5988 43.5964 33.936 43.5964H49.6904C50.0276 43.5964 50.3004 43.3234 50.3004 42.9865C50.3004 42.6496 50.0276 42.3765 49.6906 42.3765ZM49.6906 50.7776H32.9021C32.5649 50.7776 32.2922 51.0506 32.2922 51.3875C32.2922 51.7244 32.565 51.9975 32.9021 51.9975H49.6906C50.0277 51.9975 50.3005 51.7244 50.3005 51.3875C50.3005 51.0506 50.0276 50.7776 49.6906 50.7776ZM31.1885 15.7792C33.3107 15.7792 35.0367 14.0528 35.0367 11.931C35.0367 9.80917 33.3107 8.083 31.1885 8.083C29.0664 8.083 27.3403 9.80905 27.3403 11.931C27.3403 14.0529 29.0664 15.7792 31.1885 15.7792ZM31.1885 9.3028C32.6377 9.3028 33.8169 10.4818 33.8169 11.931C33.8169 13.3803 32.6377 14.5594 31.1885 14.5594C29.7394 14.5594 28.5601 13.3803 28.5601 11.931C28.56 10.4818 29.7394 9.3028 31.1885 9.3028ZM38.0261 25.3432C38.0261 27.4651 39.7521 29.1912 41.8743 29.1912C43.9964 29.1912 45.7225 27.4651 45.7225 25.3432C45.7225 23.2213 43.9964 21.495 41.8743 21.495C39.7521 21.495 38.0261 23.2214 38.0261 25.3432ZM44.5028 25.3432C44.5028 26.7923 43.3235 27.9714 41.8744 27.9714C40.4253 27.9714 39.246 26.7923 39.246 25.3432C39.246 23.8938 40.4253 22.7148 41.8744 22.7148C43.3234 22.7148 44.5028 23.8938 44.5028 25.3432ZM30.8997 29.1185C31.0422 29.195 31.2092 29.2118 31.3641 29.1652C31.5189 29.1187 31.649 29.0126 31.7257 28.8702L42.4199 8.98183C42.4965 8.83935 42.5134 8.67229 42.4668 8.51737C42.4202 8.36246 42.314 8.23239 42.1716 8.15577C42.101 8.11779 42.0237 8.09409 41.944 8.08602C41.8643 8.07795 41.7838 8.08566 41.7071 8.10872C41.6304 8.13179 41.559 8.16974 41.4969 8.22042C41.4349 8.27111 41.3834 8.33352 41.3455 8.40409L30.6513 28.2925C30.5747 28.4349 30.5579 28.602 30.6044 28.7569C30.651 28.9118 30.7572 29.0419 30.8997 29.1185Z" fill="#3F444B" fill-opacity="0.8"/>
</svg>
