<svg width="60" height="60" viewBox="0 0 60 60" fill="none" xmlns="http://www.w3.org/2000/svg">
<g clip-path="url(#clip0_1292_1554)">
<path fill-rule="evenodd" clip-rule="evenodd" d="M17.0245 40.8311H30.5027C31.6292 40.8311 32.5461 41.748 32.5461 42.8614V43.7521C32.5461 44.8654 31.6292 45.7823 30.5027 45.7823H17.0245C15.8981 45.7823 14.9943 44.8654 14.9943 43.7521V42.8614C14.9812 41.748 15.8981 40.8311 17.0245 40.8311Z" fill="#C8EAF7"/>
<path fill-rule="evenodd" clip-rule="evenodd" d="M32.5328 43.3984V43.7652C32.5328 44.8785 31.6159 45.7954 30.4895 45.7954H17.0244C15.8979 45.7954 14.9941 44.8785 14.9941 43.7652V43.3984H32.5328Z" fill="#B4D2FF"/>
<path fill-rule="evenodd" clip-rule="evenodd" d="M19.6047 49.9083H27.909C29.3892 49.9083 30.6073 48.5984 30.6073 46.9873V45.7823H16.9195V46.9873C16.9064 48.5984 18.1246 49.9083 19.6047 49.9083Z" fill="#C8EAF7"/>
<path fill-rule="evenodd" clip-rule="evenodd" d="M19.6049 49.9083H27.9092C29.1143 49.9083 30.1359 49.0438 30.4765 47.8649H17.0376C17.3913 49.0438 18.4129 49.9083 19.6049 49.9083ZM27.9747 49.9083L27.3198 52.3446C26.6649 54.7678 20.9278 54.9904 20.2074 52.3446L19.5525 49.9083H27.9223H27.9747Z" fill="#B4D2FF"/>
<path fill-rule="evenodd" clip-rule="evenodd" d="M23.7569 9.5654C31.7468 9.5654 38.2305 16.0491 38.2305 24.0391C38.2305 28.296 35.2441 32.16 32.7423 36.8492C21.9493 35.5918 13.4747 26.03 13.0686 14.2677C15.7276 11.373 19.5261 9.5654 23.7569 9.5654Z" fill="#ECF8FD"/>
<path fill-rule="evenodd" clip-rule="evenodd" d="M23.7571 15.0404C28.7607 15.0404 32.8342 19.1009 32.8342 24.1176C32.8342 29.1211 28.7737 33.1947 23.7571 33.1947C18.7404 33.1947 14.6799 29.1342 14.6799 24.1176C14.6799 19.1009 18.7404 15.0404 23.7571 15.0404Z" fill="#ECF8FD"/>
<path fill-rule="evenodd" clip-rule="evenodd" d="M29.4154 21.092C30.2668 21.092 30.961 21.7862 30.961 22.6507C30.961 23.5021 30.2668 24.1963 29.4154 24.1963C28.5509 24.1963 27.8567 23.5021 27.8567 22.6507C27.8567 21.7862 28.5509 21.092 29.4154 21.092Z" fill="white"/>
<path fill-rule="evenodd" clip-rule="evenodd" d="M50.1502 15.2894C55.2717 15.2894 59.4763 19.4809 59.4763 24.6154V26.6326C59.4763 31.7671 55.2848 35.9586 50.1502 35.9586C45.0288 35.9586 40.8242 31.7671 40.8242 26.6326V24.6154C40.8242 19.4809 45.0157 15.2894 50.1502 15.2894Z" fill="#B4D2FF"/>
<path fill-rule="evenodd" clip-rule="evenodd" d="M50.1502 15.2894C52.3377 15.2894 54.3548 16.0491 55.9528 17.3328C56.3431 18.3713 56.5428 19.4717 56.5422 20.5812V22.5983C56.5422 27.7198 52.3508 31.9243 47.2162 31.9243C45.0288 31.9243 43.0116 31.1646 41.4136 29.881C41.0234 28.8425 40.8237 27.742 40.8242 26.6326V24.6154C40.8242 19.4809 45.0157 15.2894 50.1502 15.2894Z" fill="#ECF8FD"/>
<path fill-rule="evenodd" clip-rule="evenodd" d="M53.9093 33.5092C49.7703 32.0684 45.1989 34.2951 43.7581 38.4342L40.5228 47.7995H26.9529C25.224 47.7995 23.8355 49.2665 23.8748 50.9824C23.901 52.7114 25.3288 54.0605 27.0577 54.0605H41.1516L41.2825 58.7366H57.6817L58.8343 43.6473C59.1749 39.2856 58.0615 34.9369 53.9093 33.5092Z" fill="#B4D2FF"/>
<path fill-rule="evenodd" clip-rule="evenodd" d="M5.3014 36.9936L6.74222 40.0455L10.0823 40.4646L7.61981 42.7699L8.26163 46.0838L5.3014 44.4596L2.35428 46.0838L2.983 42.7699L0.520508 40.4646L3.87368 40.0455L5.3014 36.9936ZM50.805 2.72829L52.2328 5.7802L55.5728 6.19935L53.1235 8.51775L53.7522 11.8185L50.805 10.1943L47.8448 11.8185L48.4866 8.51775L46.0242 6.19935L49.3642 5.7802L50.805 2.72829Z" fill="#ECF8FD"/>
<path d="M51.2765 2.51873L52.5863 5.30868L55.6513 5.68853C56.1098 5.74092 56.267 6.30415 55.9133 6.61851L53.6866 8.70115L54.2629 11.7269C54.3546 12.1591 53.8831 12.4997 53.5032 12.2901L50.805 10.81L48.1067 12.2901C47.7138 12.4997 47.2553 12.1722 47.347 11.7269L47.9233 8.70115L45.6704 6.59232C45.3429 6.29105 45.5263 5.74092 45.9717 5.68853L49.0236 5.30868L50.3334 2.51873C50.5168 2.11268 51.0931 2.11268 51.2765 2.51873ZM51.7611 6.00289L50.805 3.95955L49.8619 5.9636C49.7964 6.14697 49.6392 6.27796 49.4296 6.30415L47.1898 6.59232L48.814 8.12482C48.945 8.24271 49.0236 8.42608 48.9843 8.62256L48.5651 10.8362L50.543 9.74902C50.7002 9.65733 50.8835 9.65733 51.0538 9.74902L53.0317 10.8362L52.6125 8.62256C52.5732 8.45228 52.6256 8.2689 52.7697 8.13792L54.407 6.59232L52.1672 6.30415C51.9969 6.27796 51.8397 6.17317 51.7611 6.00289ZM5.77286 36.784L7.08269 39.5739L10.1477 39.9538C10.6061 40.0193 10.7633 40.5694 10.4228 40.8838L8.19605 42.9664L8.78548 45.9921C8.86407 46.4244 8.40563 46.7649 8.01268 46.5554L5.30132 45.0621L2.60306 46.5554C2.22321 46.7649 1.75167 46.4244 1.84336 45.9921L2.41968 42.9664L0.16677 40.8576C-0.160689 40.5563 0.0226883 40.0062 0.468032 39.9538L3.53304 39.5739L4.84288 36.784C5.01316 36.3779 5.58948 36.3779 5.77286 36.784ZM6.2706 40.2682L5.31442 38.2248L4.37134 40.2289C4.30585 40.4122 4.14867 40.5432 3.93909 40.5694L1.69928 40.8576L3.32347 42.377C3.45445 42.4949 3.53304 42.6782 3.49375 42.8747L3.0615 45.0883L5.03935 44.0012C5.19653 43.9095 5.37991 43.9095 5.55019 44.0012L7.52804 45.0883L7.10889 42.8747C7.0827 42.7044 7.13509 42.5211 7.26607 42.3901L8.91646 40.8445L6.67665 40.5563C6.49327 40.5432 6.34919 40.4384 6.2706 40.2682ZM41.0991 53.5368C43.4699 53.1831 45.1727 52.1614 46.548 50.3539C47.9757 48.4677 49.0629 45.704 50.1631 41.8923C50.3596 41.2374 51.3551 41.5256 51.1717 42.1805C50.0322 46.11 48.8926 48.9786 47.3863 50.9826C45.9193 52.9212 44.1248 54.0476 41.6754 54.5061L41.7933 58.2129H57.1969L58.3103 43.6082C58.6116 39.718 57.7602 35.3825 53.739 33.994C51.8004 33.326 49.7702 33.5094 48.0412 34.3346C46.286 35.186 44.8976 36.7054 44.2558 38.5916L41.0205 47.9569C40.9419 48.1665 40.7454 48.3105 40.5228 48.3105H26.9529C25.5252 48.3105 24.3856 49.5156 24.3856 50.9171C24.3856 52.371 25.5907 53.5368 27.0446 53.5368H41.0991ZM47.5959 33.4046C49.5475 32.4484 51.879 32.252 54.0795 33.0117C54.5773 33.1819 55.0357 33.3915 55.4549 33.6404C57.6292 31.99 58.9521 29.4096 58.9521 26.6328V24.6156C58.9521 19.7692 54.9964 15.8135 50.15 15.8135C45.3168 15.8135 41.348 19.7692 41.348 24.6156V26.6328C41.348 29.9205 43.1817 32.8807 46.0241 34.4001C46.5087 34.0071 47.0326 33.6797 47.5959 33.4046ZM56.3456 34.2691C59.0307 36.4565 59.6201 40.2551 59.3582 43.6999L58.2055 58.763C58.1924 59.0512 57.9698 59.2738 57.6816 59.2738H41.2825C40.9943 59.2738 40.7716 59.0512 40.7585 58.763L40.6406 54.5977H27.0577C26.6385 54.5977 26.2325 54.5323 25.8395 54.3882C25.8395 54.3882 24.1629 55.0955 22.1851 54.5977C21.0062 54.2965 20.0108 53.6023 19.6964 52.4889L19.1332 50.4063C17.5352 50.1443 16.3956 48.6511 16.3956 47.0007V46.241C15.2823 45.9528 14.4702 44.9443 14.4702 43.7654V42.8747C14.4702 41.8661 15.0596 40.9755 15.9503 40.5563C14.9941 38.1724 13.7367 36.0112 12.5578 33.9809C10.5669 30.5623 8.77238 27.458 8.77238 24.0524C8.75928 15.7612 15.4656 9.04171 23.7569 9.04171C32.035 9.04171 38.7545 15.7612 38.7545 24.0393C38.7545 27.4449 36.96 30.5492 34.9691 33.9678C33.7902 36.0112 32.5328 38.1593 31.5766 40.5432C32.4542 40.9624 33.0567 41.8531 33.0567 42.8616V43.7523C33.0567 44.9312 32.2446 45.9528 31.1313 46.2279L31.1182 47.2627H40.156L43.2734 38.251C43.6926 37.046 44.3606 35.985 45.1989 35.1336C42.1994 33.3784 40.3001 30.1562 40.3001 26.6328V24.6156C40.3001 19.1929 44.7273 14.7657 50.15 14.7657C55.5728 14.7657 60 19.1929 60 24.6156V26.6328C59.9869 29.6323 58.6247 32.4091 56.3456 34.2691ZM24.569 53.6416C23.8093 52.9735 23.3377 51.9781 23.3377 50.9302C23.3377 50.7599 23.3508 50.5896 23.377 50.4325H20.2203L20.7705 52.4103C21.3075 53.6285 23.3115 53.8511 24.569 53.6416ZM23.6914 49.3846C24.2808 48.1141 25.5514 47.2758 26.9529 47.2758H30.0572L30.0703 46.3196H17.4304C17.4304 47.2234 17.3911 47.9438 18.0853 48.7035C18.4783 49.1226 19.0153 49.3846 19.6047 49.3846H23.6914ZM21.0717 26.0827C21.0062 25.4015 22.0541 25.2967 22.1065 25.991C22.1982 27.0388 23.9534 27.5628 24.9488 26.7507C25.2239 26.528 25.3942 26.2267 25.3942 25.8993C25.3942 23.8297 21.0586 25.5718 21.0586 22.3496C21.0586 21.1577 22.0672 20.2932 23.2199 20.0967V19.3894C23.2199 19.0881 23.4556 18.8655 23.77 18.8655C24.0712 18.8655 24.2939 19.1012 24.2939 19.4025L24.2808 20.0836C25.4335 20.2801 26.4551 21.1446 26.4551 22.3365C26.4551 23.0307 25.4073 23.0307 25.4073 22.3365C25.4073 21.2363 23.5997 20.6337 22.5518 21.4851C22.2768 21.7078 22.1065 22.0091 22.1065 22.3365C22.1065 24.4061 26.442 22.664 26.442 25.8862C26.442 27.0781 25.4335 27.9426 24.2808 28.1391L24.2677 28.8464C24.2677 29.5406 23.2199 29.5406 23.2199 28.8464V28.1391C22.1327 27.9557 21.1765 27.1829 21.0717 26.0827ZM23.7569 14.5168C29.0617 14.5168 33.3449 18.8131 33.3449 24.1048C33.3449 29.4096 29.0486 33.7059 23.7569 33.7059C18.4521 33.7059 14.1558 29.4096 14.1558 24.1048C14.1558 18.8131 18.4521 14.5168 23.7569 14.5168ZM29.7952 18.0665C26.4551 14.7264 21.0455 14.7264 17.7055 18.0665C14.3654 21.4065 14.3654 26.8162 17.7055 30.1562C21.0455 33.4963 26.4551 33.4963 29.7952 30.1562C33.1353 26.8162 33.1353 21.4065 29.7952 18.0665ZM23.233 1.26129C23.233 0.567078 24.2808 0.567078 24.2808 1.26129V5.07291C24.2808 5.76712 23.233 5.76712 23.233 5.07291V1.26129ZM1.73857 23.8035C1.04436 23.8035 1.04436 22.7557 1.73857 22.7557H5.55019C6.2444 22.7557 6.2444 23.8035 5.55019 23.8035H1.73857ZM4.42373 12.7223C3.83431 12.3818 4.34514 11.478 4.94767 11.8186L8.24845 13.7178C8.83787 14.0584 8.32704 14.9622 7.72451 14.6216L4.42373 12.7223ZM12.2958 4.47038C11.9553 3.88096 12.8591 3.35703 13.1996 3.94645L15.112 7.24723C15.4525 7.83666 14.5488 8.36059 14.2082 7.77117L12.2958 4.47038ZM42.5661 11.8186C43.1555 11.478 43.6795 12.3818 43.09 12.7223L39.7893 14.6347C39.1998 14.9753 38.6759 14.0715 39.2653 13.7309L42.5661 11.8186ZM34.3141 3.94645C34.6547 3.34393 35.5585 3.86786 35.2179 4.47038L33.3056 7.77117C32.965 8.37369 32.0612 7.84976 32.4018 7.24723L34.3141 3.94645ZM30.5549 40.3075C31.5504 37.7926 32.8471 35.5527 34.0653 33.4439C35.9776 30.1562 37.7066 27.1698 37.7066 24.0393C37.7066 16.3375 31.4587 10.0896 23.7569 10.0896C16.0551 10.0896 9.80715 16.3375 9.80715 24.0393C9.80715 27.1698 11.5361 30.1562 13.4485 33.4439C14.6666 35.5527 15.9634 37.7926 16.9588 40.3075H30.5025H30.5549ZM30.4894 41.3553H17.0243C16.1991 41.3553 15.518 42.0364 15.518 42.8616C15.518 43.6475 15.4132 44.2762 15.9634 44.8264C16.2384 45.1014 16.6183 45.2717 17.0374 45.2717H30.5156C31.3408 45.2717 32.035 44.5906 32.035 43.7654C32.035 42.9795 32.1398 42.3508 31.5897 41.8007C31.2884 41.5256 30.9086 41.3553 30.4894 41.3553Z" fill="#3F444B"/>
</g>
<defs>
<clipPath id="clip0_1292_1554">
<rect width="60" height="60" fill="white"/>
</clipPath>
</defs>
</svg>
