<svg width="60" height="60" viewBox="0 0 60 60" fill="none" xmlns="http://www.w3.org/2000/svg">
<g clip-path="url(#clip0_1292_1597)">
<path d="M0.704258 52.1795C0.534247 52.1795 0.3712 52.1119 0.250984 51.9917C0.130769 51.8715 0.0632324 51.7085 0.0632324 51.5385V6.79487C0.0632324 3.33089 2.87862 0.512817 6.33926 0.512817H30.024C30.194 0.512817 30.3571 0.580354 30.4773 0.700569C30.5975 0.820785 30.665 0.983832 30.665 1.15384C30.665 1.32385 30.5975 1.4869 30.4773 1.60712C30.3571 1.72733 30.194 1.79487 30.024 1.79487H6.33926C3.58554 1.79487 1.34528 4.03782 1.34528 6.79487V51.5385C1.34528 51.6226 1.3287 51.706 1.29649 51.7838C1.26427 51.8615 1.21706 51.9322 1.15753 51.9917C1.09801 52.0513 1.02734 52.0985 0.949568 52.1307C0.871795 52.1629 0.788439 52.1795 0.704258 52.1795Z" fill="#3F444B" fill-opacity="0.8"/>
<path d="M42.0863 59.359H7.62012C6.2055 59.359 5.05884 58.211 5.05884 56.7949V8.07692C5.05884 6.66077 6.20563 5.51282 7.62012 5.51282H31.8172L44.6477 17.9794V56.7949C44.6477 58.211 43.5009 59.359 42.0863 59.359Z" fill="white"/>
<path d="M7.36629 56.7949V8.07692C7.36629 6.66077 8.51308 5.51282 9.92757 5.51282H7.61988C6.20526 5.51282 5.05859 6.66077 5.05859 8.07692V56.7949C5.05859 58.211 6.20539 59.359 7.61988 59.359H9.92757C8.51308 59.359 7.36629 58.211 7.36629 56.7949Z" fill="#E0E0E0"/>
<path d="M43.879 28.2472C43.879 28.7073 44.2517 29.0804 44.7115 29.0804C45.1712 29.0804 45.5439 28.7073 45.5439 28.2472C45.5439 27.787 45.1712 27.414 44.7115 27.414C44.2517 27.414 43.879 27.7869 43.879 28.2472ZM18.7853 53.6318C18.6153 53.6318 18.4522 53.5643 18.332 53.444C18.2118 53.3238 18.1443 53.1608 18.1443 52.9908V43.5824C18.1443 43.4124 18.2118 43.2494 18.332 43.1292C18.4522 43.0089 18.6153 42.9414 18.7853 42.9414C18.9553 42.9414 19.1184 43.0089 19.2386 43.1292C19.3588 43.2494 19.4263 43.4124 19.4263 43.5824V52.9908C19.4263 53.1608 19.3588 53.3238 19.2386 53.444C19.1184 53.5643 18.9553 53.6318 18.7853 53.6318ZM22.8834 53.6318C22.7134 53.6318 22.5503 53.5643 22.4301 53.444C22.3099 53.3238 22.2424 53.1608 22.2424 52.9908V41.4523C22.2424 41.2823 22.3099 41.1192 22.4301 40.999C22.5503 40.8788 22.7134 40.8113 22.8834 40.8113C23.0534 40.8113 23.2164 40.8788 23.3367 40.999C23.4569 41.1192 23.5244 41.2823 23.5244 41.4523V52.9908C23.5244 53.1608 23.4569 53.3238 23.3367 53.444C23.2164 53.5643 23.0534 53.6318 22.8834 53.6318ZM14.6871 53.6318C14.5171 53.6318 14.354 53.5643 14.2338 53.444C14.1136 53.3238 14.0461 53.1608 14.0461 52.9908V47.1326C14.0461 46.9626 14.1136 46.7995 14.2338 46.6793C14.354 46.5591 14.5171 46.4915 14.6871 46.4915C14.8571 46.4915 15.0202 46.5591 15.1404 46.6793C15.2606 46.7995 15.3281 46.9626 15.3281 47.1326V52.9908C15.3281 53.1608 15.2606 53.3238 15.1404 53.444C15.0202 53.5643 14.8571 53.6318 14.6871 53.6318ZM10.589 53.6318C10.419 53.6318 10.256 53.5643 10.1357 53.444C10.0155 53.3238 9.948 53.1608 9.948 52.9908V45.7124C9.948 45.5424 10.0155 45.3794 10.1357 45.2592C10.256 45.1389 10.419 45.0714 10.589 45.0714C10.759 45.0714 10.9221 45.1389 11.0423 45.2592C11.1625 45.3794 11.23 45.5424 11.23 45.7124V52.9908C11.23 53.1608 11.1625 53.3238 11.0423 53.444C10.9221 53.5643 10.759 53.6318 10.589 53.6318Z" fill="#3F444B" fill-opacity="0.8"/>
<path d="M18.2166 21.7156V27.7978H24.2922C24.2921 24.4387 21.5719 21.7156 18.2166 21.7156Z" fill="white"/>
<path d="M22.7159 27.7978H24.2922C24.2922 24.4387 21.5721 21.7156 18.2166 21.7156V23.2924C20.4394 23.8217 22.1878 25.5724 22.7159 27.7978Z" fill="#E0E0E0"/>
<path d="M24.2923 28.4389H18.2166C18.0466 28.4389 17.8836 28.3713 17.7633 28.2511C17.6431 28.1309 17.5756 27.9678 17.5756 27.7978V21.7156C17.5756 21.5456 17.6431 21.3826 17.7633 21.2624C17.8836 21.1422 18.0466 21.0746 18.2166 21.0746C21.9202 21.0746 24.9333 24.0906 24.9333 27.7978C24.9333 27.9678 24.8657 28.1309 24.7455 28.2511C24.6253 28.3713 24.4623 28.4389 24.2923 28.4389ZM18.8578 27.1568H23.6138C23.3208 24.6681 21.3433 22.6882 18.8578 22.3944V27.1568ZM40.5258 28.8896H28.1608C27.9908 28.8896 27.8278 28.8221 27.7076 28.7019C27.5874 28.5817 27.5198 28.4186 27.5198 28.2486C27.5198 28.0786 27.5874 27.9155 27.7076 27.7953C27.8278 27.6751 27.9908 27.6076 28.1608 27.6076H40.5258C40.6959 27.6076 40.8589 27.6751 40.9791 27.7953C41.0993 27.9155 41.1669 28.0786 41.1669 28.2486C41.1669 28.4186 41.0993 28.5817 40.9791 28.7019C40.8589 28.8221 40.6959 28.8896 40.5258 28.8896ZM34.1225 34.0178H28.1608C27.9908 34.0178 27.8278 33.9503 27.7076 33.8301C27.5874 33.7099 27.5198 33.5468 27.5198 33.3768C27.5198 33.2068 27.5874 33.0437 27.7076 32.9235C27.8278 32.8033 27.9908 32.7358 28.1608 32.7358H34.1225C34.2925 32.7358 34.4556 32.8033 34.5758 32.9235C34.696 33.0437 34.7635 33.2068 34.7635 33.3768C34.7635 33.5468 34.696 33.7099 34.5758 33.8301C34.4556 33.9503 34.2925 34.0178 34.1225 34.0178ZM40.5258 23.7614H39.4184C39.2484 23.7614 39.0854 23.6939 38.9651 23.5737C38.8449 23.4534 38.7774 23.2904 38.7774 23.1204C38.7774 22.9504 38.8449 22.7873 38.9651 22.6671C39.0854 22.5469 39.2484 22.4794 39.4184 22.4794H40.5258C40.6959 22.4794 40.8589 22.5469 40.9791 22.6671C41.0993 22.7873 41.1669 22.9504 41.1669 23.1204C41.1669 23.2904 41.0993 23.4534 40.9791 23.5737C40.8589 23.6939 40.6959 23.7614 40.5258 23.7614ZM36.4729 23.7614H28.1608C27.9908 23.7614 27.8278 23.6939 27.7076 23.5737C27.5874 23.4534 27.5198 23.2904 27.5198 23.1204C27.5198 22.9504 27.5874 22.7873 27.7076 22.6671C27.8278 22.5469 27.9908 22.4794 28.1608 22.4794H36.4729C36.6429 22.4794 36.806 22.5469 36.9262 22.6671C37.0464 22.7873 37.1139 22.9504 37.1139 23.1204C37.1139 23.2904 37.0464 23.4534 36.9262 23.5737C36.806 23.6939 36.6429 23.7614 36.4729 23.7614ZM31.177 47.8626H28.1608C27.9908 47.8626 27.8278 47.795 27.7076 47.6748C27.5874 47.5546 27.5198 47.3916 27.5198 47.2215C27.5198 47.0515 27.5874 46.8885 27.7076 46.7683C27.8278 46.6481 27.9908 46.5805 28.1608 46.5805H31.177C31.347 46.5805 31.5101 46.6481 31.6303 46.7683C31.7505 46.8885 31.818 47.0515 31.818 47.2215C31.818 47.3916 31.7505 47.5546 31.6303 47.6748C31.5101 47.795 31.347 47.8626 31.177 47.8626ZM31.177 42.7344H28.1608C27.9908 42.7344 27.8278 42.6668 27.7076 42.5466C27.5874 42.4264 27.5198 42.2634 27.5198 42.0933C27.5198 41.9233 27.5874 41.7603 27.7076 41.6401C27.8278 41.5199 27.9908 41.4523 28.1608 41.4523H31.177C31.347 41.4523 31.5101 41.5199 31.6303 41.6401C31.7505 41.7603 31.818 41.9233 31.818 42.0933C31.818 42.2634 31.7505 42.4264 31.6303 42.5466C31.5101 42.6668 31.347 42.7344 31.177 42.7344ZM35.1923 52.9908H28.1608C27.9908 52.9908 27.8278 52.9232 27.7076 52.803C27.5874 52.6828 27.5198 52.5198 27.5198 52.3498C27.5198 52.1797 27.5874 52.0167 27.7076 51.8965C27.8278 51.7763 27.9908 51.7087 28.1608 51.7087H35.1923C35.3623 51.7087 35.5253 51.7763 35.6455 51.8965C35.7657 52.0167 35.8333 52.1797 35.8333 52.3498C35.8333 52.5198 35.7657 52.6828 35.6455 52.803C35.5253 52.9232 35.3623 52.9908 35.1923 52.9908ZM17.5048 12.5221H9.18046C9.01045 12.5221 8.8474 12.4545 8.72719 12.3343C8.60697 12.2141 8.53943 12.051 8.53943 11.881C8.53943 11.711 8.60697 11.548 8.72719 11.4278C8.8474 11.3075 9.01045 11.24 9.18046 11.24H17.5048C17.6748 11.24 17.8379 11.3075 17.9581 11.4278C18.0783 11.548 18.1458 11.711 18.1458 11.881C18.1458 12.051 18.0783 12.2141 17.9581 12.3343C17.8379 12.4545 17.6748 12.5221 17.5048 12.5221ZM23.908 17.6503H22.8835C22.7135 17.6503 22.5505 17.5827 22.4303 17.4625C22.31 17.3423 22.2425 17.1792 22.2425 17.0092C22.2425 16.8392 22.31 16.6762 22.4303 16.556C22.5505 16.4357 22.7135 16.3682 22.8835 16.3682H23.908C24.078 16.3682 24.2411 16.4357 24.3613 16.556C24.4815 16.6762 24.549 16.8392 24.549 17.0092C24.549 17.1792 24.4815 17.3423 24.3613 17.4625C24.2411 17.5827 24.078 17.6503 23.908 17.6503ZM19.9821 17.6503H9.18033C9.01032 17.6503 8.84727 17.5827 8.72706 17.4625C8.60684 17.3423 8.53931 17.1792 8.53931 17.0092C8.53931 16.8392 8.60684 16.6762 8.72706 16.556C8.84727 16.4357 9.01032 16.3682 9.18033 16.3682H19.9821C20.1521 16.3682 20.3152 16.4357 20.4354 16.556C20.5556 16.6762 20.6232 16.8392 20.6232 17.0092C20.6232 17.1792 20.5556 17.3423 20.4354 17.4625C20.3152 17.5827 20.1521 17.6503 19.9821 17.6503Z" fill="#3F444B" fill-opacity="0.8"/>
<path d="M42.5019 50.3042C47.2408 50.3042 51.0824 46.4585 51.0824 41.7145C51.0824 36.9705 47.2408 33.1247 42.5019 33.1247C37.763 33.1247 33.9214 36.9705 33.9214 41.7145C33.9214 46.4585 37.763 50.3042 42.5019 50.3042Z" fill="#B4D2FF"/>
<path d="M49.933 37.4244C48.7834 35.4331 46.9575 34.0774 44.9138 33.4777C44.2663 33.2877 43.6014 33.7223 43.5083 34.3906L43.4962 34.4772C43.4195 35.0277 43.7651 35.5397 44.2978 35.6985C45.8265 36.154 47.1213 37.1695 47.9346 38.5782C48.6137 39.7546 48.8897 41.0877 48.7406 42.4122C48.6792 42.9583 49.0237 43.4678 49.5547 43.6099L49.6423 43.6333C50.2946 43.8078 50.9537 43.3638 51.0305 42.6931C51.2327 40.9269 50.8904 39.0826 49.933 37.4244Z" fill="white"/>
<path d="M36.2293 41.7145C36.2293 37.3624 39.463 33.7688 43.656 33.2042C43.2736 33.152 42.8881 33.1254 42.5021 33.1247C37.7633 33.1247 33.9216 36.9705 33.9216 41.7145C33.9216 46.4585 37.7633 50.3042 42.5021 50.3042C42.8937 50.3042 43.2783 50.2755 43.656 50.2247C39.463 49.6603 36.2293 46.0665 36.2293 41.7145Z" fill="#3067FF"/>
<path d="M59.359 6.79487C55.4747 14.9809 43.7771 14.9809 39.8928 6.79487C43.7771 -1.39116 55.4747 -1.39116 59.359 6.79487Z" fill="white"/>
<path d="M49.6258 12.9487C52.6542 12.9487 55.1093 10.1935 55.1093 6.79487C55.1093 3.39619 52.6542 0.641022 49.6258 0.641022C46.5974 0.641022 44.1423 3.39619 44.1423 6.79487C44.1423 10.1935 46.5974 12.9487 49.6258 12.9487Z" fill="#B4D2FF"/>
<path d="M53.5999 8.56615C53.1156 8.40435 52.594 8.61641 52.3375 9.05794C52.1087 9.45179 51.822 9.79461 51.4928 10.0678C51.1234 10.3745 51.023 10.9009 51.2294 11.3344L51.2528 11.3833C51.547 12.0009 52.3465 12.1891 52.8737 11.7533C53.3958 11.3217 53.8472 10.7886 54.2051 10.1799C54.5622 9.5723 54.2684 8.78935 53.5999 8.56615Z" fill="white"/>
<path d="M46.1936 6.79487C46.1936 3.78974 48.1134 1.28936 50.6514 0.750124C50.3143 0.677973 49.9706 0.641405 49.6258 0.641022C46.5973 0.641022 44.1423 3.39615 44.1423 6.79487C44.1423 10.1936 46.5973 12.9487 49.6258 12.9487C49.9764 12.9487 50.319 12.9103 50.6514 12.8396C48.1135 12.3004 46.1936 9.8 46.1936 6.79487Z" fill="#3067FF"/>
<path d="M49.69 4.35898C48.3468 4.35898 47.2542 5.45167 47.2542 6.79488C47.2542 8.13808 48.3468 9.23077 49.69 9.23077C51.0333 9.23077 52.1259 8.13808 52.1259 6.79488C52.1259 5.45167 51.0331 4.35898 49.69 4.35898Z" fill="#3F444B" fill-opacity="0.8"/>
<path d="M0.832436 56.1604C1.29218 56.1604 1.66487 55.7873 1.66487 55.3272C1.66487 54.867 1.29218 54.494 0.832436 54.494C0.372694 54.494 0 54.867 0 55.3272C0 55.7873 0.372694 56.1604 0.832436 56.1604Z" fill="#3067FF"/>
<path d="M44.7116 29.0804C45.1713 29.0804 45.544 28.7073 45.544 28.2472C45.544 27.787 45.1713 27.414 44.7116 27.414C44.2518 27.414 43.8792 27.787 43.8792 28.2472C43.8792 28.7073 44.2518 29.0804 44.7116 29.0804Z" fill="#3F444B" fill-opacity="0.8"/>
<path d="M21.3131 30.1136H15.8662V24.6724C15.8662 24.3185 15.5789 24.0314 15.2245 24.0314C11.5135 24.0314 8.49414 27.0474 8.49414 30.7546C8.49414 34.4618 11.5134 37.4777 15.2245 37.4777C18.9357 37.4777 21.9549 34.4617 21.9549 30.7546C21.9548 30.5845 21.8871 30.4214 21.7667 30.3012C21.6464 30.181 21.4832 30.1135 21.3131 30.1136Z" fill="#3F444B" fill-opacity="0.8"/>
<path d="M44.6478 24.9256C44.732 24.9256 44.8153 24.909 44.893 24.8767C44.9707 24.8445 45.0413 24.7972 45.1008 24.7377C45.1603 24.6782 45.2074 24.6075 45.2396 24.5297C45.2717 24.452 45.2883 24.3686 45.2882 24.2845V17.9692C45.2882 17.8834 45.271 17.7985 45.2376 17.7195C45.2043 17.6405 45.1554 17.5689 45.0939 17.5091L32.2632 5.03974C32.1438 4.92364 31.9838 4.85869 31.8172 4.85872H7.61988C5.85449 4.85872 4.41821 6.29692 4.41821 8.06462V56.7942C4.41821 58.5619 5.85449 60.0001 7.61988 60.0001H42.0865C43.8521 60.0001 45.2882 58.5619 45.2882 56.7942V54.8067C45.2883 54.7225 45.2717 54.6392 45.2396 54.5614C45.2074 54.4837 45.1603 54.413 45.1008 54.3535C45.0413 54.2939 44.9707 54.2467 44.893 54.2144C44.8153 54.1822 44.732 54.1656 44.6478 54.1655C44.5637 54.1656 44.4804 54.1822 44.4026 54.2144C44.3249 54.2467 44.2543 54.2939 44.1949 54.3535C44.1354 54.413 44.0882 54.4837 44.0561 54.5614C44.0239 54.6392 44.0074 54.7225 44.0074 54.8067V56.7942C44.0074 57.8549 43.1456 58.7178 42.0864 58.7178H7.61988C6.56065 58.7178 5.69885 57.8549 5.69885 56.7942V8.06449C5.69885 7.00385 6.56065 6.1409 7.61988 6.1409H31.0022V16.6728C31.0022 17.7335 31.864 18.5964 32.9232 18.5964H44.0076V24.2845C44.0075 24.3686 44.024 24.452 44.0562 24.5297C44.0883 24.6075 44.1354 24.6781 44.1949 24.7377C44.2543 24.7972 44.325 24.8445 44.4027 24.8767C44.4804 24.909 44.5637 24.9256 44.6478 24.9256Z" fill="#3F444B" fill-opacity="0.8"/>
<path d="M58.9121 52.8821L55.8893 49.8554C54.5956 48.5601 52.5779 48.4231 51.1297 49.4419L49.4548 47.7649C50.8658 46.1426 51.7233 44.0254 51.7233 41.7101C51.7233 36.619 47.5869 32.4772 42.5024 32.4772C37.4179 32.4772 33.2815 36.6191 33.2815 41.7101C33.2815 46.8013 37.4179 50.9431 42.5024 50.9431C44.8146 50.9431 46.9291 50.0846 48.5493 48.6717L50.2241 50.3486C49.2064 51.7987 49.3434 53.8192 50.637 55.1145L53.6597 58.1413C55.0847 59.5681 57.4867 59.5683 58.9121 58.1413C60.3602 56.6914 60.3602 54.3321 58.9121 52.8821ZM42.5024 49.6608C38.1241 49.6608 34.5621 46.0941 34.5621 41.7101C34.5621 37.3262 38.1241 33.7595 42.5024 33.7595C46.8807 33.7595 50.4426 37.3262 50.4426 41.7101C50.4426 46.0942 46.8807 49.6608 42.5024 49.6608Z" fill="#3F444B" fill-opacity="0.8"/>
<path d="M59.9382 6.50705C58.0342 2.49333 54.0831 0 49.6265 0C45.17 0 41.219 2.49333 39.3149 6.50705C39.2741 6.59304 39.2529 6.68702 39.2529 6.78218C39.2529 6.87734 39.2741 6.97132 39.3149 7.05731C41.2188 11.071 45.1701 13.5644 49.6265 13.5644C54.0829 13.5644 58.0341 11.071 59.9382 7.05731C59.979 6.97132 60.0001 6.87734 60.0001 6.78218C60.0001 6.68702 59.979 6.59304 59.9382 6.50705ZM54.4697 6.78218C54.4697 9.4991 52.5208 12.2819 49.6265 12.2819C46.7315 12.2819 44.7833 9.49808 44.7833 6.78218C44.7833 4.06526 46.7323 1.28244 49.6265 1.28244C52.5215 1.28231 54.4697 4.06615 54.4697 6.78218ZM40.6072 6.78218C41.589 4.86 43.1114 3.3541 44.9454 2.40756C43.0301 4.92615 43.0301 8.63654 44.9438 11.156C43.1106 10.2095 41.5888 8.70372 40.6072 6.78218ZM54.3092 11.156C56.2229 8.63654 56.2229 4.92615 54.3077 2.40756C56.1417 3.3541 57.6641 4.86 58.6459 6.78218C57.6643 8.70372 56.1425 10.2095 54.3092 11.156Z" fill="#3F444B" fill-opacity="0.8"/>
</g>
<defs>
<clipPath id="clip0_1292_1597">
<rect width="60" height="60" fill="white"/>
</clipPath>
</defs>
</svg>
