<svg width="60" height="60" viewBox="0 0 60 60" fill="none" xmlns="http://www.w3.org/2000/svg">
<g clip-path="url(#clip0_1292_1649)">
<path fill-rule="evenodd" clip-rule="evenodd" d="M43.6657 56.8895C43.9101 57.1338 44.2317 57.2859 44.5756 57.3197C44.9196 57.3536 45.2646 57.2671 45.5519 57.0751C45.8393 56.8831 46.0512 56.5974 46.1515 56.2667C46.2519 55.936 46.2344 55.5808 46.1022 55.2615C45.97 54.9422 45.7312 54.6786 45.4264 54.5156C45.1217 54.3526 44.7698 54.3004 44.4309 54.3677C44.0919 54.4351 43.7868 54.6178 43.5674 54.8849C43.3481 55.152 43.2282 55.4869 43.228 55.8325C43.2274 56.0289 43.2658 56.2234 43.3409 56.4049C43.416 56.5863 43.5264 56.751 43.6657 56.8895ZM16.7693 55.8325C16.7692 55.487 16.6492 55.1522 16.43 54.8852C16.2107 54.6182 15.9056 54.4355 15.5667 54.3682C15.2279 54.3009 14.8761 54.3532 14.5715 54.5161C14.2668 54.679 14.028 54.9425 13.8959 55.2617C13.7637 55.581 13.7462 55.9361 13.8466 56.2667C13.9469 56.5974 14.1587 56.883 14.4459 57.0749C14.7332 57.2669 15.0781 57.3533 15.422 57.3195C15.7658 57.2857 16.0873 57.1337 16.3316 56.8895C16.471 56.7511 16.5814 56.5863 16.6566 56.4049C16.7317 56.2234 16.77 56.0289 16.7693 55.8325ZM29.9977 18.1357C29.409 18.1357 28.8335 17.9611 28.344 17.6341C27.8545 17.307 27.473 16.8421 27.2477 16.2982C27.0224 15.7543 26.9635 15.1558 27.0783 14.5784C27.1932 14.001 27.4767 13.4707 27.8929 13.0544C28.3092 12.6381 28.8396 12.3546 29.417 12.2398C29.9944 12.1249 30.5929 12.1839 31.1368 12.4091C31.6807 12.6344 32.1455 13.016 32.4726 13.5054C32.7997 13.9949 32.9743 14.5704 32.9743 15.1591C32.9732 15.9483 32.6593 16.7048 32.1013 17.2628C31.5433 17.8207 30.7868 18.1347 29.9977 18.1357Z" fill="#B4D2FF"/>
<path d="M47.127 51.0482H33.0912C32.5994 51.0482 32.2007 51.4469 32.2007 51.9387V57.9364C32.2007 58.4283 32.5994 58.8269 33.0912 58.8269H47.127C47.6188 58.8269 48.0175 58.4283 48.0175 57.9364V51.9387C48.0175 51.4469 47.6188 51.0482 47.127 51.0482Z" fill="#B4D2FF"/>
<path fill-rule="evenodd" clip-rule="evenodd" d="M27.7965 57.9375C27.7962 58.1735 27.7022 58.3997 27.5352 58.5664C27.3682 58.7332 27.1419 58.8268 26.9059 58.8268H12.8706C12.6346 58.8268 12.4083 58.7332 12.2413 58.5664C12.0743 58.3997 11.9803 58.1735 11.98 57.9375V51.9387C11.98 51.8217 12.003 51.7059 12.0478 51.5978C12.0925 51.4898 12.1581 51.3916 12.2408 51.3089C12.3235 51.2262 12.4217 51.1606 12.5298 51.1158C12.6378 51.0711 12.7536 51.048 12.8706 51.048H26.9059C27.0229 51.048 27.1387 51.0711 27.2467 51.1158C27.3548 51.1606 27.453 51.2262 27.5357 51.3089C27.6184 51.3916 27.684 51.4898 27.7287 51.5978C27.7735 51.7059 27.7965 51.8217 27.7965 51.9387V57.9375ZM29.9976 27.0289C28.0755 27.0308 26.1976 26.4531 24.609 25.3711L24.518 25.3093L24.5074 25.1998C24.4898 25.0202 24.4809 24.8398 24.4805 24.6594C24.4805 23.1962 25.0617 21.7929 26.0964 20.7582C27.1311 19.7236 28.5343 19.1423 29.9976 19.1423C31.4608 19.1423 32.8641 19.7236 33.8987 20.7582C34.9334 21.7929 35.5146 23.1962 35.5146 24.6594C35.5146 24.8399 35.5054 25.0201 35.488 25.1998L35.4775 25.3093L35.3864 25.3712C33.7976 26.4529 31.9196 27.0306 29.9976 27.0289Z" fill="#B4D2FF"/>
<path fill-rule="evenodd" clip-rule="evenodd" d="M17.2919 9.42774C15.7794 11.8184 14.9807 14.591 14.9895 17.4199C14.9917 20.8771 16.1849 24.2279 18.3682 26.9085C18.482 27.0533 18.5345 27.237 18.5143 27.4201C18.4941 27.6032 18.4028 27.771 18.2602 27.8875C18.1175 28.0041 17.9348 28.06 17.7514 28.0432C17.568 28.0264 17.3984 27.9384 17.2793 27.7979C14.8908 24.8664 13.5855 21.2013 13.5833 17.4199C13.5732 14.3558 14.4294 11.3512 16.0531 8.75274L13.3721 9.55875C13.2829 9.58837 13.1887 9.5998 13.0949 9.59237C13.0012 9.58494 12.91 9.55879 12.8265 9.51548C12.7431 9.47216 12.6692 9.41255 12.6092 9.34019C12.5492 9.26782 12.5044 9.18416 12.4773 9.09415C12.4502 9.00414 12.4414 8.90961 12.4515 8.81614C12.4615 8.72268 12.4902 8.63219 12.5359 8.55002C12.5815 8.46784 12.6432 8.39565 12.7172 8.33772C12.7912 8.27979 12.8761 8.23729 12.9669 8.21274L17.6214 6.81188C17.7214 6.78191 17.8267 6.77454 17.9298 6.79033C18.0329 6.80611 18.1313 6.84464 18.2176 6.90312C18.304 6.9616 18.3763 7.03857 18.4293 7.12845C18.4822 7.21833 18.5145 7.31887 18.5238 7.42278L18.9583 12.2646C18.9666 12.3566 18.9567 12.4492 18.9292 12.5374C18.9016 12.6255 18.8569 12.7073 18.7978 12.7781C18.7386 12.849 18.666 12.9074 18.5842 12.9502C18.5023 12.993 18.4129 13.0192 18.3209 13.0274C18.2998 13.0292 18.2786 13.0301 18.2574 13.0302C18.0819 13.0303 17.9128 12.9646 17.7833 12.8461C17.6539 12.7277 17.5735 12.5649 17.5582 12.3901L17.2919 9.42774ZM42.7052 25.4048C44.2171 23.0167 45.0153 20.2464 45.0058 17.4199C45.0038 13.9622 43.8102 10.6108 41.6261 7.9302C41.5082 7.78567 41.4525 7.60022 41.4713 7.41462C41.4901 7.22903 41.5818 7.0585 41.7263 6.94055C41.8709 6.8226 42.0563 6.76689 42.2419 6.78568C42.4275 6.80447 42.598 6.89622 42.716 7.04074C45.1044 9.97279 46.4096 13.6382 46.412 17.4199C46.4229 20.4857 45.5656 23.492 43.9393 26.0909L46.6276 25.2877C46.8063 25.2344 46.9989 25.2543 47.1629 25.3429C47.3269 25.4316 47.449 25.5819 47.5023 25.7606C47.5556 25.9393 47.5357 26.1318 47.447 26.2959C47.3583 26.4599 47.2081 26.582 47.0294 26.6353L42.3722 28.0267C42.2721 28.0564 42.1668 28.0636 42.0636 28.0478C41.9605 28.0319 41.8621 27.9934 41.7757 27.9349C41.6893 27.8763 41.6171 27.7992 41.5642 27.7093C41.5114 27.6193 41.4792 27.5187 41.47 27.4147L41.0449 22.5729C41.0285 22.3871 41.0867 22.2024 41.2065 22.0594C41.3264 21.9164 41.4981 21.8269 41.6839 21.8106C41.8697 21.7942 42.0544 21.8524 42.1974 21.9722C42.3404 22.0921 42.4299 22.2638 42.4462 22.4496L42.705 25.4047L42.7052 25.4048ZM19.6181 4.70145C22.5502 2.31278 26.2158 1.00719 29.9977 1.00442C32.9804 0.997177 35.9077 1.80986 38.4597 3.35367L37.5467 0.95133C37.4805 0.77694 37.4863 0.583394 37.5628 0.413271C37.6393 0.243147 37.7803 0.110382 37.9547 0.0441813C38.129 -0.0220192 38.3226 -0.0162321 38.4927 0.0602696C38.6628 0.136771 38.7956 0.277721 38.8618 0.452111L40.5893 4.99547C40.626 5.09308 40.6407 5.19764 40.6322 5.3016C40.6237 5.40557 40.5923 5.50636 40.5402 5.59671C40.488 5.68706 40.4165 5.76473 40.3308 5.82411C40.245 5.88349 40.1471 5.92311 40.0442 5.94012L35.2454 6.71578C35.2078 6.72255 35.1698 6.72585 35.1316 6.72563C34.9553 6.7248 34.7858 6.6578 34.6566 6.53791C34.5274 6.41801 34.448 6.25396 34.434 6.07825C34.42 5.90255 34.4725 5.728 34.5812 5.58919C34.6898 5.45038 34.8466 5.35743 35.0205 5.32875L38.1542 4.82133C35.7281 3.24106 32.8934 2.40325 29.998 2.41067C26.5406 2.41259 23.1895 3.60619 20.5094 5.79035C20.4379 5.84883 20.3556 5.89266 20.2672 5.91932C20.1787 5.94599 20.0859 5.95498 19.994 5.94577C19.9021 5.93656 19.8129 5.90935 19.7315 5.86567C19.6501 5.82199 19.5781 5.76271 19.5196 5.69121C19.4612 5.61971 19.4173 5.5374 19.3907 5.44896C19.364 5.36053 19.355 5.26771 19.3642 5.1758C19.3734 5.08389 19.4007 4.99469 19.4443 4.9133C19.488 4.83192 19.5473 4.75993 19.6188 4.70145H19.6181ZM29.9977 33.8343C26.9481 33.8446 23.9572 32.9963 21.3671 31.3864L22.1974 34.0172C22.2473 34.1932 22.2266 34.3816 22.1398 34.5426C22.053 34.7036 21.9069 34.8245 21.7325 34.8795C21.558 34.9345 21.369 34.9194 21.2056 34.8374C21.0421 34.7554 20.917 34.6129 20.8569 34.4401L19.3931 29.8044C19.3621 29.705 19.3535 29.5999 19.368 29.4967C19.3824 29.3935 19.4196 29.2948 19.4767 29.2077C19.5339 29.1206 19.6096 29.0473 19.6985 28.9929C19.7873 28.9386 19.8872 28.9046 19.9907 28.8934L24.826 28.3931C24.9179 28.3836 25.0107 28.3922 25.0993 28.4186C25.1878 28.4449 25.2703 28.4884 25.342 28.5466C25.4137 28.6049 25.4732 28.6766 25.5172 28.7578C25.5611 28.8391 25.5887 28.9282 25.5982 29.02C25.6078 29.1119 25.5991 29.2047 25.5728 29.2933C25.5464 29.3818 25.5029 29.4643 25.4447 29.536C25.3865 29.6077 25.3147 29.6672 25.2335 29.7112C25.1523 29.7551 25.0632 29.7827 24.9713 29.7922L21.9713 30.1029C24.3692 31.63 27.155 32.437 29.9979 32.4279C33.4552 32.4259 36.8063 31.2323 39.4864 29.0482C39.5575 28.9866 39.6402 28.9398 39.7296 28.9107C39.8191 28.8816 39.9135 28.8707 40.0072 28.8788C40.101 28.8868 40.1921 28.9136 40.2754 28.9575C40.3586 29.0014 40.4321 29.0615 40.4916 29.1344C40.5512 29.2072 40.5955 29.2913 40.6219 29.3816C40.6484 29.4719 40.6565 29.5665 40.6457 29.66C40.6349 29.7535 40.6054 29.8438 40.5591 29.9257C40.5127 30.0075 40.4504 30.0793 40.3759 30.1366C37.4448 32.5261 33.7795 33.832 29.9979 33.8343H29.9977ZM15.5038 56.0613C15.4432 56.1215 15.3614 56.1553 15.276 56.1553C15.1906 56.1553 15.1088 56.1215 15.0482 56.0613C14.9876 56.0009 14.9535 55.9189 14.9534 55.8334C14.9532 55.7478 14.9871 55.6657 15.0475 55.6051C15.1079 55.5445 15.1899 55.5103 15.2755 55.5102C15.361 55.51 15.4431 55.5439 15.5038 55.6043C15.5639 55.6651 15.5977 55.7472 15.5977 55.8328C15.5977 55.9184 15.5639 56.0005 15.5038 56.0613ZM15.2755 54.1043C14.8755 54.1042 14.4878 54.2429 14.1786 54.4966C13.8694 54.7503 13.6577 55.1034 13.5796 55.4957C13.5016 55.888 13.5619 56.2952 13.7505 56.648C13.939 57.0008 14.244 57.2773 14.6135 57.4304C14.9831 57.5835 15.3943 57.6037 15.777 57.4876C16.1598 57.3715 16.4905 57.1263 16.7127 56.7937C16.935 56.4611 17.035 56.0618 16.9958 55.6637C16.9566 55.2657 16.7806 54.8935 16.4977 54.6107C16.3377 54.4495 16.1473 54.3217 15.9374 54.2348C15.7276 54.1479 15.5026 54.1035 15.2755 54.1043ZM2.54856 35.2649C2.50511 35.6288 2.54664 35.9978 2.66988 36.3429C2.79312 36.688 2.99472 36.9999 3.25883 37.2539L13.2455 47.2395C13.4388 47.4295 13.5919 47.6565 13.6956 47.9069C13.7993 48.1574 13.8515 48.4261 13.8492 48.6972V49.8762H25.9652C25.9978 47.4828 25.2355 45.1462 23.7977 43.2325C22.3599 41.3188 20.3278 39.9362 18.0199 39.3014C17.902 39.2687 17.7946 39.206 17.708 39.1195L11.1875 32.5989C10.9569 32.3679 10.6629 32.2107 10.3429 32.147C10.0228 32.0833 9.69102 32.116 9.38957 32.2411C9.08813 32.3661 8.83059 32.5778 8.64957 32.8493C8.46856 33.1209 8.37223 33.4401 8.37278 33.7664C8.37185 33.983 8.41399 34.1976 8.49673 34.3977C8.57948 34.5978 8.70118 34.7795 8.85477 34.9322L13.8459 39.9244C13.9112 39.9896 13.9631 40.0671 13.9985 40.1524C14.0338 40.2377 14.0521 40.3292 14.0521 40.4215C14.0522 40.5139 14.034 40.6053 13.9987 40.6907C13.9635 40.776 13.9117 40.8535 13.8464 40.9189C13.7812 40.9842 13.7037 41.0361 13.6184 41.0714C13.5331 41.1068 13.4416 41.1251 13.3493 41.1251C13.2569 41.1252 13.1655 41.107 13.0801 41.0717C12.9948 41.0364 12.9173 40.9847 12.8519 40.9194L7.85973 35.9272C7.28861 35.3529 6.96803 34.5758 6.96803 33.7658C6.96803 32.9558 7.28861 32.1788 7.85973 31.6044C8.00546 31.4592 8.16527 31.3288 8.3368 31.2152L8.03328 21.3912C8.018 20.8542 7.79428 20.3443 7.40951 19.9694C7.02474 19.5945 6.50915 19.3841 5.97196 19.3828C5.95321 19.3828 5.93551 19.3839 5.91664 19.3839C5.37052 19.3991 4.8527 19.6301 4.47653 20.0263C4.10036 20.4225 3.89649 20.9516 3.90957 21.4978C3.91072 21.5268 3.90942 21.5559 3.90571 21.5847L2.54856 35.2649ZM27.5623 57.9375V51.9387C27.5623 51.7646 27.4932 51.5977 27.3701 51.4746C27.2471 51.3516 27.0801 51.2824 26.9061 51.2824H12.8708C12.6967 51.2824 12.5298 51.3516 12.4067 51.4746C12.2837 51.5977 12.2145 51.7646 12.2145 51.9387V57.9375C12.2148 58.1113 12.2841 58.278 12.4072 58.4008C12.5302 58.5236 12.6969 58.5926 12.8708 58.5926H26.9061C27.0799 58.5926 27.2467 58.5236 27.3697 58.4008C27.4928 58.278 27.562 58.1113 27.5623 57.9375ZM2.26496 38.2478L12.2505 48.2333C12.3135 48.2927 12.3632 48.3647 12.3964 48.4446C12.4295 48.5246 12.4454 48.6106 12.4429 48.6972V49.9219C11.9807 50.0201 11.5663 50.2739 11.2687 50.641C10.9712 51.0081 10.8087 51.4662 10.8083 51.9387V57.9375C10.8089 58.4842 11.0264 59.0083 11.4131 59.3948C11.7998 59.7813 12.3241 59.9985 12.8708 59.9988H26.9061C27.4527 59.9982 27.9768 59.7809 28.3634 59.3945C28.75 59.0081 28.9677 58.4841 28.9686 57.9375V51.9387C28.9679 51.4728 28.8095 51.021 28.5194 50.6565C28.2292 50.2921 27.8243 50.0366 27.3705 49.9315C27.4143 47.253 26.5771 44.6343 24.9877 42.4778C23.3983 40.3214 21.1447 38.7467 18.5732 37.9957L12.1815 31.6055C11.8984 31.3209 11.5616 31.0955 11.1906 30.9422C10.8196 30.789 10.4219 30.711 10.0205 30.7127C9.92227 30.7127 9.825 30.7173 9.72875 30.7266L9.43848 21.3502C9.40606 20.4403 9.01721 19.5796 8.35585 18.9539C7.69449 18.3282 6.81364 17.9876 5.90337 18.0056C4.9931 18.0236 4.12639 18.3988 3.49028 19.0501C2.85416 19.7015 2.49964 20.5768 2.50321 21.4873L1.14946 35.1267C1.0847 35.6976 1.15158 36.2757 1.34494 36.8167C1.53831 37.3577 1.85303 37.8473 2.26496 38.2478ZM44.9495 56.0613C44.8966 56.1138 44.8272 56.1463 44.7531 56.1534C44.679 56.1605 44.6047 56.1417 44.5428 56.1002C44.481 56.0586 44.4355 55.997 44.414 55.9257C44.3925 55.8544 44.3964 55.7778 44.425 55.7091C44.4536 55.6403 44.5051 55.5836 44.5708 55.5485C44.6365 55.5135 44.7124 55.5022 44.7854 55.5168C44.8584 55.5313 44.9242 55.5707 44.9714 55.6283C45.0187 55.6858 45.0445 55.758 45.0446 55.8325C45.0449 55.875 45.0367 55.9173 45.0203 55.9566C45.004 55.9959 44.9799 56.0315 44.9495 56.0613ZM44.7222 54.1043C44.3222 54.1042 43.9346 54.2429 43.6254 54.4966C43.3162 54.7503 43.1045 55.1034 43.0264 55.4957C42.9483 55.888 43.0087 56.2952 43.1972 56.648C43.3857 57.0008 43.6908 57.2773 44.0603 57.4304C44.4298 57.5835 44.841 57.6037 45.2238 57.4876C45.6066 57.3715 45.9372 57.1263 46.1595 56.7937C46.3817 56.4611 46.4818 56.0618 46.4426 55.6637C46.4034 55.2657 46.2273 54.8935 45.9445 54.6107C45.7845 54.4494 45.5941 54.3216 45.3842 54.2347C45.1744 54.1478 44.9494 54.1035 44.7222 54.1043ZM47.7831 51.9387C47.7831 51.7646 47.7139 51.5977 47.5908 51.4746C47.4678 51.3516 47.3008 51.2824 47.1268 51.2824H33.0911C32.9171 51.2824 32.7502 51.3516 32.6271 51.4746C32.504 51.5977 32.4349 51.7646 32.4349 51.9387V57.9375C32.4352 58.1113 32.5045 58.278 32.6275 58.4008C32.7505 58.5236 32.9173 58.5926 33.0911 58.5926H47.1269C47.3008 58.5926 47.4675 58.5236 47.5905 58.4008C47.7136 58.278 47.7829 58.1113 47.7832 57.9375V51.9387H47.7831ZM41.9777 39.3014C39.6698 39.9362 37.6377 41.3188 36.1999 43.2325C34.7621 45.1462 33.9997 47.4828 34.0324 49.8762H46.1483V48.6972C46.146 48.4262 46.1982 48.1575 46.3018 47.9071C46.4053 47.6566 46.5582 47.4296 46.7513 47.2395L56.7369 37.2539C57.0016 37.0002 57.2038 36.6885 57.3275 36.3433C57.4512 35.9982 57.4932 35.629 57.45 35.2649L56.0906 21.5847C56.0878 21.5558 56.0878 21.5267 56.0906 21.4978C56.103 20.951 55.8983 20.4215 55.5212 20.0253C55.144 19.6291 54.6253 19.3984 54.0785 19.3839C54.0618 19.3839 54.0453 19.3828 54.0287 19.3828C53.4915 19.3837 52.9757 19.5936 52.5905 19.968C52.2052 20.3424 51.9808 20.852 51.9645 21.3889L51.6611 31.2152C51.8328 31.329 51.9926 31.4598 52.1382 31.6055C52.7083 32.1802 53.0281 32.9569 53.0281 33.7663C53.0281 34.5758 52.7083 35.3525 52.1382 35.9272L47.146 40.9194C47.0141 41.0512 46.8352 41.1252 46.6487 41.1251C46.4622 41.125 46.2834 41.0508 46.1516 40.9188C46.0198 40.7869 45.9458 40.608 45.9459 40.4215C45.946 40.235 46.0202 40.0562 46.1522 39.9244L51.1433 34.9322C51.4516 34.6222 51.6247 34.2028 51.6247 33.7655C51.6247 33.3283 51.4516 32.9089 51.1433 32.5989C50.8336 32.29 50.414 32.1166 49.9766 32.1166C49.5392 32.1166 49.1197 32.29 48.81 32.5989L42.2895 39.1195C42.203 39.206 42.0956 39.2687 41.9777 39.3014ZM47.7466 48.2333L57.7322 38.2478C58.1444 37.8475 58.4594 37.358 58.653 36.817C58.8466 36.2759 58.9135 35.6977 58.8487 35.1267L57.4944 21.4873C57.5041 20.5762 57.1556 19.6978 56.5239 19.0414C55.8921 18.3849 55.0278 18.0029 54.117 17.9776C54.0894 17.9776 54.0562 17.9766 54.0286 17.9766C53.1256 17.9777 52.2586 18.3302 51.6111 18.9596C50.9637 19.5889 50.5866 20.4455 50.5598 21.348L50.2695 30.7266C50.1733 30.7172 50.076 30.7126 49.9776 30.7127C49.5762 30.711 49.1784 30.789 48.8074 30.9423C48.4364 31.0955 48.0995 31.321 47.8163 31.6055L41.4249 37.9957C38.8535 38.7467 36.5999 40.3215 35.0106 42.4779C33.4212 44.6343 32.5841 47.253 32.6279 49.9315C32.1741 50.0366 31.7691 50.2922 31.4789 50.6566C31.1887 51.021 31.0302 51.4728 31.0292 51.9387V57.9375C31.0303 58.4841 31.248 59.0079 31.6346 59.3943C32.0212 59.7806 32.5452 59.998 33.0917 59.9988H47.1269C47.6736 59.9985 48.1979 59.7813 48.5846 59.3948C48.9713 59.0083 49.1888 58.4842 49.1894 57.9375V51.9387C49.189 51.4661 49.0264 51.008 48.7289 50.641C48.4313 50.2739 48.0168 50.02 47.5545 49.9219V48.6972C47.5521 48.6107 47.5679 48.5247 47.601 48.4448C47.634 48.3649 47.6836 48.2928 47.7464 48.2333H47.7466ZM29.9977 8.04469C31.8481 8.04368 33.6573 8.59057 35.1973 9.6164C36.7373 10.6422 37.9391 12.1011 38.6511 13.809C39.3631 15.5168 39.5535 17.3973 39.1983 19.2133C38.843 21.0292 37.958 22.6993 36.6549 24.013C36.5347 22.7974 36.0847 21.6377 35.3536 20.6592C34.6225 19.6806 33.6381 18.9202 32.5065 18.4602C33.1986 17.9349 33.7083 17.2056 33.9637 16.3751C34.2192 15.5447 34.2076 14.655 33.9304 13.8315C33.6533 13.008 33.1247 12.2923 32.4191 11.7853C31.7135 11.2783 30.8665 11.0055 29.9977 11.0055C29.1288 11.0055 28.2819 11.2783 27.5763 11.7853C26.8707 12.2923 26.3421 13.008 26.0649 13.8315C25.7878 14.655 25.7761 15.5447 26.0316 16.3751C26.2871 17.2056 26.7968 17.9349 27.4889 18.4602C26.3571 18.92 25.3725 19.6803 24.6414 20.6589C23.9102 21.6375 23.4604 22.7973 23.3404 24.013C22.0374 22.6993 21.1524 21.0292 20.7972 19.2132C20.442 17.3973 20.6324 15.5168 21.3445 13.809C22.0565 12.1011 23.2582 10.6423 24.7982 9.61645C26.3382 8.59062 28.1474 8.04372 29.9977 8.04469ZM29.9977 17.9013C30.54 17.9011 31.0701 17.74 31.5209 17.4386C31.9716 17.1371 32.3229 16.7087 32.5303 16.2076C32.7376 15.7065 32.7917 15.1552 32.6858 14.6234C32.5798 14.0915 32.3186 13.603 31.935 13.2197C31.5515 12.8363 31.0628 12.5753 30.5309 12.4696C29.9991 12.3638 29.4478 12.4182 28.9468 12.6258C28.4458 12.8334 28.0176 13.1849 27.7163 13.6358C27.4151 14.0867 27.2543 14.6168 27.2543 15.1591C27.2551 15.8864 27.5444 16.5836 28.0588 17.0977C28.5731 17.6118 29.2705 17.9009 29.9977 17.9013ZM24.7407 25.1777C24.7238 25.0056 24.7151 24.8327 24.7147 24.6598C24.7114 23.9639 24.8456 23.2743 25.1096 22.6305C25.3737 21.9867 25.7623 21.4014 26.2531 20.9082C26.744 20.415 27.3275 20.0236 27.9701 19.7566C28.6126 19.4895 29.3016 19.3521 29.9974 19.3521C30.6933 19.3521 31.3823 19.4895 32.0248 19.7566C32.6674 20.0236 33.2509 20.415 33.7417 20.9082C34.2326 21.4014 34.6212 21.9867 34.8852 22.6305C35.1493 23.2743 35.2835 23.9639 35.2802 24.6598C35.2802 24.8333 35.2713 25.0052 35.2548 25.1777C33.704 26.2313 31.8725 26.7946 29.9977 26.7946C28.123 26.7946 26.2914 26.2313 24.7407 25.1777ZM29.9977 28.2012C32.1301 28.2012 34.2145 27.5689 35.9875 26.3842C37.7604 25.1995 39.1423 23.5157 39.9583 21.5457C40.7743 19.5757 40.9878 17.408 40.5718 15.3166C40.1558 13.2252 39.129 11.3042 37.6212 9.79643C36.1134 8.28864 34.1924 7.26183 32.1011 6.84583C30.0097 6.42984 27.8419 6.64334 25.8719 7.45935C23.9019 8.27535 22.2181 9.65721 21.0335 11.4302C19.8488 13.2031 19.2165 15.2876 19.2165 17.4199C19.2197 20.2783 20.3566 23.0188 22.3778 25.04C24.3989 27.0612 27.1393 28.1982 29.9977 28.2014V28.2012Z" fill="#3F444B" fill-opacity="0.8"/>
</g>
<defs>
<clipPath id="clip0_1292_1649">
<rect width="60" height="60" fill="white"/>
</clipPath>
</defs>
</svg>
