<svg width="32" height="32" viewBox="0 0 32 32" fill="none" xmlns="http://www.w3.org/2000/svg">
<mask id="mask0_1261_17666" style="mask-type:alpha" maskUnits="userSpaceOnUse" x="0" y="0" width="32" height="32">
<rect width="32" height="32" fill="#D9D9D9"/>
</mask>
<g mask="url(#mask0_1261_17666)">
<path d="M32 16C32 7.16344 24.8366 0 16 0C7.16344 0 0 7.16344 0 16C0 24.8366 7.16344 32 16 32C24.8366 32 32 24.8366 32 16Z" fill="#5865F2"/>
<path d="M21.8338 10.7554C23.7194 13.5473 24.6506 16.6965 24.3025 20.322C24.301 20.3374 24.2931 20.3515 24.2806 20.3607C22.8527 21.4166 21.4693 22.0574 20.1052 22.4824C20.0946 22.4856 20.0832 22.4854 20.0727 22.4819C20.0622 22.4783 20.053 22.4715 20.0466 22.4624C19.7314 22.0208 19.4451 21.5553 19.1943 21.0664C19.1799 21.0376 19.193 21.003 19.2226 20.9916C19.6774 20.8191 20.1098 20.6123 20.5257 20.3674C20.5585 20.3481 20.5606 20.3008 20.5303 20.2781C20.4421 20.2121 20.3546 20.1427 20.2709 20.0734C20.2553 20.0606 20.2342 20.058 20.2165 20.0667C17.5161 21.3224 14.5581 21.3224 11.8258 20.0667C11.8081 20.0587 11.787 20.0614 11.7718 20.074C11.6883 20.1434 11.6007 20.2121 11.5132 20.2781C11.483 20.3008 11.4855 20.3481 11.5184 20.3674C11.9344 20.6076 12.3668 20.8191 12.8209 20.9925C12.8503 21.0038 12.8643 21.0376 12.8497 21.0664C12.6043 21.5559 12.318 22.0215 11.997 22.463C11.983 22.4809 11.96 22.4891 11.9383 22.4824C10.5808 22.0574 9.19731 21.4166 7.76942 20.3607C7.75752 20.3515 7.74899 20.3367 7.74771 20.3214C7.45683 17.1854 8.04974 14.0101 10.2141 10.7547C10.2193 10.7461 10.2272 10.7394 10.2364 10.7354C11.3014 10.2432 12.4423 9.88106 13.6348 9.67423C13.6565 9.67087 13.6782 9.68095 13.6895 9.70031C13.8368 9.96303 14.0053 10.2999 14.1192 10.5752C15.3762 10.3819 16.6528 10.3819 17.936 10.5752C18.05 10.3058 18.2126 9.96303 18.3593 9.70031C18.3645 9.69071 18.3726 9.68303 18.3824 9.67834C18.3922 9.67365 18.4033 9.67221 18.414 9.67423C19.6071 9.88165 20.748 10.2438 21.8121 10.7354C21.8215 10.7394 21.8293 10.7461 21.8338 10.7554ZM14.7582 16.718C14.7714 15.7909 14.1002 15.0238 13.2577 15.0238C12.4221 15.0238 11.7574 15.7842 11.7574 16.718C11.7574 17.6516 12.4352 18.4119 13.2577 18.4119C14.0935 18.4119 14.7582 17.6516 14.7582 16.718ZM20.3058 16.718C20.3189 15.7909 19.6478 15.0238 18.8055 15.0238C17.9696 15.0238 17.3049 15.7842 17.3049 16.718C17.3049 17.6516 17.9828 18.4119 18.8055 18.4119C19.6478 18.4119 20.3058 17.6516 20.3058 16.718Z" fill="white"/>
</g>
</svg>
