<svg width="32" height="32" viewBox="0 0 32 32" fill="none" xmlns="http://www.w3.org/2000/svg">
<mask id="mask0_1261_17644" style="mask-type:alpha" maskUnits="userSpaceOnUse" x="0" y="0" width="32" height="32">
<rect width="32" height="32" fill="#D9D9D9"/>
</mask>
<g mask="url(#mask0_1261_17644)">
<path d="M16 32C24.8366 32 32 24.8366 32 16C32 7.16344 24.8366 0 16 0C7.16344 0 0 7.16344 0 16C0 24.8366 7.16344 32 16 32Z" fill="#0F287F"/>
<path fill-rule="evenodd" clip-rule="evenodd" d="M10.2856 6.85718L4.57129 10.2857L10.2856 13.7143L4.57129 17.1429L10.2856 20.5715L15.9999 17.1429L21.7141 20.5715L27.4284 17.1429L21.7141 13.7143L27.4284 10.2857L21.7141 6.85718L15.9999 10.2857L10.2856 6.85718ZM15.9999 10.2857L21.7141 13.7143L15.9999 17.1429L10.2856 13.7143L15.9999 10.2857Z" fill="#DAF8FE"/>
<path d="M10.2861 22.857L16.0004 19.4285L21.7147 22.857L16.0004 26.2856L10.2861 22.857Z" fill="#DAF8FE"/>
</g>
</svg>
