<svg width="84" height="28" viewBox="0 0 84 28" fill="none" xmlns="http://www.w3.org/2000/svg">
<g clip-path="url(#clip0_1261_17194)">
<path d="M10.3454 0.00256348H11.0924C13.6856 0.0601368 16.2367 1.12524 18.0689 3.01077C17.3924 3.71605 16.7018 4.39253 16.0393 5.09781C15.0105 4.14785 13.7702 3.41379 12.4172 3.15471C10.4158 2.7229 8.25947 3.11153 6.58229 4.27739C4.75008 5.50082 3.50981 7.57346 3.24202 9.79004C2.94605 11.9778 3.55209 14.2808 4.94739 15.9792C6.28632 17.6344 8.32994 18.6707 10.444 18.7427C12.4172 18.8578 14.4749 18.2389 15.9125 16.8284C17.04 15.8352 17.5615 14.3239 17.7306 12.8558C15.391 12.8558 13.0514 12.8702 10.7118 12.8558V9.89079H20.5635C21.0709 13.0717 20.338 16.6557 17.9702 18.9298C16.3917 20.5419 14.2071 21.4918 11.9803 21.6789C9.8239 21.8948 7.59706 21.4774 5.68028 20.4123C3.38296 19.1601 1.55075 17.0443 0.648732 14.5542C-0.196905 12.2657 -0.210999 9.67489 0.578263 7.37195C1.29705 5.27053 2.67826 3.41379 4.4541 2.11838C6.15947 0.837377 8.23128 0.132104 10.3454 0.00256348Z" fill="#3780FF"/>
<path d="M66.8613 0.750977H69.8774V21.3047C68.8768 21.3047 67.862 21.3191 66.8613 21.2903C66.8754 14.4534 66.8613 7.60221 66.8613 0.750977Z" fill="#38B137"/>
<path d="M27.2723 7.8756C29.1327 7.51577 31.1481 7.91878 32.6844 9.05586C34.0797 10.0634 35.0522 11.6467 35.3481 13.3739C35.7287 15.3745 35.2495 17.5623 33.981 19.1456C32.6139 20.916 30.373 21.8659 28.1884 21.722C26.1871 21.6068 24.2421 20.5849 23.0582 18.9153C21.7193 17.0729 21.3951 14.5397 22.128 12.3807C22.8609 10.0634 24.9327 8.29301 27.2723 7.8756ZM27.6951 10.6103C26.934 10.8118 26.2293 11.258 25.722 11.8913C24.3548 13.561 24.4394 16.2813 25.9475 17.8358C26.8072 18.7282 28.1038 19.1456 29.3018 18.9009C30.4152 18.6994 31.3877 17.9365 31.9233 16.929C32.8535 15.2162 32.5857 12.8557 31.1622 11.5171C30.2461 10.6535 28.9072 10.2937 27.6951 10.6103Z" fill="#FA3913"/>
<path d="M42.2112 7.87581C44.3394 7.4584 46.6649 8.06292 48.2575 9.58862C50.8508 11.9635 51.1327 16.4111 48.92 19.1458C47.581 20.873 45.4106 21.823 43.2683 21.7222C41.2246 21.6646 39.2092 20.6283 37.9971 18.9155C36.63 17.03 36.334 14.4392 37.1092 12.237C37.8844 9.99163 39.9139 8.27882 42.2112 7.87581ZM42.634 10.6105C41.873 10.8121 41.1683 11.2582 40.6609 11.8772C39.3079 13.518 39.3642 16.1952 40.8159 17.764C41.6757 18.6996 43.0146 19.1602 44.2548 18.9011C45.3542 18.6852 46.3408 17.9368 46.8763 16.9292C47.7924 15.202 47.5246 12.8415 46.0871 11.5029C45.171 10.6393 43.832 10.2939 42.634 10.6105Z" fill="#FCBD06"/>
<path d="M54.8816 8.71046C56.5024 7.67414 58.6588 7.38627 60.4064 8.27866C60.9561 8.52335 61.4071 8.94075 61.844 9.35816C61.8581 8.96954 61.844 8.56653 61.8581 8.16351C62.8024 8.17791 63.7467 8.16351 64.7051 8.17791V20.8728C64.691 22.7872 64.2118 24.8166 62.8588 26.2128C61.3789 27.7529 59.1098 28.2278 57.0661 27.9112C54.8816 27.5801 52.9789 25.9537 52.1333 23.8954C52.9789 23.478 53.8668 23.147 54.7406 22.7584C55.2339 23.9386 56.2346 24.9462 57.489 25.1764C58.7433 25.4067 60.195 25.0901 61.0124 24.025C61.8863 22.9311 61.8863 21.4342 61.844 20.0956C61.1957 20.7433 60.4487 21.319 59.5467 21.5349C57.5876 22.0963 55.4312 21.4054 53.9232 20.0524C52.401 18.6994 51.499 16.6124 51.5836 14.5398C51.6259 12.1936 52.9225 9.93389 54.8816 8.71046ZM57.799 10.5528C56.9393 10.6967 56.1359 11.1861 55.5863 11.8626C54.2614 13.4747 54.2614 16.0511 55.6004 17.6343C56.3614 18.5699 57.5876 19.0881 58.7715 18.9585C59.8849 18.8434 60.9138 18.1237 61.4635 17.1306C62.3937 15.4465 62.2386 13.158 60.9843 11.6899C60.2091 10.7831 58.9688 10.3369 57.799 10.5528Z" fill="#3780FF"/>
<path d="M73.4992 9.44447C75.1905 7.83242 77.7979 7.28547 79.9684 8.13468C82.0261 8.92631 83.3368 10.927 83.9992 12.9852C80.9408 14.2806 77.8966 15.5616 74.8382 16.857C75.261 17.6775 75.9093 18.4259 76.7831 18.7282C78.0093 19.1744 79.4751 19.016 80.5039 18.1812C80.9127 17.8646 81.2368 17.4472 81.5469 17.0442C82.3221 17.5767 83.0972 18.0949 83.8724 18.6274C82.7731 20.3114 80.9268 21.4917 78.9395 21.6788C76.7408 21.9523 74.4013 21.0887 72.9778 19.3327C70.6382 16.5692 70.8637 11.9345 73.4992 9.44447ZM75.0073 12.1072C74.5281 12.8125 74.3308 13.6761 74.3449 14.5253C76.3885 13.6617 78.4321 12.7981 80.4757 11.9201C80.1375 11.1141 79.32 10.6247 78.4885 10.4952C77.1496 10.2505 75.7543 10.9846 75.0073 12.1072Z" fill="#FA3913"/>
</g>
<defs>
<clipPath id="clip0_1261_17194">
<rect width="84" height="28" fill="white"/>
</clipPath>
</defs>
</svg>
