<svg width="32" height="32" viewBox="0 0 32 32" fill="none" xmlns="http://www.w3.org/2000/svg">
<mask id="mask0_1261_17656" style="mask-type:alpha" maskUnits="userSpaceOnUse" x="0" y="0" width="32" height="32">
<rect width="32" height="32" fill="#D9D9D9"/>
</mask>
<g mask="url(#mask0_1261_17656)">
<path d="M16 0C7.17501 0 0 7.17501 0 16C0 24.825 7.17501 32 16 32C24.825 32 32 24.825 32 16C32 7.17501 24.825 0 16 0Z" fill="#FDDD4C"/>
<path d="M8.99232 20.1718C8.64246 19.6421 9.52237 18.8404 9.16451 18.1674C8.95819 17.7792 8.62094 17.5373 8.21591 17.4865C7.82722 17.4377 7.42682 17.5801 7.17162 17.8581C6.76866 18.2966 6.706 18.8935 6.78396 19.1047C6.81248 19.1821 6.85728 19.2032 6.88941 19.2078C7.1089 19.2367 7.23238 18.6734 7.30815 18.5561C7.51764 18.2327 7.99338 18.1349 8.32191 18.3474C8.94484 18.7503 8.40468 19.4015 8.45131 19.9515C8.49666 20.4871 8.83031 20.7023 9.12983 20.7249C9.42125 20.7359 9.62501 20.574 9.67645 20.4559C9.79982 20.1738 9.28014 20.6076 8.99232 20.1718Z" fill="black"/>
<path d="M22.009 15.3096C21.8456 15.287 21.667 15.2875 21.4813 15.3096C21.3402 15.1316 21.2138 14.8434 21.1425 14.507C21.0156 13.9086 21.0289 13.4751 21.3829 13.4188C21.737 13.3625 21.9082 13.7246 22.035 14.323C22.1201 14.7253 22.1038 15.0949 22.009 15.3096Z" fill="black"/>
<path d="M18.1306 15.6655C18.1446 15.8011 18.1495 15.9382 18.1456 16.0644C18.4882 16.0845 18.7308 16.2472 18.7955 16.3504C18.8285 16.4038 18.8153 16.4385 18.8046 16.4545C18.7692 16.5097 18.6932 16.5012 18.534 16.4833C18.3949 16.4677 18.2451 16.454 18.0895 16.4611C18.0048 16.7209 17.7537 16.7452 17.5773 16.5531C17.454 16.5906 17.2119 16.7453 17.1398 16.5772C17.1391 16.4939 17.2263 16.3727 17.3842 16.2657C17.2765 16.0601 17.2042 15.84 17.1616 15.6122C16.9377 15.6525 16.7364 15.7152 16.5786 15.7643C16.5045 15.7874 16.2114 15.9198 16.177 15.7706C16.1541 15.6675 16.3145 15.4975 16.4842 15.3748C16.6737 15.2402 16.884 15.1446 17.102 15.0894C17.0973 14.7648 17.1802 14.5384 17.4159 14.5009C17.7083 14.4544 17.8895 14.6795 18.015 15.0963C18.3683 15.1945 18.7212 15.438 18.8769 15.6897C18.9376 15.7872 18.9493 15.8626 18.91 15.9023C18.8122 16.0039 18.2696 15.7096 18.1306 15.6655Z" fill="black"/>
<path d="M20.4547 17.1243C20.6789 17.233 20.9255 17.1902 21.0059 17.0288C21.0864 16.8674 20.9698 16.6487 20.7456 16.54C20.5215 16.4314 20.2749 16.4742 20.1944 16.6356C20.1139 16.797 20.2306 17.0157 20.4547 17.1243Z" fill="black"/>
<path d="M21.5577 16.3226C21.5618 16.0757 21.7131 15.8786 21.8949 15.8816C22.0768 15.8851 22.221 16.0873 22.2169 16.3336C22.2129 16.5801 22.0615 16.7772 21.8797 16.7742C21.6978 16.7712 21.5537 16.569 21.5577 16.3226Z" fill="black"/>
<path fill-rule="evenodd" clip-rule="evenodd" d="M26.4898 19.3463C26.4883 19.3412 26.4934 19.3589 26.4898 19.3463C26.8551 19.3463 27.4287 19.7607 27.4287 20.7619C27.4287 21.758 27.01 22.8864 26.9111 23.1368C25.4027 26.7051 21.8026 28.6914 17.5142 28.5657C13.5163 28.4485 10.1066 26.3662 8.61453 22.9714C7.71237 22.9724 6.78211 22.5807 6.07507 21.9622C5.32974 21.3105 4.87028 20.4672 4.78062 19.5877C4.71083 18.9028 4.79586 18.2657 5.0134 17.7101L4.17543 17.009C0.340442 13.8129 12.3349 0.653191 16.1709 3.95597C16.1902 3.97255 17.476 5.21762 17.4791 5.22061C19.3287 4.44542 24.2845 2.96947 24.2901 6.40534C24.2921 7.54631 23.5555 8.8769 22.3752 10.0842C23.7392 11.333 23.3796 13.1067 23.5968 14.7341L24.0706 14.8639C24.9738 15.1138 25.6162 15.4472 25.9305 15.7731C26.2448 16.0984 26.4007 16.4137 26.4572 16.7833C26.5102 17.0815 26.5031 17.608 26.1047 18.1968C26.2482 18.5767 26.3791 18.9554 26.4898 19.3463ZM8.54681 22.0457C8.68078 22.0486 8.81372 22.0401 8.94416 22.018C10.3456 21.7822 10.7124 20.2796 10.4816 18.8043C10.2207 17.1383 9.07917 16.551 8.30428 16.5092C8.08881 16.4981 7.88864 16.5173 7.72359 16.55C6.34045 16.825 5.55953 17.9866 5.71338 19.4952C5.85241 20.8604 7.25133 22.0115 8.54681 22.0457ZM5.41434 16.9593C5.87843 16.294 6.63693 15.8128 7.49788 15.6473C8.59368 12.7438 10.4235 10.0686 12.8454 8.22769C14.6426 6.74777 16.5809 5.68629 16.5809 5.68629C16.5809 5.68629 15.5371 4.4915 15.2218 4.40348C13.2824 3.88654 9.09392 6.73771 6.41945 10.5051C5.33742 12.0293 3.78824 14.7286 4.52895 16.117C4.62013 16.289 5.13719 16.731 5.41434 16.9593ZM21.1378 21.3788C21.1409 21.41 21.1215 21.4422 21.0935 21.4538C21.0935 21.4538 19.5351 22.1693 17.0598 21.4136C17.1488 22.1556 18.0486 22.4367 18.6773 22.5385C21.7445 23.0594 24.6121 21.3281 25.2575 20.8921C25.3684 20.8172 25.2562 21.0097 25.2361 21.0379C24.446 22.0441 22.3217 23.2092 19.558 23.2088C18.3528 23.2083 17.148 22.7894 16.7058 22.1452C16.0196 21.1461 16.6716 19.6873 17.8153 19.8391C19.7485 20.0546 21.7303 19.8927 23.5199 19.0728C25.0803 18.3577 25.6697 17.5713 25.581 16.9341C25.4435 15.9467 23.9796 15.7923 23.2397 15.5523C22.9177 15.4472 22.7588 15.3632 22.7226 14.7653C22.7068 14.5043 22.661 13.5936 22.6442 13.217C22.6146 12.5578 22.5341 11.6561 21.9677 11.284C21.8199 11.187 21.6559 11.1402 21.4832 11.1312C21.3455 11.1246 21.2639 11.1435 21.22 11.1537C21.2101 11.156 21.2021 11.1578 21.1959 11.1588C20.89 11.2102 20.7025 11.3649 20.4815 11.5474C20.4688 11.558 20.4559 11.5686 20.4429 11.5792C19.7364 12.1605 19.1398 12.2556 18.476 12.2274C18.2693 12.2187 18.0562 12.1981 17.8315 12.1763C17.6248 12.1563 17.4081 12.1353 17.1775 12.1218L16.8958 12.1057C15.7842 12.0494 14.5922 12.9968 14.394 14.3424C14.1726 15.8444 15.0121 16.7644 15.5581 17.3628C15.693 17.5106 15.81 17.6388 15.8886 17.7513C15.9391 17.8192 15.9977 17.9147 15.9977 18.0057C15.9977 18.1144 15.9264 18.2003 15.8566 18.2737C14.7226 19.4248 14.3598 21.2536 14.7873 22.7778C14.8408 22.9679 14.9085 23.1499 14.9885 23.3239C15.991 25.6365 19.1016 26.7136 22.1399 25.7341C24.2692 25.0475 26.1505 23.3885 26.5336 21.0998C26.6248 20.5034 26.4908 20.2731 26.3085 20.162C26.1154 20.0448 25.8841 20.0856 25.8841 20.0856C25.8841 20.0856 25.7787 19.373 25.4802 18.7253C24.5942 19.4152 23.4542 19.9 22.5861 20.1459C21.1953 20.5397 19.693 20.6931 18.2558 20.5073C17.6728 20.432 17.2812 20.3814 17.1133 20.9197C19.0303 21.6127 21.0594 21.316 21.0594 21.316C21.0985 21.312 21.1337 21.3401 21.1378 21.3788ZM15.6069 7.93201C14.5585 8.46151 13.3879 9.40438 12.4373 10.489C12.4037 10.5277 12.4536 10.5811 12.4949 10.5514C13.316 9.96155 14.4419 9.4134 15.9167 9.05841C17.5687 8.66064 19.1592 8.82759 20.1306 9.04732C20.1796 9.05841 20.2101 8.97546 20.1668 8.95132C19.5249 8.59579 18.5397 8.35441 17.8408 8.34942C17.8066 8.34887 17.7873 8.30968 17.8077 8.28249C17.9284 8.12213 18.094 7.96371 18.2452 7.84906C18.2789 7.82291 18.2585 7.76909 18.2157 7.77159C17.3463 7.82431 15.3604 8.72982 15.3675 8.69684C15.4185 8.45547 15.5789 8.13669 15.662 7.98785C15.6818 7.95262 15.6431 7.91391 15.6069 7.93201Z" fill="black"/>
</g>
</svg>
