<svg width="32" height="32" viewBox="0 0 32 32" fill="none" xmlns="http://www.w3.org/2000/svg">
<path fill-rule="evenodd" clip-rule="evenodd" d="M5.0304 30.099L1.36174 25.5287C0.479073 24.4291 0 23.0769 0 21.6852V5.13597C0 3.05135 1.66782 1.32157 3.81943 1.17467L20.8343 0.0129949C22.0704 -0.0713998 23.299 0.257162 24.3144 0.943681L30.2926 4.9855C31.3626 5.70901 32 6.89173 32 8.15387V26.9687C32 29.0088 30.3601 30.6979 28.2535 30.8276L9.36887 31.99C7.6878 32.0935 6.06294 31.3853 5.0304 30.099Z" fill="white"/>
<path d="M10.931 13.4171V13.2005C10.931 12.6512 11.3709 12.1957 11.9378 12.1579L16.0673 11.8822L21.7779 20.2916V12.9109L20.308 12.715V12.6121C20.308 12.0564 20.7579 11.5978 21.3321 11.5684L25.0894 11.376V11.9167C25.0894 12.1705 24.9007 12.3876 24.642 12.4314L23.7378 12.5843V24.5371L22.603 24.9273C21.655 25.2533 20.5996 24.9044 20.0569 24.0854L14.5129 15.7195V23.7043L16.2193 24.0309L16.1955 24.1892C16.1211 24.685 15.693 25.0599 15.1752 25.083L10.931 25.2719C10.8749 24.7387 11.2745 24.2618 11.8257 24.2039L12.384 24.1452V13.4987L10.931 13.4171Z" fill="black"/>
<path fill-rule="evenodd" clip-rule="evenodd" d="M20.9871 2.09788L3.97229 3.25956C2.95311 3.32914 2.16309 4.14851 2.16309 5.13595V21.6852C2.16309 22.613 2.48247 23.5144 3.07091 24.2475L6.7396 28.8178C7.33272 29.5567 8.26615 29.9636 9.2319 29.9042L28.1165 28.7417C29.0844 28.6821 29.8379 27.9061 29.8379 26.9687V8.15385C29.8379 7.57393 29.545 7.03052 29.0534 6.69812L23.0753 2.6563C22.466 2.24439 21.7288 2.04725 20.9871 2.09788ZM4.81601 5.39411C4.57938 5.2189 4.69199 4.8539 4.98929 4.83256L21.1016 3.67691C21.615 3.64008 22.1251 3.78145 22.5403 4.07559L25.773 6.366C25.8958 6.45293 25.8382 6.64066 25.6863 6.64891L8.62342 7.57689C8.10704 7.60499 7.59731 7.45327 7.18674 7.14931L4.81601 5.39411ZM7.82305 10.4861C7.82305 9.93175 8.27088 9.47385 8.84352 9.44267L26.8839 8.4602C27.4419 8.42982 27.9118 8.85899 27.9118 9.39927V25.6909C27.9118 26.2442 27.4655 26.7017 26.894 26.7342L8.96793 27.7542C8.34682 27.7895 7.82305 27.3122 7.82305 26.7109V10.4861Z" fill="black"/>
</svg>
