<svg width="32" height="32" viewBox="0 0 32 32" fill="none" xmlns="http://www.w3.org/2000/svg">
<g clip-path="url(#clip0_1261_16790)">
<path d="M28.9221 14.7691C30.6213 14.7691 31.9987 13.3916 31.9987 11.6925C31.9987 9.99329 30.6211 8.61582 28.9219 8.61582C27.2226 8.61582 25.8448 9.99342 25.8448 11.6927V14.7691H28.9221ZM20.3064 14.7691C22.0058 14.7691 23.3833 13.3916 23.3833 11.6922V3.0774C23.3833 1.37807 22.0058 0.000488281 20.3064 0.000488281C18.6071 0.000488281 17.2295 1.37807 17.2295 3.0774V11.6922C17.2295 13.3916 18.6071 14.7691 20.3064 14.7691Z" fill="#2EB67D"/>
<path d="M3.07665 17.231C1.37746 17.231 0 18.6084 0 20.3076C0 22.0068 1.3776 23.3843 3.07678 23.3843C4.77611 23.3843 6.15382 22.0067 6.15382 20.3073V17.231H3.07665ZM11.6923 17.231C9.99295 17.231 8.61535 18.6086 8.61535 20.3079V28.9227C8.61535 30.6221 9.99295 31.9996 11.6923 31.9996C13.3916 31.9996 14.7692 30.6221 14.7692 28.9227V20.3079C14.7692 18.6086 13.3916 17.231 11.6923 17.231Z" fill="#E01E5A"/>
<path d="M17.2305 28.9232C17.2305 30.6224 18.6079 31.9999 20.3071 31.9999C22.0063 31.9999 23.3838 30.6223 23.3838 28.9231C23.3838 27.2237 22.0062 25.8461 20.3069 25.8461H17.2305V28.9232ZM17.2305 20.3076C17.2305 22.0069 18.6081 23.3845 20.3074 23.3845H28.9222C30.6216 23.3845 31.9991 22.0069 31.9991 20.3076C31.9991 18.6082 30.6216 17.2307 28.9222 17.2307H20.3074C18.6081 17.2307 17.2305 18.6082 17.2305 20.3076Z" fill="#ECB22E"/>
<path d="M14.7676 3.07665C14.7676 1.37746 13.3902 0 11.691 0C9.99183 0 8.61435 1.37759 8.61435 3.07678C8.61435 4.7761 9.99196 6.15382 11.6913 6.15382H14.7676V3.07665ZM14.7676 11.6923C14.7676 9.99295 13.3901 8.61535 11.6907 8.61535H3.07593C1.3766 8.61535 -0.000976562 9.99295 -0.000976562 11.6923C-0.000976562 13.3916 1.3766 14.7692 3.07593 14.7692H11.6907C13.3901 14.7692 14.7676 13.3916 14.7676 11.6923Z" fill="#36C5F0"/>
</g>
<defs>
<clipPath id="clip0_1261_16790">
<rect width="32" height="32" fill="white"/>
</clipPath>
</defs>
</svg>
